SplineFontDB: 3.0
FontName: Experiment-Sinhala-Cursive
FullName: Experiment-Sinhala
FamilyName: Experiment-Sinhala
Weight: Cursive
Copyright: Copyright (c) 2015, Pathum Egodawatta
UComments: "2015-9-29: Created with FontForge (http://fontforge.org)"
Version: 0.001
ItalicAngle: -4
UnderlinePosition: -99
UnderlineWidth: 49
Ascent: 750
Descent: 250
InvalidEm: 0
LayerCount: 2
Layer: 0 0 "Back" 1
Layer: 1 0 "Fore" 0
PreferredKerning: 4
XUID: [1021 779 -1439063335 14876943]
FSType: 0
OS2Version: 0
OS2_WeightWidthSlopeOnly: 0
OS2_UseTypoMetrics: 1
CreationTime: 1443542790
ModificationTime: 1468246133
PfmFamily: 17
TTFWeight: 400
TTFWidth: 5
LineGap: 122
VLineGap: 0
OS2TypoAscent: 879
OS2TypoAOffset: 0
OS2TypoDescent: -250
OS2TypoDOffset: 0
OS2TypoLinegap: 122
OS2WinAscent: 879
OS2WinAOffset: 0
OS2WinDescent: 49
OS2WinDOffset: 0
HheadAscent: 779
HheadAOffset: 0
HheadDescent: -27
HheadDOffset: 0
OS2Vendor: 'PfEd'
Lookup: 4 0 0 "'abvs' Above Base Substitutions in Sinhala lookup 0" { "'abvs' Above Base Substitutions in Sinhala lookup 0-1"  "'abvs' Above Base Substitutions in Sinhala lookup 0-2"  } ['abvs' ('DFLT' <'dflt' > 'sinh' <'dflt' > ) ]
Lookup: 4 0 0 "si_akhands" { "si_akhands subtable"  } ['akhn' ('sinh' <'dflt' > ) ]
Lookup: 4 0 0 "si_reph" { "si_reph subtable"  } ['rphf' ('sinh' <'dflt' > ) ]
Lookup: 4 0 0 "si_halant_1" { "si_halant_1 subtable"  } ['abvs' ('sinh' <'dflt' > ) ]
Lookup: 4 0 0 "si_halant_2" { "si_halant_2 subtable"  } ['abvs' ('sinh' <'dflt' > ) ]
Lookup: 4 0 0 "si_halant_3" { "si_halant_3 subtable"  } ['abvs' ('sinh' <'dflt' > ) ]
Lookup: 4 0 0 "si_abvs_1" { "si_abvs_1 subtable"  } ['abvs' ('sinh' <'dflt' > ) ]
Lookup: 4 0 0 "si_abvs_2" { "si_abvs_2 subtable"  } ['abvs' ('sinh' <'dflt' > ) ]
Lookup: 4 0 0 "si_abvs_3" { "si_abvs_3 subtable"  } ['abvs' ('sinh' <'dflt' > ) ]
Lookup: 4 0 0 "si_abvs_4" { "si_abvs_4 subtable"  } ['abvs' ('sinh' <'dflt' > ) ]
Lookup: 4 0 0 "si_abvs_5" { "si_abvs_5 subtable"  } ['abvs' ('sinh' <'dflt' > ) ]

StartChar: si_Tta
Encoding: 34 3495 0
GlifName: si_T_ta
Width: 760
Flags: HMW
LayerCount: 2
Fore
SplineSet
51 181 m 0
 56 358 236 437 340 437 c 0
 349 437 359 437 367 436 c 1
 400 353 l 1
 388 335 l 1
 267 356 112 332 109 204 c 0
 107 127 212 68 343 71 c 0
 536 75 635 190 651 358 c 0
 671 566 547 659 359 659 c 0
 234 659 151 600 149 600 c 0
 138 608 159 667 174 696 c 1
 217 724 276 746 368 746 c 4
 570 746 725 599 716 344 c 0
 708 116 570 -48 337 -49 c 0
 156 -50 47 54 51 181 c 0
EndSplineSet
Colour: ff00
EndChar

StartChar: si_Pa
Encoding: 46 3508 1
GlifName: si_P_a
Width: 765
Flags: HMW
LayerCount: 2
Back
SplineSet
498 352 m 1
 450 333 l 1
 442 358 435 384 435 426 c 0
 436 512 517 556 578 556 c 0
 661 556 713 507 713 427 c 0
 713 349 616 309 616 309 c 1
 600 326 l 1
 634.051757812 347.129882812 648.883789062 377.10546875 649 417 c 0
 649.133789062 463 615 494 556 494 c 0
 509 494 473 462 473 419 c 0
 473 367 498 352 498 352 c 1
117 209 m 0
 116 124 201 45 386 45 c 0
 561 45 661.451171875 127.008789062 663 216 c 0
 664.775390625 318.00390625 547 348 450 333 c 1
 470 373 l 1
 615 402 738 331 734 193 c 0
 729 29 562 -59 381 -59 c 0
 187 -59 36 33 38 180 c 0
 40 339 206 394 314 384 c 1
 290 345 l 1
 297 365 310.373046875 386.33203125 306 415 c 0
 297 474 237 505 169 490 c 0
 202 511 l 1
 147 409 l 1
 106 411 79.6005859375 436.013671875 81 471 c 0
 83 521 140 557 200 557 c 0
 270 557 342 517 344 439 c 0
 345 402 339 370 330 333 c 1
 206 351 118 287 117 209 c 0
EndSplineSet
Fore
SplineSet
371.379882812 332 m 1
 219.344627506 353.6 94.8366048756 316.224676879 95.3779296875 233 c 0
 95.8720720669 151.764360074 188.197571115 85.2399274554 385.9140625 82 c 0
 564.056640625 79.298828125 691.275390625 152.530273438 701.623046875 258 c 0
 708.22265625 327.0625 652.935546875 351.453125 584.541015625 352.620117188 c 0
 543.125 353.373046875 491.331054688 337.120117188 449.318359375 321.876953125 c 1
 435.484375 333 l 1
 428.090820312 472.360351562 500.211914062 588 631.211914062 588 c 0
 721.211914062 588 754.546875 530.006835938 749.577148438 477 c 0
 742.76171875 404.290039062 679.2890625 385.07421875 647.62890625 368 c 1
 653.06640625 376.1875 671.259765625 409.841796875 675.084960938 444 c 0
 681.186523438 498.500976562 642.948242188 531 590.237304688 531 c 0
 541.850585938 531 504.977539062 499.326171875 499.717773438 452 c 0
 494.682617188 406.709960938 513.8046875 394.787109375 525.305664062 379 c 1
 455.983398438 395 l 1
 498.555664062 410 523.303710938 416.678710938 581.184570312 416 c 0
 681.05859375 414.829101562 763.104492188 357.060546875 748.211914062 235 c 1
 728.826171875 92.265625 586.422851562 -26 393.118164062 -26 c 0
 129.503700486 -26 45.7270980053 100.748380513 53.90625 220 c 0
 63.943119601 357.176107806 210.380395019 430.848403361 345.510742188 409.578125 c 1
 300.314453125 360 l 1
 308.4609375 368.78515625 337.306640625 395.939453125 342.373046875 451 c 0
 345.543945312 485.009765625 327.259765625 523.40234375 284.50390625 524 c 0
 230.29296875 524.75 190.03125 469.271484375 179.546875 429 c 1
 146.756835938 431 104.88671875 449.89453125 110.778320312 498 c 0
 116.4140625 544.00390625 162.317382812 589 241.317382812 589 c 0
 401.317382812 589 405.385742188 437 384.952148438 347 c 1
 371.379882812 332 l 1
EndSplineSet
Colour: ff00
EndChar

StartChar: si_Va
Encoding: 55 3520 2
GlifName: si_V_a
Width: 790
Flags: HMW
LayerCount: 2
Back
SplineSet
15 148 m 0
 15 319 199.150943396 354 320 354 c 0
 329 354 342 354 350 353 c 1
 349 419 303 453 254 453 c 0
 192 453 170 396 170 385 c 1
 106.088607595 376.777777778 71 411.037037037 71 459 c 0
 71 527.584269663 139.464285714 568 213 568 c 0
 376.474747475 568 451 405.390243902 451 273 c 0
 451 259.648648649 441.666666667 247.324324324 423 235 c 1
 403.163349212 228.805229055 372.035676247 226 340 226 c 0
 226.543147208 226 134.296209332 218.696347835 123 191 c 4
 97.7904191617 117.952380952 249.023460098 111.037224103 370 126 c 0
 506.945483491 140.290155677 580 209.088685015 580 373 c 0
 580 530.068493151 458.01673396 625 299 625 c 0
 197.809523809 625 130.619047619 595 129 595 c 1
 121.530850291 617.715762775 133.791776259 697.940637495 144 726 c 1
 188.67804878 747.807692308 260.370731707 768 357 768 c 0
 584.810810811 768 737 608 737 364 c 0
 737 124 582.483882934 -47 340 -47 c 0
 146.606959293 -47 15 24 15 148 c 0
EndSplineSet
Fore
SplineSet
63.4287109375 163 m 4
 63.427734375 314 222.46484375 389 331.427734375 389 c 4
 340.427734375 389 343.427734375 389 351.427734375 388 c 5
 350.427734375 454 317.428710938 487 268.428710938 487 c 4
 206.428710938 487 188.427734375 421 188.427734375 410 c 5
 137.427734375 404 109.427734375 430 109.427734375 465 c 4
 109.427734375 525 176.427734375 553 234.427734375 553 c 4
 362.427734375 553 416.427734375 454 416.427734375 362 c 4
 416.427734375 349 415.427734375 337 413.427734375 325 c 5
 393.427734375 309 l 5
 368.427734375 313 341.427734375 315 315.427734375 315 c 4
 207.19921875 315 120.427734375 257 120.427734375 183 c 4
 120.427734375 111 213.62109375 78.6416015625 341.427734375 80 c 4
 544.302734375 82.1572265625 679.427734375 221 679.427734375 448 c 4
 679.427734375 610 554.080078125 695 392.427734375 695 c 0
 265.522460938 695 180.618164062 625 178.427734375 625 c 1
 170.958007812 642.513671875 183.219726562 692.366210938 198.427734375 714 c 1
 243.106445312 742.807617188 318.798828125 781 415.427734375 781 c 0
 593.23828125 781 742.427734375 662 742.427734375 418 c 4
 742.428710938 178 607.911132812 -27 355.427734375 -27 c 4
 179.885742188 -27 63.427734375 39 63.4287109375 163 c 4
EndSplineSet
Colour: ff00
EndChar

StartChar: si_Ra
Encoding: 53 3515 4
GlifName: si_R_a
Width: 695
Flags: HMW
LayerCount: 2
Back
SplineSet
60.7705078125 260.41015625 m 4
 62.1484375 546.224609375 345.682617188 709.37109375 506.442382812 936.809570312 c 5
 529.805664062 940.569335938 584.979492188 886.557617188 570.721679688 844.66015625 c 5
 453.0078125 736.430664062 224.02734375 589.029296875 160.381835938 401.150390625 c 5
 132.576171875 354.20703125 127.33203125 338.345703125 122.474609375 273.89453125 c 4
 114.482421875 167.859375 219.600585938 69.453125 349.470703125 70.64453125 c 4
 520.162109375 72.2099609375 614.635742188 169.153320312 618.559570312 302.455078125 c 4
 622.435546875 434.102539062 478.903320312 473.331054688 381.474609375 471.084960938 c 4
 291.025390625 469 174.108398438 438.96875 106.891601562 330.83984375 c 5
 104.975585938 364.055664062 115.022460938 380.435546875 126.28515625 412.0703125 c 5
 144.505859375 430.188476562 150.696289062 446.565429688 182.040039062 469.125 c 5
 232.419921875 519.307617188 310.870117188 568.424804688 412.63671875 568.424804688 c 4
 559.817382812 568.424804688 684.413085938 450.95703125 679.473632812 292.190429688 c 4
 672.637695312 72.4453125 538.862304688 -31.9345703125 363.059570312 -36.9345703125 c 4
 152.873046875 -42.62109375 60.033203125 112.899414062 60.7705078125 260.41015625 c 4
EndSplineSet
Fore
SplineSet
51.7705078125 232.41015625 m 0
 53.1484375 488.224609375 325.682617188 650.37109375 486.442382812 877.809570312 c 1
 509.805664062 881.569335938 544.979492188 827.557617188 530.721679688 785.66015625 c 1
 456.37890625 699.723632812 261.573242188 548.923828125 193.040039062 460.125 c 1
 187.1796875 452.922851562 188.5390625 438.012695312 183.228515625 431 c 0
 142.108398438 376.69921875 108.170898438 330.477539062 102.474609375 254.89453125 c 0
 94.482421875 148.859375 140.734591934 66.0927069302 290.470703125 59.64453125 c 0
 491.1640625 51.001953125 596.264648438 193.263671875 589.559570312 326.455078125 c 0
 583.435546875 448.102539062 432.903320312 473.331054688 369.474609375 466.084960938 c 0
 279.5859375 455.81640625 177.108398438 419.96875 109.891601562 311.83984375 c 1
 107.975585938 345.055664062 136.022460938 361.435546875 147.28515625 393.0703125 c 1
 165.505859375 411.188476562 151.696289062 417.565429688 183.040039062 440.125 c 1
 213.419921875 470.307617188 320.870117188 549.424804688 412.63671875 549.424804688 c 0
 559.817382812 549.424804688 654.90625 448.940429688 649.473632812 290.190429688 c 0
 642.637695312 90.4453125 508.862304688 -32.9404296875 333.059570312 -37.9345703125 c 0
 132.873046875 -43.62109375 50.9755859375 84.900390625 51.7705078125 232.41015625 c 0
EndSplineSet
Colour: ffff00
EndChar

StartChar: si_Ca
Encoding: 27 3488 5
GlifName: si_C_a
Width: 877
Flags: HMW
LayerCount: 2
Back
SplineSet
65 327 m 5
 486 333 l 1
 481 283 l 1
 158 283 l 1
 64 271 l 5
 65 327 l 5
EndSplineSet
Refer: 2 3520 N 1 0 0 1 95 0 2
Fore
SplineSet
122.756835938 178 m 4
 130.669921875 326.800970874 299.58984375 351.436893204 408.552734375 381 c 4
 417.229865757 381 430.552734375 381 438.5 383 c 5
 440.958984375 449 396.741210938 483 347.741210938 483 c 4
 285.741210938 483 260.75390625 426 260.176757812 415 c 5
 208.862304688 409 182.172851562 434 184.006835938 469 c 4
 186.94140625 525 242.670898438 558 300.670898438 558 c 4
 436.670898438 558 492.749023438 445 487.927734375 353 c 4
 487.24609375 340 485.6171875 328 482.98828125 316 c 5
 462.150390625 300 l 5
 437.359375 304 410.46484375 306 384.46484375 306 c 4
 276.236328125 306 175.83984375 275 171.961914062 201 c 4
 168.712890625 139 255.645507812 96 393.458984375 96 c 4
 626.3359375 96 759.223632812 206 770.596679688 423 c 4
 780.134765625 605 646.551757812 715 464.899414062 715 c 4
 327.994140625 715 233.9453125 655 231.754882812 655 c 5
 225.203125 672.513671875 240.706054688 734.366210938 252.047851562 756 c 5
 297.869140625 777.807617188 370.620117188 798 467.249023438 798 c 4
 695.059570312 798 838.864257812 638 826.076171875 394 c 4
 813.499023438 154 650.020507812 -17 407.537109375 -17 c 4
 231.995117187 -17 116.2578125 54 122.756835938 178 c 4
34.3115234375 275 m 5
 49.7666015625 360 l 5
 130.358843511 374.608695652 327.428631772 385.043478261 439.971679688 384 c 5
 433.185546875 369 l 5
 252.505463126 359.912621359 100.774066837 298.32038835 46.787109375 265 c 5
 34.3115234375 275 l 5
EndSplineSet
EndChar

StartChar: si_Sa
Encoding: 58 3523 6
GlifName: si_S_a
Width: 905
Flags: HMW
LayerCount: 2
Back
SplineSet
69 379 m 1xf8
 447 381 l 1
 449 336 l 1
 153 335 l 1
 68 322 l 1
 69 379 l 1xf8
577 373 m 1
 610 384 l 1
 709.491210938 410.330078125 895 380.840820312 895 186 c 0
 895 64 820.377929688 -45 689 -45 c 0
 584 -45 517 22 502 126 c 1
 500 123 539 129 537 126 c 1
 519.119140625 25 450.748046875 -43.1982421875 334 -44 c 0
 201.470703125 -44.91015625 129.172851562 54.9951171875 131 154 c 0
 133.165039062 268 227.35546875 346 262 347 c 1
 356 338 l 1
 269.861328125 324.103515625 191.854492188 266.251953125 193 183 c 0
 193.899414062 112.950195312 245.522460938 64.845703125 334 62 c 0
 401.15625 59.83984375 499 88.2900390625 502 214 c 1
 537 215 l 1
 540 100.411132812 613.994140625 64.4326171875 694 64 c 0
 773.806640625 63.599609375 829.400390625 113.7890625 831 195 c 0xfa
 833.384765625 310.975585938 735.305664062 383.813476562 572 328 c 1
 567 350.166992188 562.391601562 374.670898438 562 398 c 0
 560 500 633 568 717 570 c 0
 783.981445312 571.594726562 860 532 860 452 c 0
 860 356 767 330 767 330 c 1
 751 337 l 1
 751 337 790 374.990234375 790 424 c 0xfc
 790 465 749.879882812 513.047851562 686 509 c 0
 649.995117188 506.71875 607 472 602 411 c 0
 598.227539062 364.98046875 618 353 618 353 c 1
 577 373 l 1
418 364 m 1
 421 398 421 417 409 445 c 0
 395 480 340 508 290 503 c 0
 239 419 l 1
 209 422 185 439 185 476 c 0
 185 543 257 568 310 568 c 0
 390 568 463.29296875 518.05078125 466 433 c 0
 467.56640625 383.791015625 458 358.083007812 449 337 c 1
 418 364 l 1
EndSplineSet
Fore
SplineSet
39.2919921875 294 m 1
 59.201171875 379 l 1
 138.668945312 393 331.087890625 397 440.983398438 396 c 1
 422.991210938 377 l 1
 248.14453125 388 105.702148438 317 51.2431640625 284 c 1
 39.2919921875 294 l 1
753.314453125 366 m 1
 758.752929688 374.1875 784.469726562 417.841796875 788.294921875 452 c 0
 794.396484375 506.500976562 765.368164062 541 712.657226562 541 c 0
 664.270507812 541 611.663085938 497.326171875 606.403320312 450 c 0
 601.368164062 404.709960938 600.280273438 391.787109375 611.78125 376 c 1
 550.515625 383 l 1
 593.087890625 398 618.447265625 410.522460938 676.345703125 410 c 0
 806.219726562 408.829101562 871.788085938 316.059570312 857.915039062 195 c 0
 842.189453125 67.134765625 747.133789062 -28 612.064453125 -28 c 0
 492.53515625 -28 429.622070312 60.7275390625 456.360351562 142 c 1
 455.208984375 140.444335938 482.123046875 125.541992188 480.94921875 124 c 1
 461.490898789 73.791015625 400.53458588 -25.1552734375 276.012695312 -26 c 4
 136.591871328 -26.9169921875 86.9027874251 71.6787109375 96.3505859375 157 c 0
 109.060546875 273.713867188 211.41015625 356.413085938 302.579101562 391 c 1
 305.462890625 392.047851562 302.725585938 387.047851562 305.620117188 388 c 1
 408.354492188 390 l 1
 442.252929688 435.82421875 401.579101562 529.982421875 348.765625 531 c 0
 296.857421875 532 264.262695312 480 253.127929688 431 c 1
 220.336914062 433 177.073242188 456.893554688 182.883789062 505 c 0
 189.04296875 556.00390625 239.946289062 601 318.946289062 601 c 0
 458.609375 601 496.0703125 432.5859375 464.065429688 330 c 1
 448.59765625 316 l 1
 248.71484375 349.568359375 154.552734375 256.873046875 146.076171875 183 c 0
 138.061151133 114.515625 202.440968601 78.1665542748 298.647460938 85 c 4
 369.577500573 90.0380859375 442.708684896 115.465820312 471.90625 209 c 1
 479.448242188 210.986328125 487.079101562 213.831054688 494.53515625 215 c 1
 477.298828125 137.99609375 525.611328125 75.9990234375 622.966796875 76 c 0
 742.7890625 76.0009765625 810.231445312 147.703125 814.897460938 221 c 0
 820.53125 309.485351562 748.4609375 339.452148438 670.283203125 340.620117188 c 0
 628.849609375 341.239257812 586.702148438 331.120117188 544.689453125 315.876953125 c 1
 530.85546875 327 l 1
 522.415039062 456.360351562 611.840820312 600 742.840820312 600 c 0
 832.840820312 600 870.755859375 538.006835938 865.787109375 485 c 0
 858.971679688 412.290039062 784.975585938 383.07421875 753.314453125 366 c 1
EndSplineSet
Colour: ff00
EndChar

StartChar: si_Ka
Encoding: 21 3482 7
GlifName: si_K_a
Width: 1056
VWidth: -24
Flags: HMW
LayerCount: 2
Back
SplineSet
857 17 m 0xb0
 969.916015625 20.09375 991.169921875 184.509765625 967 281 c 0
 936.051757812 404.547851562 806.896484375 466.663085938 667 462 c 0
 567.9140625 458.697265625 490.959960938 431.771484375 397 374 c 1
 380 362 391 367 377 355 c 1
 280 276 198 211 98 79 c 1
 98 79 63.1279296875 98.5439453125 69 107 c 0
 169 251 259 322 357 413 c 1
 364 419 373 420 380 425 c 1
 472 505 585.087890625 556.008789062 694 561 c 0
 900.541015625 570.465820312 1053.95410156 450.18359375 1067 282 c 0
 1080.14355469 112.560546875 991.994140625 -33 844 -33 c 4
 785 -33 748 -15 748 -15 c 1
 768 46 l 1
 768 46 799.74609375 15.431640625 857 17 c 0xb0
330 377 m 1x30
 342 400 345.857421875 420.9921875 345 439 c 0
 343 481 306.760742188 505.678710938 257 501 c 0
 222.934570312 497.796875 187 470 193 426 c 1
 233 371 l 1
 219 347 196.001953125 335.022460938 174 336 c 0
 129 338 109 369 109 415 c 0
 109 495 175.983398438 563.181640625 273 559 c 0
 355.926757812 555.42578125 404.715820312 480.119140625 378 416 c 0
 363 380 378 404 365 387 c 1
 330 377 l 1x30
149 165 m 1
 157 169 166.001953125 171.854492188 173 172 c 0
 221 173 230 72 313 72 c 0
 362 72 412 101 413 197 c 1
 448 197 l 0
 449 94 508.997070312 71.1669921875 569 72 c 0
 629.002929688 72.8330078125 680 118 680 194 c 0
 680 273 608 340 494 345 c 0
 432.059570312 347.716796875 356 329 323 311 c 1
 377 364 l 1
 390 368 423.99609375 390.330078125 501 391 c 0
 616 392 738 332 738 182 c 0
 738 48 662.995117188 -34.9423828125 558 -36 c 0
 472.693359375 -36.859375 439.721679688 8.326171875 421 49 c 1
 439 49 l 1
 421.737304688 7.81640625 378.954101562 -36 314 -36 c 0
 155.997070312 -36 202 169 137 130 c 0
 149 165 l 1
EndSplineSet
Fore
SplineSet
34.66015625 124 m 1
 136.524414062 233 229.11328125 326 322.810546875 408 c 0
 455.041992188 528.081054688 571.453125 592 708.453125 592 c 0
 882.453124999 592 1032.09082031 480.006835938 1020.94433594 277 c 0
 1012.48828125 122.98828125 935.956054686 -9 765.008789062 -8 c 1
 739.93359375 10.5546875 709.280273437 54.431640625 711.249023438 92 c 1
 726.595703125 98.603515625 l 1
 753.662109375 91.986328125 775.149414062 88.4765625 801.091796875 89 c 0
 900.197265625 91 965.861328125 180 970.735351562 273 c 0
 978.229492189 416 834.845703125 485 673.845703125 485 c 0
 549.845703125 485 431.591796875 442 354.342773438 380 c 0
 340.763671875 369.1015625 293.72265625 330 282.936523438 315 c 1
 333.37890625 361.458007812 418.146484375 414 500.125 414 c 0
 615.369140625 414 684.248046875 320.943359375 678.119140625 204 c 0
 673 106.315429688 619.877929688 -8 508.008789062 -8 c 0
 448.864257812 -8 403.53515625 26 388.620117188 80 c 1
 369.544921875 28 325.74609375 -9.2197265625 262.008789062 -8 c 0
 189.712890625 -6.7265625 173.270507812 55.5546875 142.720703125 101 c 0
 131.6640625 119 98.4501953125 134 79.40234375 114 c 1
 104.341796875 151 l 1
 188.15234375 175.731445312 164.575195312 100 259.668945312 100 c 0
 307.1328125 100 375.290039062 147.217773438 392.5859375 232 c 1
 417.900390625 238 l 1
 408.584960938 162 454.924804688 109.09375 508.826171875 103 c 0
 585.7265625 94.3056640625 632.26171875 130.39453125 636.170898438 205 c 0
 640.290039062 283.584960938 561.106445312 327 474.565429688 327 c 0
 379.565429688 327 292.225585938 301.440429688 227.58203125 251 c 0
 180.087890625 216.181640625 71.6044921875 124 63.5634765625 78 c 1
 58.4248046875 80 30.5419921875 97 34.66015625 124 c 1
79.8583984375 428 m 0
 84.5751953125 518 180.034179688 584 278.034179688 584 c 0
 334.034179688 584 384.985351563 564 382.208007812 511 c 0
 379.640625 462 339.01953125 412 313.709960938 387 c 1
 287.1328125 376 l 1
 301.233398438 397 318.176757812 415 320.220703125 454 c 0
 322.7890625 503 296.623046875 538 247.623046875 538 c 4
 196.623046875 538 173.002929688 488 170.591796875 442 c 0
 168.705078125 406 184.552734375 384 194.923828125 372 c 1
 181.556640625 365 159.346679688 361 143.346679688 361 c 0
 101.346679688 361 77.447265625 382 79.8583984375 428 c 0
EndSplineSet
Colour: ff00
EndChar

StartChar: si_Ta
Encoding: 40 3501 8
GlifName: si_T_a
Width: 1071
VWidth: -24
Flags: HMW
LayerCount: 2
Back
SplineSet
250 378 m 1x38
 262 401 265.788085938 421.989257812 265 440 c 0
 262.88671875 488.322265625 213.939453125 510.5859375 172 501 c 0
 140.6171875 493.826171875 115.75 469.586914062 112 425 c 1
 152 370 l 1
 138 346 114.997070312 333.926757812 93 335 c 0
 52 337 28 368 28 414 c 0
 28 494 94.9794921875 562.083984375 192 558 c 0
 275.716796875 554.475585938 325.256835938 480.104492188 298 417 c 0
 282.53515625 381.197265625 298 405 285 388 c 1
 250 378 l 1x38
755 7 m 0x78
 869.530273438 10.0673828125 903.213867188 168.196289062 877 279 c 0
 846.31640625 408.693359375 716.73046875 467.030273438 567 462 c 0
 475.24609375 458.91796875 404 431.771484375 317 374 c 1
 300 362 311 367 297 355 c 1
 200 276 148 211 48 79 c 1
 48 79 13.1279296875 98.5439453125 19 107 c 0
 119 251 179 322 277 413 c 1
 284 419 293 420 300 425 c 1
 394.9296875 505 511.6328125 555.721679688 624 561 c 4
 813.928710938 570.465820312 962.841796875 449.986328125 977 282 c 0
 990.724609375 112.560546875 888.547851562 -43 734 -43 c 0
 659.46875 -43 629 -22 629 -22 c 1
 653 40 l 1
 653 40 689.37109375 5.6181640625 755 7 c 0x78
78 142 m 1
 93.8271484375 148.801757812 107.977539062 157.05859375 121 157.575195312 c 0
 207.53125 161.009765625 216.237304688 64.6337890625 384 62 c 0
 515.998046875 59.927734375 593.387695312 124.006835938 592 205 c 0
 589.891601562 328.076171875 455.087890625 345.88671875 404 346 c 0
 322.086914062 346.181640625 264 328 231 310 c 1
 268 362 l 1
 281 366 344.00390625 395.240234375 416 394 c 0
 516.004882812 392.27734375 651 345 651 195 c 0
 651 89.8291015625 582 -44 384 -44 c 0xb8
 254.072265625 -44 175.453125 7.7138671875 159 67.9970703125 c 0
 143.305664062 125.500976562 101.395507812 127.443359375 56 104 c 1
 78 142 l 1
EndSplineSet
Fore
SplineSet
76.015625 421 m 0
 80.732421875 511 175.19140625 577 273.19140625 577 c 0
 336.19140625 577 377.880859375 552 374.7890625 493 c 4
 372.220703125 444 324.081054688 374 298.770507812 349 c 1
 269.084960938 325 l 1
 293.604492188 354 297.333984375 398 299.377929688 437 c 0
 301.946289062 486 289.780273438 531 243.780273438 531 c 0
 196.780273438 531 169.631835938 490 167.220703125 444 c 0
 165.333984375 408 180.709960938 377 191.081054688 365 c 1
 177.713867188 358 155.50390625 354 139.50390625 354 c 0
 97.50390625 354 73.6044921875 375 76.015625 421 c 0
76.7646484375 90 m 1
 154.953125 189 257.786132812 323.701171875 346.333984375 408 c 0
 441.748046875 498.834960938 582.453125 582 719.453125 582 c 0
 893.453125 582 1033.83105469 466.001953125 1020.8359375 273 c 0
 1011.81347656 139 927.008789062 -28 718.588867188 -36 c 1
 675.491210938 -7.7294921875 657.940429688 47.0341796875 659.40625 75 c 1
 663.032226562 73.96484375 668.958007812 78.904296875 672.563476562 78 c 1
 700.315429688 71.041015625 725.174804688 64 751.725585938 64 c 0
 860.725585938 64 956.2890625 139 962.525390625 258 c 0
 970.01953125 401 830.404296875 475 691.369140625 475 c 0
 525.732421875 475 445.815429688 422.53125 357.818359375 360 c 0
 343.635742188 349.921875 312.827148438 322 300.09375 308 c 1
 324.194335938 329 360.2421875 349 380.923828125 362 c 1
 410.971679688 382 469.125 404 512.125 404 c 0
 618.125 404 680.141601562 348 674.953125 249 c 0
 669.135742188 138 574.246122909 -16.1452715771 386.956054688 -19 c 0
 309.688476562 -20.177734375 244.262695312 2.6806640625 205.891601562 35.1669921875 c 0
 176.5390625 60.017578125 160.678710938 111.51953125 112.716796875 70 c 0
 125.131835938 97 l 0
 158.205078125 122.293945312 182.935546875 128.731445312 222.4296875 102.692382812 c 0
 244.693359375 88.0146484375 331.499811922 80.5621387315 406.830078125 81 c 0
 512.33984375 81.61328125 629.716796875 140 635.638671875 243 c 0
 638.857421875 298.984375 575.698242188 325 481.984375 325 c 0
 390.555664062 325 304.497070312 270.845703125 240.534179688 211 c 0
 199.176757812 172.305664062 129.135742188 108 102.7734375 32 c 1
 101.877929688 34 62.2978515625 52 76.7646484375 90 c 1
EndSplineSet
EndChar

StartChar: si_Na
Encoding: 44 3505 9
GlifName: si_N_a
Width: 1072
Flags: HMW
LayerCount: 2
Back
SplineSet
106.20703125 146 m 5
 153.173828125 97.984375 227.114257812 87.69140625 335.442382812 91 c 4
 427.739257812 93.841796875 582.314453125 127.947265625 593.53515625 235 c 4
 597.9375 277 556.606445312 312 488.606445312 312 c 4
 303.606445312 312 227.739257812 132 115.634765625 131 c 4
 115.634765625 131 l 4
 115.634765625 131 l 4
 115.844726562 133 105.997070312 144 106.20703125 146 c 5
111.813476562 438 m 4
 121.24609375 528 222.052734375 594 323.1640625 594 c 4
 389.1640625 594 429.543945312 569 423.359375 510 c 4
 419.271484375 471 364.943359375 382 338.323242188 357 c 5
 328.266601562 366 l 5
 343.467773438 387 358.450195312 425 362.538085938 464 c 4
 367.673828125 513 337.342773438 548 291.342773438 548 c 4
 250.87109375 548 225.044921875 507 220.223632812 461 c 4
 216.450195312 425 230.201171875 394 239.943359375 382 c 5
 226.209960938 375 203.790039062 371 187.790039062 371 c 4
 135.760742188 371 106.991210938 392 111.813476562 438 c 4
39.7529296875 218 m 5
 51.8974609375 223.157226562 74.5380859375 213.364257812 80.9150390625 210 c 5
 85.189453125 184 87.72265625 170 116.72265625 170 c 4
 177.72265625 170 283.787109375 315.112304688 343.047851562 383 c 4
 469.106445312 521 620.780273438 592 743.954101562 592 c 4
 922.278320312 592 1046.36425781 474.483398438 1025.71972656 294 c 4
 1009.66699219 151.06640625 926.345703125 -17.466796875 701.2265625 -16 c 5
 662.952148438 10 651.716796875 65 654.232421875 89 c 4
 669.965820312 96 l 5
 702.743164062 87 720.78125 81 752.393554688 81 c 4
 867.041992188 81 952.272460938 130.62890625 966.147460938 263 c 4
 980.052734375 393.232421875 853.219726562 483 709.529296875 483 c 4
 581.702148438 483 455.857421875 433.005859375 361.588867188 350 c 4
 348.331054688 338 324.7109375 313 313.138671875 298 c 5
 338.33984375 319 370.85546875 343 392.532226562 359 c 5
 423.62890625 379 461.201171875 394 504.201171875 394 c 4
 590.201171875 394 648.807617188 333 638.430664062 234 c 4
 626.795898438 123 561.959960938 -9 329.959960938 -9 c 4
 153.959960938 -9 51.2236328125 108 39.7529296875 218 c 5
EndSplineSet
Fore
SplineSet
116.20703125 146 m 1
 163.173828125 97.984375 227.114257812 84.69140625 335.442382812 88 c 0
 427.739257812 90.841796875 582.314453125 137.947265625 593.53515625 235 c 0
 598.3852597 276.950651092 556.606445312 312 488.606445312 312 c 0
 303.606445312 312 237.739257812 132 125.634765625 131 c 0
 125.634765625 131 l 0
 125.634765625 131 l 0
 125.844726562 133 115.997070312 144 116.20703125 146 c 1
111.813476562 438 m 0
 121.24609375 528 222.052734375 594 323.1640625 594 c 0
 389.1640625 594 429.543945312 569 423.359375 510 c 0
 419.271484375 471 364.943359375 382 338.323242188 357 c 1
 328.266601562 366 l 1
 343.467773438 387 358.450195312 425 362.538085938 464 c 0
 367.673828125 513 339.342773438 549 293.342773438 549 c 0
 252.87109375 549 225.044921875 507 220.223632812 461 c 0
 216.450195312 425 230.201171875 394 239.943359375 382 c 1
 226.209960938 375 203.790039062 371 187.790039062 371 c 0
 135.760742188 371 106.991210938 392 111.813476562 438 c 0
49.7529296875 218 m 5
 61.8974609375 224.157226562 91.5380859375 223.364257812 97.9150390625 220 c 5
 92.189453125 191 97.72265625 170 126.72265625 170 c 0
 187.72265625 170 283.787109375 315.112304688 343.047851562 383 c 0
 469.106445312 521 620.780273438 592 743.954101562 592 c 0
 922.278320312 592 1046.36425781 474.483398438 1025.71972656 294 c 0
 1009.66699219 151.06640625 926.345703125 -25.466796875 701.2265625 -24 c 1
 662.952148438 2 651.716796875 47 654.232421875 71 c 0
 669.965820312 78 l 1
 702.743164062 74 720.897460938 70.291015625 752.393554688 73 c 0
 857.041992188 82 952.272460938 127.62890625 966.147460938 260 c 0
 980.052734375 390.232421875 843.219726562 484 699.529296875 484 c 0
 571.702148438 484 455.857421875 433.005859375 361.588867188 350 c 0
 348.331054688 338 324.7109375 313 313.138671875 298 c 1
 343.33984375 318 370.85546875 337 392.532226562 353 c 1
 423.62890625 373 468.201171875 394 504.201171875 394 c 0
 590.201171875 394 648.807617188 333 638.430664062 234 c 0
 626.795898438 123 561.959960938 -19 329.959960938 -19 c 0
 153.959960938 -19 61.2236328125 108 49.7529296875 218 c 5
EndSplineSet
Colour: ff00
EndChar

StartChar: anusvara
Encoding: 1 3458 10
GlifName: anusvara
Width: 588
VWidth: 0
Flags: HMW
LayerCount: 2
Back
SplineSet
120 225 m 0
 120 135 165.049804688 67.998046875 283 67 c 0
 373.046875 66.23828125 438.099609375 143.999023438 439 224 c 4
 440.125 323.993164062 371 393 264 387 c 0
 194.109375 383.081054688 120 318 120 225 c 0
55 194 m 0
 55 345 173 443 294 443 c 0
 445 443 523 335 523 214 c 0
 523 93 436 -25 285 -25 c 0
 134 -25 55 73 55 194 c 0
EndSplineSet
Fore
SplineSet
136 225 m 4
 130 135 170.001953125 68.1796875 288 67 c 4
 388 66 459 154 465 234 c 4
 473 334 408 393 301 387 c 4
 231 383 143 318 136 225 c 4
69 194 m 0
 80 345 204 443 325 443 c 0
 476 443 546 335 538 214 c 0
 530 93 434 -25 283 -25 c 0
 132 -25 61 73 69 194 c 0
EndSplineSet
EndChar

StartChar: si_A
Encoding: 3 3461 11
GlifName: si_A_
Width: 728
VWidth: -17
Flags: HMW
LayerCount: 2
Back
SplineSet
364 -57.5380859375 m 0
 153.625 -57.1875 52.4326171875 37.0244140625 54 157 c 0
 55.8642578125 305.000976562 183.197265625 381 323 383 c 0
 356.912109375 383.546875 385.2578125 381.401367188 402.384765625 378.52734375 c 1
 403.505859375 468.180664062 340.708007812 504.435546875 271 497 c 1
 215 408 l 1
 169 411 141 448 150 484 c 0
 166 546 225 567 288 567 c 0
 360 567 432 527 446 443 c 0
 455.095703125 388.426757812 439 334 439 334 c 1
 329.883789062 352.869140625 188.782226562 312.513671875 175 179 c 0
 164.526367188 81.240234375 240.35546875 4.236328125 408 4.8173828125 c 0
 529.96875 5.240234375 602.526367188 50.912109375 665 88.599609375 c 1
 696 47 l 1
 624.354492188 -10.3515625 511.6953125 -57.7841796875 364 -57.5380859375 c 0
506 406.842773438 m 1
 507.64453125 463.158203125 496.786132812 528.805664062 565 568 c 1
 594 546.889648438 l 1
 593.51171875 491.823242188 726 455.326171875 726 386 c 0
 726 313.143554688 634 241.561523438 545 234 c 1
 536 274 l 1
 593 284 652 321.561523438 652 378 c 0
 652 426 566.39453125 468.649414062 566 507.856445312 c 1
 554.118164062 493.653320312 558.6328125 470 558.6328125 421.313476562 c 0
 556 -378 l 1
 506 -378 l 1
 506 406.842773438 l 1
438.465820312 371.448242188 m 1
 439.303710938 371.296875 440.147460938 371.146484375 441 371 c 1
 441 371.776367188 440.05859375 371.853515625 438.465820312 371.448242188 c 1
EndSplineSet
Fore
SplineSet
449.984375 335 m 1
 411.411132812 351.16796875 318.060546875 374.218750001 261.501953125 363.965820312 c 0
 186.583007812 350.383789062 148.0625 302.393554688 139.057617188 241 c 0
 123.733398437 136.520507812 208.579101562 46.724609375 378.786132812 45 c 4
 469.392578125 44.08203125 566.077148438 53.8466796875 650.821289062 122 c 5
 667.150390625 104.534179688 669.422851562 54.396484375 659.576171875 41 c 5
 581.556640625 2.4619140625 445.895507812 -22.93359375 327.694335938 -14 c 4
 176.217773438 -2.5517578125 27.4765625 43.3134765625 33.384765625 190 c 0
 40.03125 354.993164062 237.815429688 450.291992188 430.176757812 415 c 1
 393.1328125 376 l 1
 396.70703125 380.516601562 416.03125 411.366210938 402.212890625 463 c 0
 392.09375 500.810546875 364.265625 537.454101562 314.623046875 538 c 0
 251.837890625 538.690429688 200.553710938 481 188.225585938 435 c 1
 165.330078125 437 122.814453125 460.893554688 126.103515625 509 c 0
 129.525390625 560.00390625 176.247070312 602 258.977539062 602 c 0
 413.30859375 602 478.75 493 467.927734375 353 c 1
 449.984375 335 l 1
430.399414062 -344 m 5
 452.799804688 -171.622070312 498.556640625 131.568359375 502.918945312 391 c 1
 502.90234375 467 491.93359375 563 564.977539062 602 c 1
 633.431640625 545.336914062 706.287109375 506.763671875 702.915039062 410 c 0
 700.375 337.118164062 633.892578125 276 533.47265625 268 c 1
 509.569335938 308 l 1
 568.09375 318 634.43359375 365.870117188 638.543945312 422 c 0
 642.059570312 470 605.3125 513 578.833007812 542 c 1
 565.098632812 528 560.549804688 473.9453125 558.701171875 425 c 2
 520.399414062 -344 l 5
 430.399414062 -344 l 5
EndSplineSet
Colour: ffff00
EndChar

StartChar: si_Ii
Encoding: 8 3466 15
GlifName: si_I_i
Width: 695
VWidth: -5
Flags: HMW
LayerCount: 2
Back
SplineSet
527 611 m 0xb0
 527 642 552 667 583 667 c 0
 614 667 639 642 639 611 c 0
 639 580 614 555 583 555 c 0
 552 555 527 580 527 611 c 0xb0
215 701 m 4
 215 733 241 759 273 759 c 4
 305 759 331 733 331 701 c 4
 331 669 305 643 273 643 c 4x70
 241 643 215 669 215 701 c 4
EndSplineSet
Refer: 4 3515 N 1 0 0 1 0 0 2
Fore
SplineSet
602.1171875 651 m 0
 605.7421875 682 634.052734375 707 665.052734375 707 c 0
 696.052734375 707 717.7421875 682 714.1171875 651 c 0
 710.493164062 620 682.182617188 595 651.182617188 595 c 0
 620.182617188 595 598.493164062 620 602.1171875 651 c 0
241.881835938 761 m 0
 245.559570312 793 274.921875 819 306.921875 819 c 0
 338.921875 819 361.559570312 793 357.881835938 761 c 0
 354.205078125 729 324.842773438 703 292.842773438 703 c 0
 260.842773438 703 238.205078125 729 241.881835938 761 c 0
EndSplineSet
Refer: 4 3515 S 1 0 0.0524078 1 0 0 2
Colour: ffff00
EndChar

StartChar: si_U
Encoding: 9 3467 16
GlifName: si_U_
Width: 691
Flags: HMW
LayerCount: 2
Back
SplineSet
153 82 m 0
 134.201906315 -47.7994601107 198.972526228 -212.974609023 382 -236.380859375 c 0
 516.911576709 -252.204891615 598.588777731 -209.567542192 672 -151 c 1
 706 -208 l 1
 656.222222222 -243.865923717 549.874452006 -301.940847466 398 -296.19140625 c 0
 120.45118203 -285.48990852 25.9167733352 -102.742418168 37 34 c 4
 59.611328125 311.194438579 311.991484908 369.895574109 467 371 c 0
 529.002929688 371.436523438 565 367.727539062 594 365 c 1
 594 370 569.833007812 346 569 351 c 1
 581.571289062 478 452.213867188 499 374 481 c 1
 318 402 l 1
 272 405 250.087119932 445.53313978 261 481 c 0
 277 533 338 561 421 561 c 0
 503.286132812 561 597.034094894 506.79393118 611 423 c 0
 620.095703125 368.426757812 608 318 608 318 c 1
 608 316 l 1
 392.633333333 336.892578125 186.468603666 299.200396191 153 82 c 0
EndSplineSet
Fore
SplineSet
35.3349609375 90 m 24
 43.892578125 272 218.501657746 432.058884038 431.6484375 444 c 0
 474.723056316 446.413168141 502.543945312 442 521.38671875 439 c 1
 526.317382812 514 483.030273438 586.216796875 407.828125 581 c 0
 336.374023438 576.04296875 311.526367188 518 298.330078125 457 c 1
 266.015625 451 221.854492188 467 223.317382812 514 c 0
 224.619140625 577 285.125 619.149414062 362.239257812 627 c 0
 540.98046875 645.196289062 613.112304688 491 587.084960938 376 c 1
 568.6171875 348 l 1
 568.6171875 348 l 2
 568.6171875 348 l 1
 535.879882812 353 471.088867188 357 443.088867188 357 c 0
 253.088867188 357 100.978515625 245.997070312 91.4921875 107 c 0
 82.9599609375 -18 185.25957851 -87.0399304992 342.647460938 -109 c 4
 450.1875 -124.004882812 579.302734375 -94.9423828125 627.163085938 -61 c 1
 638.732421875 -66.326171875 646.353515625 -89.7607421875 644.595703125 -110 c 1
 612.758789062 -144.9140625 538.135742188 -221 380.778320312 -221 c 0
 148.579101562 -221 26.134765625 -105 35.3349609375 90 c 24
EndSplineSet
EndChar

StartChar: si_E
Encoding: 15 3473 18
GlifName: si_E_
Width: 883
Flags: HMW
LayerCount: 2
Back
SplineSet
336.81640625 669.124023438 m 1xde
 427 678 l 1
 425.842773438 653.400539719 448.363491842 575.996956623 488 559 c 0
 564.103515625 526.365234375 597.166015625 606.057617188 654 558 c 1
 683 526 l 1
 614.135742188 554.92578125 559.416287215 470.925470977 457 505.301757812 c 0
 376.956054688 532.168711285 380.421875 669.104915298 336.81640625 669.124023438 c 1xde
30 317 m 5
 419 316 l 5
 414 275 l 5
 113 270 l 5
 29 252 l 5
 30 317 l 5
415.504882812 661.212890625 m 0
 365.150223695 668.377572949 331.440007734 662.285715331 315 661 c 1
 316 741 l 1xee
 647.914375659 740.212890625 800 516.80859375 800 311 c 0
 800 91.0390625 671.749908359 -56.3568812077 449 -61 c 0
 229.623230244 -65.5728072786 126.234562254 17.8004014046 123 121 c 0
 118.597068797 261.476731369 262.522058823 302.262309365 376 306 c 1
 376 394 334.691729323 438 242 438 c 1
 216 357 l 1
 169.636363636 350 138.268483167 378.897251479 146 425 c 0
 155.391304348 481 209.860869565 500 254 500 c 0
 320 500 417.480828685 462.978771411 422 359 c 0
 423.383789062 327.161267511 414 282 414 282 c 1
 286.25 299.455610795 195.404368225 246.993333829 196 162 c 0
 196.519135843 86.054701937 304.648122074 38.9859262278 443 40 c 0
 628.478107244 41.3391927084 738 144.647971633 738 346 c 0
 738 538.33781221 549.268901917 642.180357787 415.504882812 661.212890625 c 0
EndSplineSet
Fore
SplineSet
133.428710938 148 m 4
 133.427594699 298.999999999 309.46484375 357 418.427734375 357 c 4
 427.427734375 357 440.427734375 357 448.427734375 356 c 5
 447.427734375 422 401.428710938 463 352.428710938 463 c 4
 290.428710938 463 268.427734375 406 268.427734375 395 c 5
 217.427734375 389 189.427734375 414 189.427734375 449 c 4
 189.427734375 505 243.427734375 538 301.427734375 538 c 4
 437.427734375 538 499.427734375 425 499.427734375 333 c 4
 499.427734375 320 498.427734375 308 496.427734375 296 c 5
 476.427734375 280 l 5
 451.427734375 284 424.427734375 286 398.427734375 286 c 4
 290.19921875 286 181.427734375 242 181.427734375 168 c 4
 181.427734375 106 278.557262073 59 441.427734375 59 c 4
 647.841397372 59 753.427734375 226.57840617 753.427734375 438 c 4
 753.427734375 622.418772563 566.070527129 735 379.427734375 735 c 4
 413.427734375 818 l 4
 622.411257625 818 822.426629068 638.769975784 822.427734375 380 c 4
 822.428673759 145.568445476 677.982958089 -41 443.427734375 -41 c 4
 249.882928327 -41 133.42955366 33.9999999987 133.428710938 148 c 4
373.245117188 797 m 5
 413.345703125 818 l 5
 417.729492188 782.666992188 413.164805938 710.893377015 447.379882812 666 c 4
 512.530273438 580.516601562 675.916992188 590.616210938 740.864257812 618 c 5
 752.44921875 591 l 5
 688.086914062 536.166992188 452.225312399 502.748888184 391.283203125 626 c 4
 363.940429688 681.298828125 370.880859375 766.373046875 373.245117188 797 c 5
43.33984375 247 m 5
 58.794921875 332 l 5
 140.833095544 347.826171875 341.438311784 359.130859375 456 358 c 5
 399.213867188 343 l 5
 238.641045731 333.73828125 103.79449978 270.9609375 55.8154296875 237 c 5
 43.33984375 247 l 5
EndSplineSet
Colour: ffff00
EndChar

StartChar: si_Os
Encoding: 18 3476 21
GlifName: si_O_s
Width: 818
Flags: HMW
LayerCount: 2
Back
SplineSet
539 -40 m 1xbbf0
 434 -40 390 27 375 131 c 1
 373 128 412 134 410 131 c 1
 393.096236766 30 350.368372182 -37.1982421875 237 -39 c 1
 60.6 -39 28.5610844767 115.777602197 27 196 c 0
 24.5031197567 333.395201123 99.5095736885 439.720590168 186 442 c 0xdbf0
 233.299804688 443.30859375 267.819335938 406.991210938 267.819335938 336 c 0
 267.819335938 243.576171875 312.777545532 225.267366929 381 224 c 0
 467.734444754 222.388736264 496.947175837 264.54736198 499 316 c 0
 500.790272588 360.871961805 480.006588764 431.521282459 401 432 c 0
 364.743212891 432.24859375 344.323604041 409.653417249 344 389 c 0
 343.645664062 369.029296875 354.435150052 342.292190268 391 342.561523438 c 0
 439.637695312 342.920043945 451.7578125 394.288970947 420 431.561523438 c 1
 462 430.561523438 l 1
 490.539422286 381.112720677 459.906112514 293.62788779 380 295 c 0
 342.763004955 295.744362993 304.899280322 320.27504678 304 367.856445312 c 0
 303.232680203 405.485062239 328 466 406 466 c 0xd7f0
 488.267578125 466 537.463319731 405.053884241 538 320 c 0
 538.395507812 257.319335938 499.317105711 176.136715956 380 177 c 0
 272.291015625 177.779296875 221 229.416992188 221 304 c 0
 221 348 213.053712691 393.716706242 176 393 c 0
 114.011610243 391.960477941 87.5518015862 292.796073739 91 219 c 0
 95.7634662829 110.005145734 157.148062423 60.3882137459 240 57 c 0
 306.52173913 53.8026315789 372.065217391 85.019646895 375 219 c 1
 403 220 l 1
 405.979166667 95.5458661005 481.315558839 54.34769911 546 56 c 0
 669.265683378 59.0715343602 697.240070303 208.942564204 702 304 c 0
 712.814970353 491.489726732 625.405966155 675.986566065 379 679 c 0
 234.40475591 680.790508156 146.277777778 597 143 597 c 1
 108 647 l 0
 108 647 218.187536916 733.598117483 371 733 c 0
 646.039548023 731.950124688 777.99128632 519.118245551 775 312 c 0
 773.165724298 178.163248689 732.611650485 -40 539 -40 c 1xbbf0
EndSplineSet
Fore
SplineSet
30.9443359375 266 m 0
 39.5147067159 404.714087204 134.549445038 508.327090539 213.204101562 520 c 1
 227.155273438 500 l 1
 217.629882811 375.485351562 265.045892599 307.101261659 369.09375 308 c 0
 480.681640625 308.963867188 519.765383235 397.376900444 521.168945312 443 c 0
 522.477539063 485.536132812 479.980470994 527.75761288 412.5703125 527 c 0
 359.56640625 526.404296875 328.338341472 503.476538872 326.845703125 475 c 0
 325.71875 453.5 340.248002282 440.712755795 366.591796875 432 c 0
 402.015625 420.284179688 471.234375 433.46484375 516.893554688 495 c 1
 534.68359375 491 l 1
 511.975585938 394.807617188 436.20703125 369 398.290039062 369 c 0
 321.141601562 369 290.960027355 419.95512582 293.897460938 476 c 0
 296.684570312 529.176757812 346.029296875 593 422.029296875 593 c 0
 489.82421875 593 564.738027027 538.88872311 571.326171875 446 c 0
 578.666992188 342.499023438 515.404299898 236.05904672 374.372070312 237 c 0
 243.810546875 237.87109375 185.816406249 363.211914062 192.116210938 442 c 1
 157.531506679 438.178559298 87.7612230555 393.021914231 81.6787109375 280 c 0
 75.5994431804 170.025328948 138.305954893 89.0025122291 243.720703125 88 c 0
 339.333984375 87.1435546875 385.0234375 134.484375 402.95703125 207 c 1
 428.271484375 213 l 1
 416.339529216 142.34375 472.644965638 94 556.03515625 94 c 0
 667.959922366 94 736.813084134 239.182805867 738.547851562 373 c 0
 741.718236825 599.36858006 553.321118663 721.793830801 368.895507812 709 c 0
 245.12590274 700.640106279 184.090228953 656.364726012 152.016601562 633 c 1
 139.065429688 643 l 0
 140.490234375 674.040222885 149.153320312 710.253630515 160.51953125 740 c 1
 207.962240876 765.287804236 289.976972504 793.865546686 379.245117188 797 c 0
 657.429710313 807 807.848128273 581.849555067 799.975585938 353 c 0
 793.823720158 163.759439247 709.903892171 -20 560.060546875 -20 c 0
 453.835608556 -20 403.396216382 45 404.297851562 99 c 1
 403.228515626 97.4443359375 416.49609375 102.541992188 415.40234375 101 c 1
 390.678710938 50.9951171875 361.220703125 -18 236.166015625 -18 c 0
 78.4824427636 -18 22.8878579504 136.362287371 30.9443359375 266 c 0
EndSplineSet
EndChar

StartChar: si_Kha
Encoding: 22 3483 24
GlifName: si_K_ha
Width: 848
Flags: HMWO
LayerCount: 2
Back
SplineSet
275.736328125 334.590820312 m 0
 207.381835222 324.226228058 126.664703527 268.400506065 116 163 c 0
 105.682058146 61.0265799071 141.392465925 -8.16066226344 223 -8.2998046875 c 0
 264.238535109 -8.3701171875 283.265396693 24.8983315225 283.409179688 51.7451171875 c 0
 283.588867188 85.2958984375 263.164059928 111.356644344 230.8828125 110.939453125 c 0
 205.266601562 110.608398438 181.614612844 89.8516679477 182.977539062 50.763671875 c 0
 183.839912926 26.03125 200.476396582 -6.9013671875 241.888671875 -12.09375 c 0
 234.706054688 -23.3828125 l 0
 167.255115122 -21.3203125 141.325292334 15.4651987976 140.389648438 53.98828125 c 0
 139.001257764 111.152217945 178.128818539 167.074593396 241.249023438 169.60546875 c 0
 299.694209519 171.948893985 345.76615991 129.020285934 345.776367188 61.1171875 c 0
 345.784244374 8.71484375 306.063253785 -59.7658427393 224 -58.787109375 c 0
 106.223898192 -57.3824441316 61.896784615 57.9056093142 61.5234375 149.9375 c 0
 60.81640625 324.224162748 182.234830079 431.799907501 316.396484375 434.801757812 c 0
 420.31640625 437.126953125 533.740234375 372.130859375 526.779296875 234 c 1
 514.501953125 220 l 1
 487.4140625 212.859375 448.186299537 169.589865393 448.287109375 128 c 0
 448.428170155 69.8043021133 502.307204107 45.1263451332 568 51.73046875 c 0
 671.002922083 62.0436984734 732.707870738 178.150771759 725.416015625 339 c 0
 715.695837344 552.312033205 613.163082657 667.274459809 386 672.860351562 c 0
 265.927724458 675.802187471 170.387196633 609 170 609 c 2
 139 665 l 1
 139 665 244.290997216 738.885146054 394 736.09375 c 0
 620.056385242 732.014325509 791.480630741 580.630141826 796.62890625 333 c 0
 801.176619521 114.256694096 724.288504485 -51.9986914946 555 -52 c 0
 428.656767648 -52.0009583657 388.565480011 29.4714919299 388.739257812 106 c 0
 388.90234375 177.820010537 435.810546875 249.176430151 488 261 c 1
 488.30078125 264.1328125 484.762695312 233.118164062 485.032226562 236 c 1
 420.567382812 331.591907444 341.564453125 344.572339384 275.736328125 334.590820312 c 0
EndSplineSet
Fore
SplineSet
100.009765625 211 m 0
 103.349711846 351.13117451 200.793985315 417.364644828 303.7578125 417 c 0
 407.506046536 416.632577207 436.536531766 329.067892262 438 260 c 0
 440.038109738 163.812094744 399.917349266 59.6147001657 352 -22 c 1
 399 -30 l 1
 430.331914635 22.6429770896 442.142578125 31.75 450 64 c 1
 407 34 l 1
 432.082809601 12.3896511875 464.590911488 -12.1581228071 540.323242188 -12 c 0
 699.758021807 -11.6671134419 788.701171875 149.408203125 797.556640625 355 c 0
 809.17536193 624.744477449 623.938476562 778 410.724609375 778 c 0
 318.724609375 778 248.467773438 754 204 726 c 1
 185.140625 696.40234375 171.546875 635.165039062 183.811523438 627 c 0
 185.465928573 625.898600101 272.818359375 688 399.008789062 688 c 0
 614.735351562 688 742.913085938 576.689453125 737.447265625 372 c 0
 734.192542254 251.823628252 671.061523438 84.498046875 535.40234375 84 c 0
 471.950195312 83.580078125 463.830078125 115.825195312 453 122 c 1
 465.013671875 92 l 0
 488.14453125 125.418945312 521.132722139 216.217391304 525 287 c 0
 530.283788912 383.708945267 481.462890625 494.250976562 325.260742188 492 c 0
 176.143409448 489.851120331 66.76171875 378 55.43359375 200 c 0
 48.4331890475 90.0019167297 87.0087890625 -18 215.008789062 -18 c 0
 291.008789062 -18 334.4375 35.15234375 340.455078125 105 c 0
 345.27988852 161.002878719 312.829101562 206.7265625 262.799804688 207 c 0
 177.373046875 207.466796875 135.739257812 118.241210938 168.676757812 52 c 1
 167 9 l 1
 163.615234375 9.5126953125 243.66015625 -2 213 29 c 1
 194.344726562 36.1689453125 200.802734375 78.1044921875 202.6640625 99 c 0
 205.381835938 129.504882812 226.546875 154 252.546875 154 c 0
 276.546875 154 300.91796875 142 298.188476562 109 c 4
 295.955078125 81.994140625 269.052734375 54.90234375 219.043945312 53 c 0
 185.864711106 51.7378556849 97.0639646062 87.4056277342 100.009765625 211 c 0
EndSplineSet
EndChar

StartChar: si_Ga
Encoding: 23 3484 25
GlifName: si_G_a
Width: 970
Flags: HMW
LayerCount: 2
Back
SplineSet
682.759765625 15.6123046875 m 4
 789.694335938 27.6982421875 844.623046875 96.9677734375 844.623046875 219.600585938 c 4
 844.623046875 341.538085938 777.1328125 439.272460938 641.9375 437.533203125 c 4
 548.677734375 436.399414062 462.352539062 377.801757812 436.877929688 264.823242188 c 5
 386.610351562 248.01171875 l 5
 401.196289062 440.625976562 516.974609375 535.514648438 640.6796875 542.603515625 c 4
 818.7421875 552.603515625 908.870117188 411.889648438 908.870117188 267.375 c 4
 908.870117188 101.1640625 831.431640625 -54.5166015625 652.411132812 -55.814453125 c 4
 602.002929688 -56.1796875 566.490234375 -45.9150390625 548.682617188 -36.138671875 c 5
 567.452148438 38.328125 l 5
 588.120117188 22.771484375 640.903320312 10.5341796875 682.759765625 15.6123046875 c 4
102.974609375 245.841796875 m 4
 102.147460938 150.483398438 163.654296875 56.111328125 313 50.5908203125 c 4
 398.575195312 47.0771484375 483.88671875 79.8349609375 486 150 c 4
 487.185546875 200.606445312 453.31640625 247 387 247 c 5
 428 281 l 5
 470 279.932617188 539.65234375 240.7421875 540 152 c 4
 540.506835938 44.1220703125 466.59375 -57.0576171875 301.598632812 -55.0048828125 c 4
 143.704101562 -53.0400390625 41.9951171875 61.9140625 41.9951171875 221.564453125 c 4
 41.9951171875 428.865234375 190.2890625 526 325 538 c 4
 332.879882812 461.879882812 l 4
 237.916015625 461.879882812 104.434570312 422.454101562 102.974609375 245.841796875 c 4
EndSplineSet
Fore
SplineSet
379.852539062 221 m 1
 387.098632812 431.051757812 502.318359375 588.375976562 684.0859375 590 c 0
 828.813476562 591.29296875 934.3203125 481.8515625 932.8359375 320 c 0
 931.265625 148.690429688 837.397460938 -7 651.065429688 -10 c 1
 615.221679688 15.291015625 592.610351562 63.658203125 593.830078125 87 c 0
 593.934570312 89 606.14453125 93 606.249023438 95 c 1
 752.686523438 56.603515625 874.27734375 148.95703125 873.739257812 294 c 0
 873.274414062 419.159179688 742.473632812 475 652.583984375 475 c 0
 493.4921875 475 416.94140625 376.358398438 426.852539062 221 c 1
 410.234375 219 394.938476562 218 379.852539062 221 c 1
64.0009765625 253 m 0
 74.6845703125 457 256.966796875 579 377.0859375 581 c 5
 383.090820312 557.989257812 372.840820312 482.900390625 366.369140625 472 c 5
 247.225585938 472 130.763987945 430.718556437 114.896484375 283 c 0
 104.228515625 183.686523438 182.377929688 103.3125 310.568359375 102 c 0
 401.3046875 101.071289062 518.80859375 131.217773438 525.799804688 213 c 0
 531.934570312 284.772460938 456.758789062 321.86328125 421.412109375 323 c 1
 432.290039062 375 l 1
 520.248046875 375.9375 580.68359375 304.072265625 576.852539062 214 c 0
 572.561523438 99.984375 476.430664062 -9 328.484375 -12 c 0
 137.065429688 -15.8818359375 55.876953125 97.8740234375 64.0009765625 253 c 0
EndSplineSet
EndChar

StartChar: si_Nnga
Encoding: 26 3487 26
GlifName: si_N_nga
Width: 1103
Flags: HMW
LayerCount: 2
Back
SplineSet
441 474 m 25x9e
 291 490 l 17
 156 448 95.365234375 383.963867188 90 238 c 0
 87.2509765625 163.2109375 130.008789062 56.189453125 178 18.7021484375 c 0
 137 -30.3115234375 l 0
 69.341796875 20.875 22 137.236328125 28 245 c 0
 41.0634765625 479.63671875 251 599 440 539 c 1
 441 474 l 25x9e
EndSplineSet
Refer: 25 3484 N 1 0 0 1 104 0 2
Fore
SplineSet
76.3203125 216 m 4
 95.3544921875 433.3046875 307.221679688 562 461.453125 562 c 0
 490.571289062 562 508.11328125 560 536.138671875 556 c 1
 536.0859375 555 l 1
 402.623046875 508 l 1
 395.623046875 508 l 1
 273.750976562 496.71484375 160.567382812 393.293945312 139.94921875 228 c 4
 130.494140625 140.42578125 150.583007812 21.068359375 187.899414062 -21 c 1
 181.66796875 -25.408203125 168.447265625 -29.6328125 144.427734375 -30 c 1
 100.559570312 16.125 67.892578125 117.973632812 76.3203125 216 c 4
EndSplineSet
Refer: 25 3484 N 1 0 0.0524078 1 140 0 2
Colour: ffff00
EndChar

StartChar: si_Cha
Encoding: 28 3489 27
GlifName: si_C_ha
Width: 785
Flags: HMW
LayerCount: 2
Back
SplineSet
592 219 m 0xfe
 511.918945312 219.434570312 488.201116911 292.763424947 486.741210938 352 c 4
 481.936523438 546.953125 622.448767968 725.752779993 781 771 c 1
 808 688 l 17
 633.265625 660.305664062 549.120117188 507.9765625 537.295898438 414 c 0
 525.741210938 322.166992188 542.079101562 263.030273438 595 264 c 0
 639.142578125 264.80859375 660.87890625 295.380859375 661 367 c 0
 661.078125 413 628 494 549 494 c 0
 502 494 465 462 465 419 c 0
 465 367 490 352 490 352 c 1
 442 333 l 1
 434 358 427 384 427 426 c 0
 428 512 510 553 571 553 c 0
 654 553 725 477 725 397 c 0
 725 266.061523438 656.436523438 218.650390625 592 219 c 0xfe
119 209 m 0
 118 124 203 45 388 45 c 0
 563 45 663.451154009 127.008854445 665 216 c 0
 666.775330903 318.004157759 539 348 442 333 c 1
 462 373 l 1
 607 402 740 331 736 193 c 0xfd
 731 29 564 -59 383 -59 c 0
 189 -59 38 33 40 180 c 0
 42 339 208 394 316 384 c 1
 292 345 l 1
 299 365 312.3731417 386.33162663 308 415 c 0
 299 474 239 505 171 490 c 0
 204 511 l 1
 149 409 l 1
 108 411 81.6005478023 436.013695057 83 471 c 0
 85 521 142 557 202 557 c 0
 272 557 344 517 346 439 c 0
 347 402 341 370 332 333 c 1
 208 351 120 287 119 209 c 0
EndSplineSet
Fore
SplineSet
516.596679688 393 m 25
 516.596679688 393 515.846679688 530.130859375 565.069335938 631 c 0
 644.611328125 794 841.018554688 859 841.018554688 859 c 17
 852.676757812 844.034179688 836.920898438 782.6484375 823.881835938 761 c 9
 823.881835938 761 680.890625 723 610.549804688 602 c 0
 554.216796875 505.09765625 563.439453125 390 563.439453125 390 c 25
 516.596679688 393 l 25
EndSplineSet
Refer: 1 3508 N 1 0 0.0524078 1 -10 0 2
EndChar

StartChar: si_Ja
Encoding: 29 3490 28
GlifName: si_J_a
Width: 787
Flags: HMW
LayerCount: 2
Back
SplineSet
637 458 m 9xf8
 688 479 l 25
 688 479 689.344726562 453.623046875 690 432 c 0
 691 399 681.14316462 345.14565047 612 346 c 0
 529.8046875 347.015625 511.294642069 411.631971212 510.409179688 474 c 0
 508.469726562 610.606445312 612.135742188 725.743164062 761 771 c 1
 784 684 l 21
 669.265625 682.305664062 545.011365245 606.846052658 555.295898438 461 c 0
 558.677497152 413.045191066 581.100585938 386.447265625 614 385 c 4
 662.357421875 382.873046875 648.147857261 447.357724458 637 458 c 9xf8
497 352 m 1
 442 333 l 1
 434 358 427 384 427 426 c 0
 428 512 510 553 571 553 c 0
 654 553 715 507 715 427 c 0
 715 349 618 309 618 309 c 1
 602 326 l 1
 636.051288152 347.130311028 650.883587155 377.105818001 651 417 c 0
 651.13422914 462.999749757 608 494 549 494 c 0
 502 494 469 452 469 409 c 0
 469 357 497 352 497 352 c 1
119 209 m 0
 118 124 203 45 388 45 c 0
 563 45 663.451154009 127.008854445 665 216 c 0
 666.775330903 318.004157759 539 348 442 333 c 1
 462 373 l 1
 607 402 740 331 736 193 c 0xf4
 731 29 564 -59 383 -59 c 0
 189 -59 38 33 40 180 c 0
 42 339 208 394 316 384 c 1
 287 345 l 1
 294 365 307.373046875 386.33203125 303 415 c 0
 294 474 239 505 171 490 c 0
 204 511 l 1
 149 409 l 1
 108 411 81.6005478023 436.013695057 83 471 c 0
 85 521 142 557 202 557 c 0
 272 557 344 517 346 439 c 0
 347 402 341 370 332 333 c 1
 208 351 120 287 119 209 c 0
EndSplineSet
Fore
SplineSet
580.596679688 393 m 25
 580.596679688 393 590.897460938 511.426757812 636.069335938 614 c 0
 716.66015625 797 817.686523438 917 817.686523438 917 c 17
 837.115234375 912.061523438 886.80078125 878.366210938 872.55078125 851 c 13
 872.55078125 851 746.08203125 729 667.549804688 568 c 0
 616.547851562 468.395507812 613.439453125 369 613.439453125 369 c 25
 580.596679688 393 l 25
EndSplineSet
Refer: 1 3508 N 1 0 0.0524078 1 0 0 2
Colour: ffff00
EndChar

StartChar: si_Dda
Encoding: 36 3497 29
GlifName: si_D_da
Width: 904
Flags: HMW
LayerCount: 2
Back
SplineSet
182.7890625 617.07421875 m 1
 151.092773438 677.413085938 l 1
 213.742146034 708.273373392 300.795694322 736.526279832 407.442382812 736 c 0
 666.066806821 734.807105655 824.011550953 569.886773006 825.442382812 312 c 0
 826.218000843 149.983398438 771.278805969 -37.6119217922 606 -41 c 0
 534.673885055 -42.470703125 477.653259367 -12.5888671875 457.442382812 51 c 1
 433.345633629 -17 361.035964911 -41.2595697902 300 -41 c 0
 202.909179688 -40.5693359375 113.434872152 9.87236579321 111.442382812 128 c 0
 109.146944111 264.088428637 241.437663144 341.288024422 348.442382812 342 c 0
 412.352495172 342.461538462 427.442382812 339 427.442382812 339 c 1
 437.442382812 313 l 1
 414.122795183 325 380.033947874 307.885306092 350.442382812 310 c 0
 259.503558661 316.317738614 183.01505552 245.279416021 182.442382812 167 c 4
 182.021394909 106.674237477 224.634868025 61.2450768942 303 61 c 0
 374.256037929 60.7548828125 436.442382812 101.124023438 436.442382812 195 c 1
 443.446289062 195.030273438 468.297851562 195.259765625 475 195.6796875 c 1
 475 98.375 540.157859231 59.2183612945 616 61 c 0
 701.006593559 63.07551542 763.506846543 162.636115313 759.442382812 338 c 0
 753.860609073 539.378806602 647.08391055 686.296056147 384.442382812 679 c 0
 294.152055003 676.27367156 224.183070698 642.521980831 182.7890625 617.07421875 c 1
32 348 m 1
 443 353 l 1
 438 303 l 1
 135 300 l 1
 31 285 l 1
 32 348 l 1
405 325 m 1
 422.684570312 412.088867188 366.3515625 468.735351562 269 460 c 1
 219 378 l 1
 189 381 165 398 165 435 c 0
 165 502 237 527 290 527 c 0
 370 527 445.656117918 477.983391686 450 393 c 0
 452.56640625 342.791015625 446 324.083007812 439 302 c 1
 405 325 l 1
EndSplineSet
Fore
SplineSet
52.33984375 277 m 5
 67.794921875 362 l 5
 149.833007812 377.826171875 350.438476562 389.130859375 465 388 c 5
 408.213867188 373 l 5
 247.640625 363.73828125 112.794921875 300.9609375 64.8154296875 267 c 5
 52.33984375 277 l 5
118.336914062 149 m 4
 126.250976562 300 287.4765625 369.987304688 382.547851562 379 c 4
 391.551757812 379.853515625 405.547851562 389 413.49609375 388 c 5
 415.955078125 474 359.260742188 498 310.260742188 498 c 4
 254.260742188 498 225.2734375 431 224.697265625 420 c 5
 183.3828125 424 165.293945312 445.0234375 167.526367188 480 c 4
 170.461914062 526 226.19140625 563 284.19140625 563 c 4
 420.19140625 563 480.79296875 453 475.971679688 361 c 4
 475.290039062 348 473.661132812 336 471.032226562 324 c 5
 450.194335938 308 l 5
 416.583007812 323 379.841796875 328 339.508789062 324 c 4
 269.4765625 317.0546875 183.775390625 260.8515625 178.8046875 176 c 4
 175.487304688 119.364257812 219.8125 83.890625 302.76953125 83 c 4
 393.688476562 82.0234375 438.291015625 133 461.477539062 211 c 5
 486.791992188 217 l 5
 476.315429688 135.0625 516.37890625 81.0009765625 591.559570312 82 c 4
 726.6484375 83.794921875 788.025390625 252.107421875 787.547851562 373 c 4
 786.700195312 587.75 635.552734375 696 474.790039062 696 c 4
 319.790039062 696 229.436523438 626 227.436523438 626 c 5
 224.59375 629 223.959960938 636 224.484375 646 c 4
 225.584960938 667 242.209960938 705 263.415039062 728 c 5
 307.830078125 759 392.139648438 780 485.139648438 780 c 4
 715.685546875 780 848.346679688 585.721679688 850.024414062 358 c 4
 851.483398438 160.0078125 770.834960938 -25 598.584960938 -25 c 4
 474.276367188 -25 438.684570312 55.9248046875 449.870117188 119 c 5
 447.903320312 117.444335938 472.98828125 122.541992188 470.974609375 121 c 5
 466.403320312 62.5908203125 400.4921875 -20 284.689453125 -20 c 4
 162.963867188 -20 113.462890625 56 118.336914062 149 c 4
EndSplineSet
Colour: ffff00
EndChar

StartChar: si_Nna
Encoding: 38 3499 30
GlifName: si_N_na
Width: 1253
Flags: HMW
LayerCount: 2
Back
SplineSet
128 113 m 261
 267.335116389 333.910219085 673.785132433 799.07182316 777 899 c 261
 781.36328125 892.275390625 801.72753906 832.517578125 802 811 c 261
 699.030953243 740 331.749598455 327 243 174 c 261
 337.908777573 209.87628866 349.168781155 80.2725501334 507 58 c 260
 704.513326273 30.1276595745 813 167.873482765 813 320 c 260
 813 408.221163897 741.361972241 494 618 494 c 260
 496.036878085 494 420 406.218400187 420 326 c 260
 420 211.775106931 514.880930398 199 543 199 c 4
 646.30322676 199 682 250.882352942 682 304 c 260
 682 333.544117647 660.328086703 353 621 353 c 260
 591.493469238 353 567 319.554054054 567 278 c 260
 567 237 600.142717633 197 636 197 c 261
 636 177 l 261
 585.5 177 522 224.999761627 522 284 c 260
 522 363.8671875 582.660667252 402 638 402 c 260
 696.314652401 402 736 351.344726562 736 296 c 260
 736 219.530952268 687 142 559 142 c 260
 473.128128538 142 356 207.758240582 356 326 c 260
 356 466.583011583 470.609983351 555 601 555 c 260
 754.50798722 555 874 441.479041466 874 273 c 260
 874 160.769312617 804.017792492 -42 598 -42 c 260
 363.273458571 -42 364.855858701 140.091513724 234 143 c 260
 202.338300052 143.703733258 190.612304688 113.230769231 177 100 c 261
 145.188611261 103.151515152 141.634395205 108.666666667 128 113 c 261
869 218 m 5
 861.538994368 218 858.145803052 229.428571429 856 298 c 5
 857.235809326 351.683420489 892.680809175 419.220312843 947 420 c 4
 999.149141197 420.748538684 1027.02511713 372.892561983 1025 325 c 5
 1014 343 l 5
 1031.39185475 441.840610621 1116.61787942 502.053051459 1191 496 c 4
 1279.2333215 488.819768632 1353.04334613 401.982671472 1361 249 c 4
 1368.22458103 110.092901119 1312.00826189 -60 1155 -60 c 4
 1060.57297989 -60 993 14.6792093913 993 95 c 5
 1000.24732848 112 1016.64954876 132 1030 132 c 5
 1038.21719605 80.3186113911 1108.3311899 28 1177 28 c 4
 1283.77905933 28 1308.60516249 128.515593174 1308 215 c 4
 1307.06410256 348.750085347 1223.09472634 416.612629359 1139 405 c 4
 1056.52793155 393.611443249 1035.25 284.518662759 1034 236 c 5
 1021.79349662 230 1010.90287162 235 993 233 c 5
 994.298177086 307.694073578 961.332463247 345.374923603 937 344 c 4
 895.196476596 341.637861385 882.492896941 307.556212542 869 218 c 5
EndSplineSet
Fore
SplineSet
28 97 m 257
 25 102.962890625 18.591888003 120.811887752 25 142 c 0
 32.2342619616 165.919737131 60.5593631629 176.888583097 87 183 c 1
 258.423828125 398.787942989 415.657226562 637.287261352 644.114257812 834 c 257
 655.424481688 828.275390625 693.356355371 807.517578125 692.55078125 766 c 257
 477.662725772 629.513937606 271.488303968 349.132599915 137.642578125 182 c 257
 253.334960938 187.191103179 258.601344785 95.4884707038 441.040039062 91 c 256
 615.770507812 86.701171875 689.236842126 184.327546073 698.72265625 300 c 256
 707.120215349 402.946684077 610.02960338 489 496.889648438 489 c 256
 382.726127691 489 340.662991286 410.417168019 338.98828125 346 c 256
 334.992688598 220.08203125 414.475520794 206 447.953125 206 c 0
 469.211914062 206 500.479084511 221.469756184 502.98828125 256 c 256
 506.329101562 301.974609375 462.486352685 346.031021318 403.057617188 339.6484375 c 0
 378.6796875 337.030273438 353.81640625 336.943359375 311.403320312 293 c 257
 321.49609375 352 l 256
 369.448242188 398.244140625 411.263397844 409.109029758 450.431640625 408.9375 c 0
 539.852539062 408.545898438 588.079416918 348.130700168 584.46484375 279 c 256
 580.692382812 206.849609375 528.760742188 162 448.965820312 162 c 256
 346.219726562 162 281.096909258 242.486153956 286.456054688 334 c 256
 291.518135463 440.308064964 340.536969247 481.55277699 410 515 c 1
 434.078872334 531.946569361 459.126130626 558.038958829 486 561.193359375 c 1
 495.386395726 563.716801607 505.110073854 565 515.0859375 565 c 256
 662.005627264 565 756.190800527 453.417891738 748.307617188 303 c 256
 742.42578125 190.76953125 668.448875435 -9.4091290795 471.798828125 -11 c 256
 235.817973353 -12.9090515603 243.882492657 132.151447597 112.018554688 133 c 256
 84.6264992146 133.176269531 72.6319360231 120.882861328 60.2412109375 114 c 257
 28 97 l 257
740.424804688 248 m 1
 732.963867188 248 730.168945312 259.428710938 731.6171875 328 c 1
 736.164581237 385.643554688 779.953267621 458.203541212 841.01171875 459 c 0
 891.770619943 459.662109375 916.443525453 417.346679688 912.032226562 375 c 1
 901.975585938 393 l 1
 924.749442372 458.920898438 990.364047884 526.473892148 1065.99414062 526 c 0
 1150.03315431 525.473418222 1214.10251236 461.982421031 1214.04980469 299 c 0
 1214.00488281 160.092773438 1127.67379282 -10.0603063982 991.85546875 -30 c 0
 872.116210938 -47.5791015625 782.127929688 13.3154296875 777.978515625 74 c 1
 783.1171875 89 793.567382812 104 806.91796875 110 c 1
 848.814453125 82.3486328125 935.934537685 60.8693352387 978.467773438 68 c 0
 1109.99121094 90.0498046875 1160.37259675 195.086794428 1158.26757812 287 c 0
 1155.9609375 387.716796875 1101.94726562 418.240234375 1050.22558594 415 c 0
 966.715731957 409.768315701 920.161132812 308.776367188 916.368164062 266 c 1
 903.84765625 262 883.21875 262 875.2109375 263 c 1
 881.462890625 337.694335938 844.281264625 375.648177955 815.028320312 374 c 0
 773.100585938 371.637695312 758.611328125 337.556640625 740.424804688 248 c 1
EndSplineSet
Colour: ffff00
EndChar

StartChar: si_Tha
Encoding: 41 3502 31
GlifName: si_T_ha
Width: 791
Flags: HMW
LayerCount: 2
Back
SplineSet
432.442382812 53 m 0
 606.903057197 53.3704637965 698 160.372262774 698 346 c 0
 698 548.711039482 539.286272538 641.901776851 405.504882812 668.212890625 c 0
 359.70476176 677.881634396 356.819335938 669.996182698 315 663 c 1
 316 731 l 1
 641.057046308 730.21331936 760 516.808403201 760 311 c 0
 760 91.0389972145 629.969726562 -56.3818359375 431.442382812 -59 c 0
 238.44921875 -60.677734375 128.573242188 38.0029296875 125.442382812 176 c 0
 122.153320312 320.966796875 244.427734375 394.418945312 355.442382812 398 c 0
 417.442382812 400 457.442382812 379 457.442382812 379 c 1
 443.442382812 334 l 1
 417.442382812 346 383.442382812 352 350.442382812 350 c 0
 280.369140625 345.8515625 207.5546875 302.787109375 206.442382812 218 c 0
 205.442382812 140.005859375 269.440429688 52.2841796875 432.442382812 53 c 0
336.81640625 671.124023438 m 1
 408 680 l 1
 406.842411748 652.9199701 442.176652403 567.054609442 482 549 c 0
 558.103687328 516.365234375 597.165650755 581.057617188 654 533 c 1
 671 500 l 1
 602.136145356 518.925781249 551.493716699 455.291092093 460 485.301757812 c 0
 369.477344724 516.791841306 390.422138226 651.103124612 336.81640625 671.124023438 c 1
EndSplineSet
Fore
SplineSet
293.245117188 837 m 1
 333.345703125 858 l 1
 340.305601912 817.088096217 338.360520236 737.525674329 387.379882812 682 c 4
 448.090487461 603.640218099 600.34293586 612.898193359 660.864257812 638 c 1
 672.44921875 611 l 1
 640.32789918 583.6344702 565.491123955 561.615679037 491.000002814 561.71763358 c 0
 312.542014147 561.961885546 269.07940769 682.889950934 293.245117188 837 c 1
55.6865234375 233 m 0
 64.0009765625 391.640625 238.428710938 509.032226562 377.040039062 505.952148438 c 1
 401.955078125 428 l 1
 393.90625 408 l 1
 267.556640625 424.150390625 121.568620879 359.239241421 113.84375 236 c 0
 107.450195312 134 212.394529693 78.5548270994 341.987304688 80 c 0
 521.333007812 82 687.700616067 207.745398283 686.701171875 395 c 0
 685.674810071 587.297851562 522.868427046 764 317.895507812 764 c 0
 332.720703125 857 l 0
 537.236328125 857 751.941348904 666.060547729 748.024414062 403 c 0
 744.565429688 170.6953125 608.564457638 -11.1719733942 372.484375 -22 c 0
 172.853515625 -31.15625 46.567079499 59.0000670744 55.6865234375 233 c 0
EndSplineSet
EndChar

StartChar: si_Da
Encoding: 42 3503 32
GlifName: si_D_a
Width: 568
Flags: HMW
LayerCount: 2
Back
SplineSet
522.090820312 -389.28125 m 1
 378.530373101 -403.743447527 319.747727744 -298.663764651 316 -231 c 0
 313.306446925 -146.36113579 369.129126603 -34.4345549738 509 16 c 1
 521 18.3333333333 529 -0.333333333333 493 2 c 1
 253.507047455 -90.266304348 38.8990241606 -4.33743479325 41 165 c 0
 42.920134029 319.761689701 205.887780243 393.121276769 397 394 c 0
 456.002656031 394.271290892 499 385 499 385 c 1
 499 387.5 488.35483871 375.5 488 378 c 1
 491.6 475 373 506 318 498 c 1
 262 409 l 1
 216 412 195.556400279 452.11432106 205 488 c 0
 220 545 273 571 336 571 c 0
 408 571 505.999756248 527.999959374 520 444 c 0
 529.095703125 389.426757812 513 345 513 345 c 1
 513 343 l 1
 273.457943925 364.492537313 162.53640311 306.422797877 152 199 c 0
 138.348469327 59.8172442854 303.229691877 -31.3035254506 549 57 c 1
 565 23 l 1
 471.777773007 -18.2758620689 425.560782656 -95.5255334909 414 -148 c 0
 398.929426609 -208.849269955 393.438884232 -324.783592054 545.358398438 -359.80859375 c 1
 522.090820312 -389.28125 l 1
EndSplineSet
Fore
SplineSet
184.15625 -158 m 0
 190.920898438 -48 319.379882812 10 385.899414062 39 c 1
 395.846679688 38 405.318359375 47 415.213867188 45 c 1
 420.109375 43 424.00390625 28 428.899414062 26 c 1
 383.008789062 9 269.108995742 -36.9185209207 263.885742188 -121 c 0
 260.689249525 -170 302.156486386 -229 473.426757812 -179 c 1
 469.591796875 -233.105691057 424.8671875 -284.260162602 395.028320312 -300 c 5
 219.774031543 -317.75 179.442112149 -230.007225619 184.15625 -158 c 0
38.6513671875 196 m 0
 41.6936448746 334 160.586707671 439.50688939 342.6484375 444 c 0
 385.701171875 445 403.543945312 442 422.38671875 439 c 1
 417.317382812 504 391.863281215 564.228525477 326.828125 564 c 0
 275.135742188 563.818359375 222.526367188 528 239.330078125 457 c 1
 175.015625 443 128.770503423 459.999999864 127.317382812 507 c 0
 125.27734375 572.983398438 184.811526193 620.405236922 272.239257812 627 c 0
 430.78125 638.958984375 504.635742188 491 498.609375 376 c 1
 480.141601562 358 l 1
 480.141601562 358 l 2
 480.141601562 358 l 1
 447.403320312 363 382.61328125 367 354.61328125 367 c 0
 177.292938657 367 88.4911422984 279.759269866 88.9052734375 196 c 0
 89.1683203811 132.314032354 151.34609166 89.5143216628 273.572265625 88 c 0
 355.569822929 86.782228711 428.8828125 113.724637681 490.188476562 159 c 1
 500.433055759 146.000001794 l 1
 500.263722471 108.325822398 492.670618227 71.4228309747 483.423828125 49 c 1
 441.427734375 30 376.541015625 -6 281.541015625 -6 c 0
 130.939829381 -6 35.5630394211 80.7155221702 38.6513671875 196 c 0
EndSplineSet
Colour: ff00
EndChar

StartChar: si_Dha
Encoding: 43 3504 33
GlifName: si_D_ha
Width: 894
Flags: HMW
LayerCount: 2
Back
SplineSet
386 284 m 5
 250.503597122 301.379310345 123.466247874 252.459206919 128 158 c 4
 131.068944452 87.7909007353 219.271735546 45.1571471554 365 46 c 4
 558.999747213 47.1220420377 667 174.791108795 667 339 c 4
 667 547.71874417 557.941173041 679.712552472 342 677 c 4
 219.063691057 675.455731327 132.310705627 606 129 606 c 5
 97 660 l 5
 139.236417611 688.125 219.378877917 735.634192064 358 735 c 4
 565.816845959 734.018099283 730 582.319357855 730 331 c 4
 730 111.353515625 598.414766771 -48.5793000132 375 -58 c 4
 192.556677605 -65.2548684968 49.349757601 8.03433236137 46 137 c 4
 42.243902439 299.324324324 239.43902439 339.378378378 354 332 c 5
 354 402 304 438 212 438 c 5
 186 357 l 5
 135 350 100.76031191 378.857746694 109 425 c 4
 119 481 177 500 224 500 c 4
 300 500 389.99945787 462.999979147 394 359 c 4
 395.383789062 323.026367188 386 284 386 284 c 5
EndSplineSet
Fore
SplineSet
245.76953125 95 m 0
 336.689453125 93.12890625 381.291015625 144 404.477539062 222 c 1
 429.791992188 228 l 1
 419.315429688 146.0625 477.377929688 92.0634765625 542.559570312 93 c 0
 686.64453125 95.0703125 747.899414062 282.108398438 748.547851562 403 c 4
 749.700195312 617.75 643.552734375 700 452.790039062 700 c 0
 317.790039062 700 216.436523438 631 214.436523438 631 c 1
 211.59375 634 210.959960938 641 211.484375 651 c 0
 212.584960938 672 229.209960938 706 250.415039062 729 c 1
 294.830078125 756 366.139648438 783 459.139648438 783 c 0
 689.685546875 783 819.346356088 610.721677303 821.024414062 383 c 0
 822.483398438 185.0078125 715.834960938 -24 543.584960938 -24 c 0
 419.276367188 -24 381.684570312 66.9248046875 392.870117188 130 c 1
 390.903320312 128.444335938 415.98828125 123.541992188 413.974609375 122 c 1
 409.403320312 63.5908203125 353.4921875 -19 237.689453125 -19 c 0
 106.291015625 -19 70.234375 75.3095703125 71.4853515625 163 c 0
 74.7802734375 394.0390625 302.7109375 502.830078125 440.374023438 496 c 1
 456.440429688 465.262695312 457.102539062 438.901367188 459.024414062 403 c 1
 376.872070312 419.416015625 135.299804688 361.310546875 127.21484375 203 c 0
 123.768554688 135.520507812 164.565429688 97.4140625 245.76953125 95 c 0
EndSplineSet
EndChar

StartChar: si_Nda
Encoding: 45 3507 34
GlifName: si_N_da
Width: 702
Flags: HMW
LayerCount: 2
Fore
SplineSet
59.634765625 259 m 0
 71.6590386251 478.984282296 260.668636802 628 453.33984375 628 c 0
 495.14256621 628 527.935263876 615 557.8203125 602 c 1
 559.513671875 598 l 1
 525.797402669 586.8 496.234340817 591.430368343 465.251953125 590 c 0
 318.33775914 583.217391304 135.081671335 462.683694163 121.47265625 278 c 0
 107.727983353 91.4753360364 201.104492188 22 201.104492188 22 c 1
 146.48828125 -21 l 1
 97.7947140765 29.1792114695 52.3597767454 123.739789379 59.634765625 259 c 0
EndSplineSet
Refer: 32 3503 N 1 0 0.0524078 1 137 0 2
EndChar

StartChar: si_Pha
Encoding: 47 3509 35
GlifName: si_P_ha
Width: 811
Flags: HMW
LayerCount: 2
Back
SplineSet
336.81640625 671.124023438 m 1
 408 680 l 1
 406.842411748 652.9199701 442.176652403 567.054609442 482 549 c 0
 558.103687328 516.365234375 597.165650755 581.057617188 654 533 c 1
 671 500 l 1
 602.136145356 518.925781249 551.493716699 455.291092093 460 485.301757812 c 0
 369.477344724 516.791841306 390.422138226 651.103124612 336.81640625 671.124023438 c 1
405.504882812 668.212890625 m 0
 359.70476176 677.881634396 356.819335938 669.996182698 315 663 c 1
 316 731 l 1
 641.057046308 730.21331936 760 516.808403201 760 311 c 0
 760 91.0389972145 639.969813788 -50.3820154111 450 -58 c 0
 241.291028787 -65.8599509371 126.364332992 17.8013347216 123 121 c 0
 118.614471687 269.0700682 271.970703125 309.060546875 385 303 c 5
 378 375.333007812 330 419 262 408 c 5
 236 327 l 1
 189.63671875 320 158.509765625 348.857421875 166 395 c 0
 175.391601562 451 229.861328125 470 274 470 c 0
 340 470 419.999023438 443 424 339 c 0
 425.383789062 303.026367188 416 252 416 252 c 1
 288.25 268.000976562 195.34375 233.91015625 196 156 c 4
 196.540039062 85.6572265625 290.048202864 50.9382715874 434 52 c 0
 606.9035995 53.3002457237 698 160.372262774 698 346 c 0
 698 548.711039482 539.286272538 641.901776851 405.504882812 668.212890625 c 0
EndSplineSet
Fore
SplineSet
91.06640625 203 m 4
 98.98046875 354 255.547851562 403 360.547851562 403 c 4
 369.547851562 403 382.547851562 403 390.49609375 402 c 5
 392.955078125 468 348.736328125 502 299.736328125 502 c 4
 237.736328125 502 212.749023438 445 212.172851562 434 c 5
 160.858398438 428 134.168945311 453 136.002929688 488 c 4
 138.9375 544 194.666992188 577 252.666992188 577 c 4
 388.666992188 577 444.745117188 464 439.923828125 372 c 4
 439.2421875 359 437.61328125 347 434.984375 335 c 5
 414.145507812 319 l 5
 389.35546875 323 362.459960938 325 336.459960938 325 c 4
 233.459960938 325 144.150390625 300 140.271484375 226 c 4
 135.974609375 144 232.38671875 87 381.987304688 87 c 4
 621.333007812 87 725.900390625 238 735.701171875 425 c 4
 744.73046875 597.297851562 600.752929688 734 406.895507812 734 c 4
 411.720703125 807 l 4
 616.236328125 807 800.810546876 656.0625 787.024414062 393 c 4
 774.446289062 153 627.860351562 -18 391.484375 -18 c 4
 191.893554688 -18 84.568359375 79 91.06640625 203 c 4
370.625 767 m 5
 411.7734375 808 l 5
 446.157226561 772.666992188 422.10546875 717.806640625 445.331054688 666 c 4
 483.65625 580.516601562 588.475585938 540.616210938 719.291992188 608 c 5
 750.876953125 581 l 5
 689.732421875 526.166992188 465.438476562 472.541015625 408.663085938 596 c 4
 381.319335938 651.298828125 396.688476562 706.373046875 370.625 767 c 5
EndSplineSet
EndChar

StartChar: si_Ba
Encoding: 48 3510 36
GlifName: si_B_a
Width: 848
Flags: HMW
LayerCount: 2
Back
SplineSet
518.849609375 48.986328125 m 4
 622.232421875 83.3623046875 689.341796875 189.591796875 695.22265625 348 c 4
 702.947265625 556.064453125 550.6953125 639.040039062 351.584960938 639.040039062 c 4
 226.989257812 639.040039062 143.92578125 580 141.952148438 580 c 4
 131.401367188 587.749023438 141.803710938 646.360351562 156.536132812 675 c 5
 199.16015625 703.311523438 269.126953125 727.006835938 361.013671875 727.006835938 c 4
 563.500976562 727.006835938 747.381835938 581.2890625 749.663085938 324 c 4
 751.688476562 95.6103515625 676.025390625 -54.0009765625 499.931640625 -59.4921875 c 4
 389.778320312 -62.9267578125 356.350585938 7.5888671875 359.072265625 85.505859375 c 4
 361.594726562 157.729492188 407.6328125 252.04296875 484.565429688 282.615234375 c 5
 465.30078125 314.365234375 384.03125 344.3125 300.508789062 337.40234375 c 4
 194.69921875 328.647460938 126.611328125 289.654296875 114.803710938 188.993164062 c 4
 109.081054688 140.208984375 115.118164062 58.3369140625 149.205078125 41.556640625 c 5
 144.091796875 51.6796875 136.036132812 14.0947265625 131.9921875 26.935546875 c 4
 113.98828125 84.0986328125 148.8203125 161.697265625 229.0859375 161.697265625 c 4
 275.365234375 161.697265625 316.87109375 117.247070312 314.560546875 51.1015625 c 4
 312.744140625 -0.927734375 281.561523438 -58.7978515625 200.681640625 -58.7978515625 c 4
 101.057617188 -58.7978515625 65.9287109375 28.3408203125 62.8095703125 121.451171875 c 4
 57.90234375 267.930664062 156.170898438 424.862304688 343.969726562 434.862304688 c 4
 514.483398438 443.94140625 575.474609375 319.762695312 569.184570312 220 c 5
 561 210 l 5
 481.80859375 198.239257812 415.869140625 156.321289062 406.8671875 101.16015625 c 4
 393.624023438 20.0087890625 491.495117188 39.890625 518.849609375 48.986328125 c 4
201.8203125 1.7373046875 m 5
 241.54296875 2.9658203125 260.951171875 35.5673828125 261.880859375 62.185546875 c 4
 263.036132812 95.2607421875 243.869140625 120.946289062 212.168945312 120.946289062 c 4
 186.655273438 120.946289062 161.754882812 101.223632812 160.454101562 63.958984375 c 4
 159.638671875 40.59375 171.802734375 12.5498046875 201.8203125 1.7373046875 c 5
EndSplineSet
Fore
SplineSet
55.43359375 200 m 0
 66.76171875 378 185.145507812 499.725585938 334.260742188 502 c 0
 471.8828125 504 542.590820312 411 535.250976562 311 c 1
 490.09375 308 433.60546875 270.030273438 425.013671875 192 c 0
 419.2890625 140 453.376953125 103.479492188 535.40234375 104 c 0
 671.05859375 104.905273438 734.208984375 256.146484375 737.447265625 372 c 0
 742.913085938 576.689453125 614.735351562 688 399.008789062 688 c 0
 272.818359375 688 185.465820312 625.8984375 183.811523438 627 c 0
 171.546875 635.165039062 185.140625 696.40234375 204 726 c 1
 248.467773438 754 318.724609375 778 410.724609375 778 c 0
 623.938476562 778 809.069335938 624.749023438 797.556640625 355 c 0
 788.701171875 149.408203125 699.7421875 -9.728515625 540.323242188 -12 c 0
 402.223632812 -13.888671875 362.984375 83.3623046875 368.1796875 157 c 0
 375.955078125 267.190429688 439.841796875 322.286132812 497.508789062 335 c 1
 500.172851562 359.799804688 428.380859375 396.29296875 313.7578125 397 c 0
 205.743164062 397.762695312 103.026367188 337.536132812 100.009765625 211 c 0
 97.806640625 118.565429688 160.62890625 64.3046875 194.939453125 57 c 1
 168.676757812 52 l 1
 135.739257812 118.241210938 170.373046875 207.466796875 255.799804688 207 c 0
 305.829101562 206.7265625 345.279296875 161.002929688 340.455078125 105 c 0
 334.4375 35.15234375 291.008789062 -18 215.008789062 -18 c 0
 87.0087890625 -18 48.4326171875 90.001953125 55.43359375 200 c 0
195.6640625 109 m 0
 193.236328125 81.75 203.979492188 57.8330078125 239.043945312 59 c 0
 269.096679688 60 285.955078125 91.994140625 288.188476562 119 c 0
 290.91796875 152 269.546875 164 245.546875 164 c 0
 219.546875 164 198.381835938 139.504882812 195.6640625 109 c 0
EndSplineSet
Colour: ffff00
EndChar

StartChar: si_Bha
Encoding: 49 3511 37
GlifName: si_B_ha
Width: 993
Flags: HMW
LayerCount: 2
Back
SplineSet
23 373 m 5
 402 372 l 5
 397 331 l 5
 106 326 l 5
 22 308 l 5
 23 373 l 5
EndSplineSet
Refer: 44 3524 S 1 0 0 1 58 0 2
Fore
SplineSet
398.508789062 335 m 5
 289.2109375 364.776367188 146.0625 339.094726562 138.638671875 223 c 4
 132.505859375 131.170898438 215.818359375 95.216796875 317.616210938 89 c 4
 504.096679688 77.611328125 565.723632812 167.889648438 566.529296875 240 c 4
 567.31640625 310.3359375 506.715820312 327.915039062 481.194335938 329 c 5
 517.185546875 367 l 5
 563.556640625 368.048828125 626.477539062 316.172851562 619.271484375 216 c 4
 610.915039062 105.28515625 523.094726562 -10 334.427734375 -10 c 4
 195.03125 -10 87.14453125 83.7998046875 93.8525390625 208 c 4
 101.392578125 347.948242188 213.268554688 409.27734375 350.333984375 408 c 5
 358.431640625 422.516601562 368.567382812 459.408203125 361.099609375 489 c 4
 352.40234375 523.46484375 308.728515625 533.454101562 278.623046875 528 c 4
 222.006835938 517.743164062 201.797851562 455 190.911132812 419 c 5
 148.015625 421 110.448242188 443.893554688 113.736328125 492 c 4
 117.22265625 543.00390625 175.977539062 592 264.977539062 592 c 4
 412.977539062 592 437.3515625 446.489257812 411.2421875 349 c 5
 398.508789062 335 l 5
436.795898438 226 m 5
 460.4140625 418.767578125 564.995117188 581.768554688 734.505859375 583 c 4
 921.142578125 584.4609375 985.803710938 435.481445312 977.779296875 302 c 4
 967.116210938 120.893554688 860.559570312 -19 686.008789062 -18 c 5
 658.311523438 1.27734375 631.994140625 51.8984375 631.249023438 82 c 5
 644.7734375 92 l 5
 666.301757812 83 687.091796875 79 717.091796875 79 c 4
 845.318359375 79 918.290039062 171.004882812 925.997070312 268 c 4
 935.512695313 380.079101562 853.796875 473 702.741210938 473 c 4
 610.90625 473 552.73046875 423.086914062 515.588867188 350 c 4
 493.987304688 310.62109375 488.958984375 264.544921875 488.271484375 216 c 5
 473.1015625 214 450.283203125 218 436.795898438 226 c 5
15.9404296875 286 m 5
 15.591796875 314.37890625 10.3359375 339.915039062 31.9189453125 381 c 5
 110.653320312 395 238.282226562 407 348.229492188 406 c 5
 306.810546875 398 l 5
 150.338867188 389 81.669921875 319 28.9404296875 286 c 5
 15.9404296875 286 l 5
EndSplineSet
EndChar

StartChar: si_Ma
Encoding: 50 3512 38
GlifName: si_M_a
Width: 858
Flags: HMW
LayerCount: 2
Back
SplineSet
524.891601562 359.010742188 m 4
 456.94921875 290.022460938 321.486328125 335.688476562 321.29296875 432 c 4
 321.17578125 490.227539062 366.112304688 554 455.599609375 554 c 4
 523.33984375 554 582.448242188 500.404296875 581.577148438 401.115234375 c 4
 580.694335938 300.477539062 498.490234375 211.73046875 376.015625 208.986328125 c 4
 261.750976562 206.426757812 206.807617188 281.86328125 200.357421875 347.005859375 c 5
 168.408203125 334.094726562 130.31640625 285.344726562 130.407226562 213.059570312 c 4
 130.5703125 123.931640625 220.201171875 80.4755859375 360.849609375 80.986328125 c 4
 567.772460938 81.7490234375 701.379882812 203.502929688 707.22265625 368 c 4
 715.336914062 589.1484375 573.952148438 669.040039062 373.584960938 669.040039062 c 4
 248.989257812 669.040039062 165.54296875 608.83203125 163.952148438 610 c 4
 153.401367188 617.749023438 163.803710938 676.360351562 178.536132812 705 c 5
 221.16015625 733.311523438 291.126953125 757.006835938 383.013671875 757.006835938 c 4
 596.002929688 757.006835938 781.587890625 609.374023438 771.663085938 354 c 4
 763.022460938 125.610351562 634.04296875 -39.4921875 381.931640625 -39.4921875 c 4
 159.048828125 -39.4921875 72.701171875 75.2392578125 72.8330078125 181 c 4
 72.9697265625 311.447265625 153.61328125 421.848632812 268 458 c 5
 283 445 l 5
 248.681640625 289.020507812 318.494140625 252.758789062 364.834960938 252.998046875 c 4
 482.995117188 253.607421875 521.721679688 376.596679688 520.569335938 438.48046875 c 4
 519.911132812 474.965820312 492.274414062 510.469726562 450.817382812 510.001953125 c 4
 416.831054688 509.619140625 395.14453125 479.884765625 398 445 c 4
 401.815429688 398.392578125 466.814453125 376.388671875 522.03125 382.051757812 c 5
 524.891601562 359.010742188 l 4
EndSplineSet
Fore
SplineSet
77.673828125 310 m 0
 84.9404296875 448.647460938 151.442382812 516.897460938 214.469726562 516 c 1
 344.376953125 498.244140625 238.321289062 283.895507812 435.416015625 286 c 0
 511.517578125 286.8125 583.446289062 341.028320312 587.333984375 418 c 0
 591.146484375 493.469726562 541.94140625 539.998046875 468.67578125 539 c 0
 415.666015625 538.27734375 383.811523438 506.971679688 382.426757812 473 c 4
 381.326171875 446 409.32421875 434.826171875 436.225585938 435 c 4
 463.710665992 435.177599893 513.564453125 449.784179688 520.409179688 553 c 1
 538.19921875 549 l 1
 572.735351562 442.823242188 514.849609375 373 434.975585938 373 c 4
 371.37109375 373 334.322265625 417.764648438 336.90234375 467 c 0
 340.168945312 529.32421875 391.893554688 581 472.876953125 581 c 0
 559.185546875 581 641.872070312 511.595703125 635.8671875 390 c 0
 630.904296875 289.532226562 544.563476562 204.31640625 443.170898438 205 c 0
 189.603515625 206.709960938 286.3359375 454.814453125 187.326171875 456 c 1
 160.416015625 441.782226562 138.307617188 410.697265625 134.565429688 337 c 0
 127.590820312 195.495117188 239.444335938 94.041015625 396.458984375 89 c 0
 609.36266927 82.1646453827 743.435546875 235.862304688 752.862304688 407 c 0
 763.323242188 603.559570312 611.958007812 709 422.427734375 709 c 0
 325.100585938 709 248.728515625 666.282226562 222 650 c 1
 212.122070312 654 l 0
 209.2421875 685.084960938 217.99609375 726.9296875 237.047851562 756 c 1
 275.00390625 773.013671875 344.467773438 795 423.934570312 795 c 0
 669.513671875 795 835.034179688 619.26171875 818.028320312 362 c 0
 804.758789062 162.88671875 660.6015625 -20 418.903320312 -20 c 0
 180.677734375 -20 68.8212890625 135.7890625 77.673828125 310 c 0
EndSplineSet
EndChar

StartChar: si_Mba
Encoding: 51 3513 39
GlifName: si_M_ba
Width: 0
Flags: HM
LayerCount: 2
Back
SplineSet
597 -43 m 0xff60
 761.851485149 -41 817.880749716 187.713671898 819 312 c 0
 821.054551587 534.413860369 692.178998331 742.052103559 421 743 c 0
 250.756276646 743.595080815 128 657 128 657 c 0
 163 600 l 1
 166.27734375 600 258.401202386 680.519648197 399 682 c 0
 673.923632715 684.894645633 753.829143728 523.159785502 748 304 c 0
 745.170304818 197.611237256 692.625991829 64.2781202206 599 56 c 0
 536.401869691 50.465267196 492.691975121 77.6491730976 489 124.466796875 c 1
 501.262695312 146.536790725 531 164.547593046 531 206 c 0
 531 242 491.504254388 271.467014931 418 273 c 0
 352.211358432 274.372070312 312.843299123 239.598097303 312 203 c 0xff60
 311.123046875 164.941362289 335.201171875 139.362866282 356 125.828125 c 1
 340.003334389 74.0218143353 303.868193132 53.3975098481 241 54 c 0
 155.410986713 54.8202325381 109.31206938 135.806800311 109 224 c 0
 108.632970801 327.725266016 149.483604132 407.180774664 217 408 c 0
 254.053710938 408.716796875 261 372 261 328 c 0
 261 285.50031031 304.366310436 225.834038474 428 226 c 0
 534.698830726 226.143228765 583.729416607 293.74091511 587 354 c 0
 591.743667368 441.400020205 525.270718149 503 448 503 c 0
 362.710280374 503 330.349131127 438.459651638 331 402.856445312 c 0
 332.15625 339.608364103 375.82141263 312.761478916 416 312 c 0
 500.056640625 310.406928571 518.451171875 406.666173549 492 458.561523438 c 1
 450 463.561523438 l 1
 481.7578125 423.357421875 465.637222213 363.992928269 419 363.561523438 c 0
 384.101856843 363.238707736 370.623148272 390.029294961 371 410 c 0xfee0
 371.453125 434.012695312 393.834825975 463.27065728 432 463 c 0
 514.059258643 462.418057528 538.923665324 395.857075413 536 349 c 0
 534.071958188 318.099609375 507.94894985 271.489735219 418 273 c 0
 349.775390625 274.145507812 307.819335938 297.576171875 307.819335938 350 c 0
 307.819335938 420.991210938 269.293034769 457.533885084 222 456 c 0
 125.485582854 453.467874461 37.7833728699 346.631898067 41 194 c 4
 42.8230803571 99.0185546873 84.5977425573 -40.3914984207 235 -42 c 0
 336.57584059 -43.2231276495 391.121398891 19.1801242236 402 149 c 1
 402.505859375 149.758789062 367.355038303 167.224177936 368 196 c 0
 368.675659226 226.145433074 424.233364173 225.386744585 427 225 c 1
 429.521875 224.618200231 474.328082939 218.845180075 475 196 c 0
 476 162 442.427734375 148.142578125 443 149 c 1
 438 15.7407407407 510.234365621 -44.0526521408 597 -43 c 0xff60
EndSplineSet
EndChar

StartChar: si_Ya
Encoding: 52 3514 40
GlifName: si_Y_a
Width: 915
Flags: HMW
LayerCount: 2
Back
SplineSet
469 366 m 1xfe
 601.233398438 410.743164062 766 353.65625 766 178 c 0
 766 41.892578125 685.30859375 -53 557 -53 c 0
 448.377929688 -53 383.90234375 13 382 108 c 1
 380 105 415 111 413 108 c 1
 406.076171875 27 350.11328125 -51.3505859375 231 -52 c 0
 84.0166015625 -52.837890625 2.7109375 49.0859375 2 178 c 0
 1.2578125 339.895507812 113.061523438 459.76953125 245 464 c 0
 271.005859375 464.833984375 298 463 322 453 c 1
 313 388 l 5
 280.174804688 402.400390625 254.995117188 404.036132812 212 401 c 4
 143.515625 396.028320312 62.4423828125 344.875976562 64 219 c 0
 65.1357421875 124.959960938 129.778320312 62.5048828125 227 61 c 0
 306.499023438 59.796875 374.727539062 93 377 197 c 1
 413 197 l 1
 413 100 483.93359375 56 565 56 c 0
 669.220703125 56 704.889648438 116.850585938 706 188 c 0xfd
 707.196289062 267.428710938 646.7734375 384.211914062 449 321 c 1
 444 349.743164062 441.703125 349.853515625 440 380 c 0
 430.584960938 484.619140625 514.388671875 548.891601562 601 549 c 0
 672.205078125 549.086914062 738 514 738 434 c 0
 738 338 645 312 645 312 c 1
 619 329 l 1
 619 329 670.208984375 342.997070312 671 402 c 0
 671.643554688 449.994140625 620.1015625 479.125 576 479 c 0
 525.106445312 478.870117188 479.543945312 453 474 401 c 0
 470 355 487 339 487 339 c 1
 469 366 l 1xfe
EndSplineSet
Fore
SplineSet
734.1328125 366 m 1
 739.142578125 374.1875 762.571289062 417.841796875 764.606445312 452 c 0
 767.8515625 506.500976562 737.015625 541 684.3046875 541 c 0
 635.91796875 541 585.599609375 497.326171875 582.819335938 450 c 0
 580.158203125 404.709960938 579.748046875 391.787109375 592.076171875 376 c 1
 530.443359375 383 l 1
 572.229492188 398 596.932617188 410.522460938 654.858398438 410 c 0
 784.793945312 408.829101562 855.223632812 316.059570312 847.6953125 195 c 0
 838.670898438 67.134765625 748.6015625 -28 613.532226562 -28 c 0
 494.002929688 -28 426.439453125 60.7275390625 448.91796875 142 c 1
 447.848632812 140.444335938 475.543945312 125.541992188 474.450195312 124 c 1
 457.338867188 73.791015625 402.673828125 -24.91796875 276.375 -26 c 0
 169.331054688 -26.9169921875 68.3037109375 27.6787109375 70.123046875 203 c 0
 71.8193359375 366.454101562 223.475585938 516.795898438 387.915039062 520 c 1
 426.770507812 440 l 1
 412.037109375 426 l 1
 210.39453125 429.568359375 119.40625 323.876953125 120.485351562 220 c 0
 121.40625 131.388671875 188.231445312 86.2607421875 282.192382812 85 c 0
 353.876953125 84.0380859375 431.151367188 125.465820312 455.953125 219 c 1
 463.390625 220.986328125 475.873046875 223.831054688 483.267578125 225 c 1
 470.06640625 147.99609375 521.627929688 75.9990234375 618.983398438 76 c 0
 738.805664062 76.0009765625 802.490234375 147.703125 803.315429688 221 c 0
 804.311523438 309.485351562 730.670898438 339.452148438 652.431640625 340.620117188 c 0
 610.965820312 341.239257812 569.348632812 331.120117188 528.134765625 315.876953125 c 1
 513.717773438 327 l 1
 498.498046875 456.360351562 580.396484375 600 711.396484375 600 c 0
 801.396484375 600 842.560546875 538.006835938 840.369140625 485 c 0
 837.364257812 412.290039062 764.899414062 383.07421875 734.1328125 366 c 1
EndSplineSet
Colour: ff00
EndChar

StartChar: si_La
Encoding: 54 3517 41
GlifName: si_L_a
Width: 852
Flags: HMW
LayerCount: 2
Back
SplineSet
36 103 m 0
 36 327 205.869463869 563 475 564 c 0
 686 565 784 417 784 301 c 0
 784 182 700 81 564 79 c 0
 466 78 396 125 397 189 c 0
 398 250 444 301 510 323 c 1
 509 320 508 317 507 314 c 1
 316 314 l 1
 318.499023438 328.8671875 321.739257812 339.543945312 330 359 c 1
 562 359 l 1
 559 314 l 1
 526 314 471 277 471 223 c 0
 471 162 537 135 583 135 c 0
 668 135 700 199 700 267 c 0
 700 385 597 494 428 494 c 0
 256.539473684 494 114 364 114 160 c 0
 114 -70.7878787879 293 -180 472 -180 c 0
 577 -180 674 -145 742 -101 c 1
 745 -103 747 -114 747 -127 c 0
 747 -140 745 -156 740 -167 c 1
 674.857142857 -240.236842105 560.08203125 -286 436 -286 c 4
 177.538085938 -286 36 -93.5454545455 36 103 c 0
EndSplineSet
Fore
SplineSet
56 143 m 4
 56 407 249.740532685 622.695452762 525 624 c 0
 736 625 824 486 824 361 c 0
 824 242 740.005979279 140.540649304 604 139 c 0
 503.65234375 137.86328125 431.860270629 191.273438768 433 264 c 0
 434.03515625 330.053710938 488.911132812 373.059570312 550 383 c 1
 549 380 548 377 547 374 c 1
 356 374 l 1
 358.499023438 388.8671875 361.739257812 399.543945312 370 419 c 1
 606 419 l 1
 606.113311748 407.385329605 606.394839392 396.003413138 599 374 c 1
 566 374 511 337 511 283 c 0
 511 222 563.232421875 195 620 195 c 0
 706.452853261 195 739 259 739 327 c 0
 739 445.543778802 643.639557241 545 470 545 c 0
 292.533203125 545 131 409.162109375 131 196 c 4
 131 -27.9919235642 293.081920904 -138 493 -138 c 0
 601.111328125 -138 699.985351562 -109.658203125 770 -69 c 1
 773 -71 775 -82 775 -95 c 0
 775 -108 775 -117 770 -128 c 1
 705.939524502 -195.511127178 605.854754983 -233 474 -233 c 0
 204.312154775 -233 56 -54.0700208333 56 143 c 4
EndSplineSet
Colour: ff00
EndChar

StartChar: si_Sha
Encoding: 56 3521 42
GlifName: si_S_ha
Width: 970
Flags: HMW
LayerCount: 2
Back
SplineSet
873.330078125 287.131835938 m 5x9c
 870.3828125 202.45703125 l 5
 843.862304688 208.05078125 753.356445312 180.313476562 729 144 c 0
 684.297851562 74.296875 741.688476562 25.1318359375 684.94140625 -23.029296875 c 1
 639.595703125 -14.3720703125 l 1
 679.584960938 40.443359375 625.141601562 100.857421875 669.78515625 176.172851562 c 0
 718.65634084 258.620458894 844.76953125 237.546875 873.330078125 287.131835938 c 5x9c
700.759765625 17.6123046875 m 0
 803.730012091 29.5855891603 856.623046875 108.114257812 856.623046875 229.600585938 c 0
 856.623046875 353.83984375 776.359375 445.533203125 636.9375 445.533203125 c 0
 556.0703125 445.533203125 445.365531913 397.33234502 438.877929688 254.823242188 c 1
 388.610351562 238.01171875 l 1
 384.657226562 437.1640625 515.451171875 542.603515625 655.6796875 542.603515625 c 0xdc
 827.643554688 542.603515625 920.870117188 411.889648438 920.870117188 267.375 c 0
 920.870117188 101.1640625 836.109375 -54.5166015625 664.411132812 -55.814453125 c 0
 613.534972106 -56.1990214457 573.655273438 -45.9150390625 555.682617188 -36.138671875 c 1
 580.452148438 40.328125 l 1
 602.016601562 24.771484375 657.087890625 12.5341796875 700.759765625 17.6123046875 c 0
111.974609375 245.841796875 m 0
 111.224947768 128.711194652 180.21484375 50.8837890625 308 47.5908203125 c 0
 414.426757812 44.8486328125 485.633025268 87.9111518545 488 160 c 0
 489.319040698 200.172851562 462.767578125 237 389 237 c 1
 440 291 l 1
 489 290 551.65234375 244.21484375 552 160 c 0
 552.451171875 47.953125 473.594726562 -55.0048828125 308.598632812 -55.0048828125 c 0
 140.69140625 -55.0048828125 53.9951171875 61.9140625 53.9951171875 221.564453125 c 0
 53.9951171875 428.865278548 210.2890625 536 337 538 c 0
 344.879882812 462.879882812 l 0xbc
 249.916015625 462.879882812 113.059980801 415.425256344 111.974609375 245.841796875 c 0
EndSplineSet
Fore
SplineSet
363.852539062 211 m 1
 381.098839925 441.051531633 511.318188769 588.413779739 693.0859375 590 c 0
 857.813194233 591.292955326 953.319835335 471.851159079 944.8359375 310 c 0
 936.4011542 138.890625 829.397277116 -7 643.065429688 -10 c 1
 607.221878965 15.2909090909 606.610351562 63.658203125 607.830078125 87 c 0
 607.934570312 89 620.14453125 93 620.249023438 95 c 1
 652.4765625 86.5498046875 665.826499558 85.1792314057 707.201171875 86 c 0
 808.020507812 88 878.078847076 172.417805427 884.739257812 264 c 0
 894.067384348 388.811319624 792.473677223 485 664.583984375 485 c 0
 495.492245361 485 400.941432553 366.358718989 410.852539062 211 c 1
 394.234375 209 378.938476562 208 363.852539062 211 c 1
78.0009765625 265 m 0
 88.6844292354 479 278.967093172 589 399.0859375 591 c 1
 405.090820312 567.988888889 394.840820312 492.9 388.369140625 482 c 1
 269.225573551 482 140.962138218 420.585252029 123.896484375 273 c 0
 113.228317088 163.68689366 204.37767174 93.3125709684 332.568359375 92 c 0
 423.304922054 91.0709295648 522.809066379 131.218055784 529.799804688 213 c 0
 535.934912075 284.772248934 440.758468748 311.863636363 405.412109375 313 c 1
 416.290039062 365 l 1
 504.248037166 365.937888199 584.684056714 304.0726793 580.852539062 214 c 0
 576.561359983 99.9843915519 498.430614024 -9 350.484375 -12 c 0
 159.065614686 -15.8815199679 69.9334904593 109.870621022 78.0009765625 265 c 0
680.952148438 -6 m 1
 680.952148438 -6 602.006835938 -8.6845703125 607.25390625 91 c 0
 612.114257812 189.000976562 703.874023438 257 781.163085938 257 c 0
 862.35546875 257 891.013671875 220 891.013671875 220 c 5
 860.241210938 144 l 1
 860.241210938 144 827.081054688 174.383789062 769.865234375 175 c 0
 717.7265625 175.650390625 655.969726562 157.169921875 643.625 75 c 0
 638.40625 45.0126953125 702.74609375 1 702.74609375 1 c 1
 680.952148438 -6 l 1
EndSplineSet
Colour: ffff00
EndChar

StartChar: si_Ssa
Encoding: 57 3522 43
GlifName: si_S_sa
Width: 800
Flags: HMW
LayerCount: 2
Back
SplineSet
502 352 m 1xff80
 452 333 l 1
 444 358 436.51166092 375.002839085 437 417 c 0
 438 503 509 556 580 556 c 0
 653 556 705 507 705 427 c 0
 705 359 618 309 618 309 c 1
 582 326 l 1
 616.051757812 347.129882812 650.883968435 377.105468228 651 417 c 0
 651.133789062 463 617 494 568 494 c 0
 519.967032967 494 475 452 475 409 c 0
 475 357 502 352 502 352 c 1xff80
119 209 m 0
 118 124 203 45 388 45 c 0
 563 45 663.451096972 127.008790366 665 216 c 0
 666.775390625 318.00390625 549 348 452 333 c 1
 472 373 l 1
 617 402 740.207129289 330.993840671 736 193 c 0xff40
 731 29 564 -59 383 -59 c 0
 189 -59 38.141811219 32.9981390102 40 180 c 0
 42 330.426470588 197 399.460784314 316 373 c 1
 292 345 l 1
 299 365 312.373079226 386.332036185 308 415 c 0
 299 474 239 505 171 490 c 0
 204 511 l 1
 149 409 l 1
 108 411 81.6005469374 436.013673435 83 471 c 0
 85 521 142 557 202 557 c 0
 272 557 343.891968781 516.997155104 346 439 c 0
 347 402 341 370 332 333 c 1
 208 359 119.917658967 287.001012186 119 209 c 0
643 323 m 5
 552.790039062 270.456054688 517.493868182 251.752985038 394 246 c 4
 363.142552198 244.5625 312.134256665 242.7040476 311 200 c 4
 310.303710938 173.78515625 347.396615788 147.779209587 414 148 c 4
 452.711833742 148.128329842 494.205646484 171.149443457 494.284179688 212 c 4
 494.347656249 245.018554688 465.28515625 262.201171875 453 270 c 5
 487 290 l 5
 486.64453125 268.418945312 533.721679688 261.372070312 534.859375 195 c 4
 535.775855403 141.533398617 478.859285171 95.910077431 384 94 c 4
 279.781839008 91.9014731467 228.94056545 135.838864532 230 190 c 4
 231.369140625 259.994140625 314.1836086 277.727222259 384 281 c 4
 542.53515625 288.431640625 569.885742188 327.166015625 616 345.561523438 c 5
 643 323 l 5
EndSplineSet
Fore
SplineSet
218.481445312 210 m 0
 224.038085938 270.76953125 322.7578125 286.325195312 406.250976562 289 c 0
 578.737304688 298.053710938 618.373046875 362.719726562 669.181640625 386 c 1
 695.5 373 l 1
 627.922851562 320.948242188 546.749023438 249.713867188 413.892578125 246 c 0
 378.254882812 245.42578125 258.104492188 243.900390625 258.428710938 219 c 0
 258.62109375 194.861328125 307.325195312 190 368.756835938 190 c 0
 462.10546875 190 520.560546875 205 522.110351562 232 c 0
 523.83984375 265 485.20703125 272 463.1015625 270 c 1
 487.625976562 280 l 1
 507.521484375 278 565.073242188 280.985351562 562.743164062 225 c 0
 560.844726562 177.145507812 507.94921875 133.629882812 406.345703125 132 c 0
 282.458007812 130.408203125 215.064453125 166.9453125 218.481445312 210 c 0
EndSplineSet
Refer: 1 3508 N 1 0 0.0524078 1 -13 0 2
EndChar

StartChar: si_Ha
Encoding: 59 3524 44
GlifName: si_H_a
Width: 1018
Flags: HMW
LayerCount: 2
Back
SplineSet
381 325 m 5
 270.141517966 354.776150174 135.340269334 327.094575981 134 211 c 4
 132.679939884 119.171066716 228.841746903 74.706910269 325 69 c 4
 521.995616243 56.4851316728 561.972238203 167.889280847 555 230 c 4
 548.561612216 300.100585938 490.578568892 307.915039062 465 309 c 5
 499 347 l 5
 545.31618089 348.048828125 610.955833597 296.172600788 609 196 c 4
 606.4453125 85.2855865996 534.666992188 -30 346 -30 c 4
 206.603173099 -30 87.8003075622 54.799838786 88 179 c 4
 88.2052781438 318.948163897 189.86670118 407.277698115 327 406 c 5
 334.336914062 420.516601562 345.539231936 439.408254764 336.520507812 469 c 4
 326.016601562 503.46484375 281.81936459 513.453944907 252 508 c 4
 195.920898438 497.743164062 179 435 170 399 c 5
 127 401 88.2327358291 423.893549679 89 472 c 4
 89.8134765625 523.00390625 146 572 235 572 c 4
 383 572 414 436.489539749 393 339 c 5
 381 325 l 5
426 206 m 5
 439.515570934 398.767578125 535.553824447 561.768450845 705 563 c 4
 891.560262844 564.461047093 964.028828947 415.481869456 963 282 c 4
 961.82859003 100.893554688 862.603174603 -39 688 -38 c 5
 643.796875 -9.96875 641 44.6630859375 641 72 c 5
 663 63 684 59 714 59 c 4
 842.225941423 59 910.37592877 151.00465359 913 248 c 4
 916.641601562 360.078647347 830.055664062 453 679 453 c 4
 587.165908527 453 531.605359617 403.087219025 498.293945312 330 c 4
 478.756835938 290.62109375 476.142578125 244.544921875 478 196 c 5
 462.934895833 194 439.906044408 198 426 206 c 5
EndSplineSet
Fore
SplineSet
453.852539062 221 m 1
 469.003511693 444.981570376 583.399431133 588.746609863 743.0859375 590 c 0
 907.813194233 591.292955326 1002.81560401 471.876802353 994.8359375 310 c 0
 986.4011542 138.890625 879.397277116 -7 693.065429688 -10 c 1
 657.221878965 15.2909090909 644.610585811 73.6586890505 645.830078125 97 c 0
 645.934570312 99 658.14453125 103 658.249023438 105 c 1
 690.476311409 96.55 718.818458614 92 760.201171875 92 c 0
 861.020888024 92 927.123550003 172.492293064 934.739257812 264 c 0
 945.126651108 388.811319624 831.996346934 485 689.583984375 485 c 0
 563.809552849 485 493.480423817 370.688692749 500.852539062 221 c 1
 484.234375 219 468.938476562 218 453.852539062 221 c 1
98.7431640625 219 m 5
 105.754372806 350.509651444 243.676185444 435.144300945 380.045898438 411.578125 c 5
 337.447265625 362 l 5
 345.133789062 370.78515625 372.489207258 397.942165173 374.737304688 453 c 4
 376.125976562 487.009765625 355.829186722 525.408471965 313.041992188 526 c 4
 258.791992188 526.75 221.4375 471.271484375 213.063476562 431 c 5
 180.168945312 433 137.307774698 451.894588654 140.6796875 500 c 4
 143.904296875 546.00390625 187.44921875 591 266.44921875 591 c 4
 426.449218751 591 438.483398439 439 422.766601562 349 c 5
 409.98046875 334 l 5
 265.500976562 357.8 149.76953125 316.616780599 146.336914062 215 c 5
 139.269218883 142.919576051 218.30769269 104.988896474 312.81640625 96 c 4
 460.873687599 81.9180013765 553.719506786 135.328700832 563.541992188 210 c 4
 574.873966482 296.146551318 511.169691868 317.671227615 488.823242188 319 c 5
 499.805664062 357 l 5
 554.846718662 358.118286941 631.186471147 312.508306044 620.978515625 196 c 4
 611.247292652 84.9328718347 499.281026369 -24.1358378689 318.862304688 -10 c 4
 182.857548623 0.848600212782 86.6293552804 89.4298305286 98.7431640625 219 c 5
EndSplineSet
EndChar

StartChar: si_Lla
Encoding: 60 3525 45
GlifName: si_L_la
Width: 875
VWidth: 25
Flags: HMW
LayerCount: 2
Back
SplineSet
737.662109375 313.857421875 m 1
 681.569335938 331.685546875 506.564453125 358.256835938 391 330 c 0
 297.720703125 307.192382812 165.706054688 248.069335938 167 55 c 0
 167.911132812 -80.93359375 275.409179688 -220.403320312 464 -229 c 0
 612.965820312 -235.790039062 719.771484375 -152.744140625 766 -84 c 0
 815 -139 l 0
 770.939453125 -200.060546875 638.8046875 -292.85546875 458 -294 c 0
 211.450195312 -295.479492188 67.529296875 -165.423828125 67 24 c 0
 66.359375 253.140625 236.697265625 342.377929688 383 376 c 0
 522.771484375 408.12109375 659.041015625 392.354492188 712 375 c 1
 695 369 l 1
 698.79296875 444.918945312 681.073242188 507.33984375 603 500 c 4
 560.47265625 496.001953125 513.913085938 456.166992188 505 356 c 1
 465 356 l 1
 456.25 451.360351562 398.995117188 506.1640625 342 500 c 0
 287.829101562 494.141601562 248.33203125 444.888671875 248 361 c 0
 247.422810077 215.171268371 362.854492188 101.72265625 494 101.3359375 c 0
 598.236406879 101.028567666 660.125976562 132.650390625 717 184 c 1
 741 153 l 1
 681.848632812 71.1279296875 585.524244428 25.4060840538 489 25.9765625 c 0
 302.782226562 27.0771484375 199.740234375 140.541992188 196 326 c 0
 193.739257812 438.076171875 244.391601562 545.588867188 341 560 c 0
 457.916992188 577.44140625 502.899414062 431.340820312 482 399 c 1
 483 416 l 1
 484.694335938 470.4453125 535.126953125 559.370117188 618 560 c 0
 683.361328125 560.497070312 737.0989706 519.587484908 742 405 c 0
 743.823242188 362.372070312 740.545898438 343.486328125 737.662109375 313.857421875 c 1
EndSplineSet
Fore
SplineSet
113.500976562 110 m 0
 114.5703125 -7.60546875 213.694335938 -130.139648438 426.543945312 -134 c 0
 564.602539062 -136.50390625 712.991210938 -81.15234375 762.004882812 -43 c 1
 770.422851562 -57.326171875 767.802734375 -93.18359375 758.438476562 -114 c 1
 713.27734375 -155.751953125 600.497070312 -234 429.34765625 -234 c 0
 184.352539062 -234 48.015625 -96.9970703125 52.3330078125 99 c 0
 56.1252083674 271.155268848 157.080078125 361.313476562 260.290039062 393 c 1
 384.565429688 439.3515625 580.15234375 434.563476562 738.19921875 406 c 1
 717.639648438 398 l 1
 704.616210938 487.778320312 654.086914062 533.006835938 596.219726562 535 c 0
 554.29296875 536.565429688 511.727539062 510.795898438 508.415039062 472 c 1
 492.862304688 468.856445312 457.624023438 460.220703125 442.905273438 469 c 1
 437.161132812 516.395507812 408.899414062 539 369.499023438 539 c 0
 310.295898438 539 262.399414062 501.187431709 258.5 417 c 0
 252.123046875 238.343470982 418.314453125 201.517996652 514.094726562 200 c 0
 608.93359375 198.720703125 685.064453125 228.059570312 738.360351562 261 c 1
 745.640625 251.000976562 750.1015625 233.611328125 746.493164062 220 c 1
 704.751953125 172.947265625 615.868164062 99.9296875 480.640625 102 c 0
 334.063560106 104.244071968 201.971679688 217.127929688 207.310546875 379 c 0
 211.774414062 514.341796875 275.96484375 604 380.043945312 604 c 0
 446.923828125 604 489.870117187 560.0078125 487.002929688 519 c 0
 487.216796874 522.0625 484.717773438 524.46875 479.4921875 526 c 1
 472.702148438 519 l 1
 474.773344204 552.416015625 515.285424406 601.845273858 599.834960938 601 c 0
 727.505127397 599.723632812 790.96958426 443.150390625 759.6328125 325 c 1
 681.51171875 349.6875 402.76171875 370.568359375 284.772460938 337 c 0
 140.447265625 295.939453125 112.689453126 199.268554688 113.500976562 110 c 0
EndSplineSet
EndChar

StartChar: si_Fa
Encoding: 61 3526 46
GlifName: si_F_a
Width: 0
Flags: HM
LayerCount: 2
Back
SplineSet
363 -13 m 1
 333.881835938 -25.3193359375 298.634765625 -34.6181640625 248 -33.93359375 c 0
 107.943359375 -32.0400390625 34 85.7525887482 34 228 c 0
 34 384 121.999997703 520.000156233 258 522 c 0
 382.986328125 523.837890625 431 437 433 362 c 1
 435 365 400 359 402 362 c 1
 409 443 482.002929688 521.33203125 583 522 c 0
 734.000976562 522.999023438 796.434570312 373.00390625 797 254 c 0
 797.831054688 78.9990234375 708.955078125 -30.02734375 592 -33 c 0
 555.997070312 -33.9150390625 510 -27 486 -17 c 1
 505 45 l 1
 531 23 570 17 604 20 c 0
 664.065429688 25.2998046875 727.599609375 89.994140625 726 224 c 0
 724.805664062 323.990234375 678.046875 407.399414062 580 409 c 0
 510.039535505 410.142083678 450 357 448 273 c 1
 392 273 l 1
 392 370 321.948278846 416.881019058 252 414 c 0
 141.022045076 409.429056892 106.696289062 303.002929688 104 219 c 0
 100.829101562 120.224609375 142.603515625 20.6630859375 259 20 c 0
 285.412109375 19.849609375 311.651367188 22.8125 344 45 c 1
 363 -13 l 1
EndSplineSet
EndChar

StartChar: si_Halant
Encoding: 62 3530 47
GlifName: si_H_alant
Width: 1
Flags: HMW
LayerCount: 2
Back
SplineSet
28 866 m 1
 28 820.333007812 28 774.666992188 28 729 c 1
 44 708 62.9814453125 706.276367188 76 707 c 0
 94 708 109 727 106 767 c 0
 103 806 75 850 28 866 c 1
6 685 m 1
 5.828125 683.069335938 25.6865234375 688.06640625 25.572265625 686 c 1
 23.0244140625 639.911132812 34.3857421875 532.184570312 43 514 c 1
 -16 514 l 1
 -23 565 -21 670 -21 737 c 1
 -22 920 l 1
 54 911 169 868 165 743 c 0
 163 689 125.046875 657 82 657 c 0
 41 657 15 679 6 685 c 1
EndSplineSet
Fore
SplineSet
15 751 m 6
 15 713.549804688 47.0234375 687.104492188 88 680 c 4
 115 674 141.030273438 685.000976562 140 719 c 4
 138 771.10546875 60 788.473632812 15 794 c 5
 15 751 l 6
-28 478 m 5
 -19 865 l 5
 -5 878 l 5
 25.6572265625 871.818359375 160.28515625 835.518554688 180 727 c 4
 190.215820312 663.317382812 169.764648438 593.104492188 96 591 c 4
 55 590.169921875 26 615.915039062 15 640 c 5
 15 478 l 5
 -28 478 l 5
EndSplineSet
Colour: ff00
EndChar

StartChar: si_MatraAa
Encoding: 63 3535 48
GlifName: si_M_atraA_a
Width: 398
Flags: HMW
LayerCount: 2
Back
SplineSet
59 440 m 1
 85 419 l 1
 102.233398438 430.538085938 136.473632812 450.502929688 183 444 c 0
 261.008789062 431.5859375 296.154296875 350.3984375 293 231 c 0
 289.97265625 124.423828125 248.96484375 26.69140625 172 17 c 0
 132.201171875 12.62109375 90.9521484375 26.9599609375 80 33 c 1
 58 7 l 1
 70.796875 -10.5 116.87109375 -35.92578125 175 -33 c 0
 312.93359375 -26.056640625 379.788085938 122.322265625 383 234 c 0
 387.069335938 378.272460938 319.327148438 493.89453125 193 499 c 0
 142.083984375 501.081054688 87.7236328125 474.416992188 59 440 c 1
EndSplineSet
Fore
SplineSet
1 43 m 5
 1 67 5 86 16 103 c 5
 39 96 86 83 124 83 c 4
 232 83 306 170 296 313 c 4
 290 397 232 448 130 448 c 4
 96 448 59 435 33 420 c 5
 30 437 30 459 36 480 c 5
 64 507 99 542 166 542 c 4
 249 542 344 459 340 271 c 4
 337 148 289 -13 134 -13 c 4
 67 -13 5 24 1 43 c 5
EndSplineSet
Colour: ff00
EndChar

StartChar: si_MatraAe
Encoding: 64 3536 49
GlifName: si_M_atraA_e
Width: 378
Flags: HMW
LayerCount: 2
Back
SplineSet
159 96 m 0x40
 143.75390625 7.5224609375 152.063476562 -89.5732421875 254 -97 c 0
 317.692382812 -101.640625 349 -71.2119140625 372 -51 c 1
 393 -73 l 1
 378.114257812 -116.75 305.828125 -174.841796875 225 -173 c 0
 88.068359375 -169.87890625 59.5498046875 -73.234375 74 40 c 0
 89.9677734375 174.331054688 186.349609375 293.0390625 224.163085938 332 c 1x40
 177.428710938 329.587890625 87.0732421875 326.22265625 29 323.856445312 c 1
 30 388.116210938 l 5x80
 52.9091796875 388.107421875 241.430664062 387.998046875 275 388 c 5
 275 323 l 1
 225.875976562 285.021484375 173.067382812 177.639648438 159 96 c 0x40
EndSplineSet
Fore
SplineSet
31 17 m 0
 27 207 181 356 270 380 c 1
 27 330 l 1
 27 350 26 394 29 420 c 1
 52 420 290 420 326 420 c 1
 337 330 l 1
 325 318 l 1
 220 310 80 197 79 52 c 0
 78.3935546875 -36.00390625 137.130859375 -78.3046875 219 -83 c 0
 255.99609375 -85.1220703125 323 -68 345 -47 c 1
 352.536132812 -54.4912109375 357.69921875 -81.796875 360 -103 c 1
 341 -136 280 -173 211 -173 c 4
 89 -173 33.2104374886 -87.9957807062 31 17 c 0
EndSplineSet
Colour: ff00
EndChar

StartChar: si_MatraAae
Encoding: 65 3537 50
GlifName: si_M_atraA_ae
Width: 417
Flags: HMW
LayerCount: 2
Back
SplineSet
75 412 m 1xc0
 309 412 l 1xc0
 309 358 l 1
 216 324.43359375 l 5
 127 303 l 1
 65 309 l 1
 189 355.081054688 l 1
 273 372 l 1xa0
 243 364 l 1
 75 364 l 1
 75 412 l 1xc0
206 88 m 0
 187.103515625 4.6083984375 191.1640625 -90.5087890625 289 -97 c 0
 352.720703125 -101.227539062 384 -71.2119140625 407 -51 c 1
 428 -73 l 1
 413.114257812 -116.75 340.828125 -174.842773438 260 -173 c 0
 123.068359375 -169.87890625 89.22265625 -72.42578125 109 40 c 0
 128.04296875 148.252929688 227.811523438 232.37890625 279.163085938 262 c 1
 227.614257812 261.661132812 129.0546875 261.188476562 65 260.856445312 c 1
 65 309.116210938 l 1
 87.9091796875 309.107421875 285.431640625 308.998046875 319 309 c 1
 319 253 l 1
 273.961914062 225.39453125 221.813476562 157.787109375 206 88 c 0
EndSplineSet
Fore
SplineSet
31 27 m 0
 27 147 141 275 270 293 c 1
 307 237 l 1
 300 231 l 1
 187 225 75 170 74 54 c 0
 73 -39 157 -85 239 -85 c 0
 300 -85 353 -56 385 -27 c 1
 391 -36 402 -56 400 -73 c 1
 382 -106 327 -173 234 -173 c 0
 105 -173 35 -78 31 27 c 0
65 354 m 1
 67 422 l 1
 276 422 l 1
 272 369 l 1
 157 305 l 1
 212 300 286 292 309 290 c 1
 309 269 309 254 308 238 c 1
 185 267 l 1
 159 270 125 276 92 279 c 5
 92 315 l 5
 92 315 l 5
 203 371 l 1
 65 354 l 1
EndSplineSet
Colour: ff00
EndChar

StartChar: si_MatraI
Encoding: 66 3538 51
GlifName: si_M_atraI_
Width: 0
VWidth: -28
Flags: HM
AnchorPoint: "si_MaI" 39 559 mark 0
LayerCount: 2
Back
Refer: 48 3535 N 1 0 0 1 0 0 2
Fore
SplineSet
-240 655 m 4
 -224 758 -83 802 58 800 c 4
 162 799 303 765 312 659 c 4
 317 594 269 543 233 529 c 13
 216 554 l 21
 240 574 256 595 249 635 c 4
 239 693 117 702 49 703 c 4
 -46 704 -164 706 -178 641 c 4
 -189 588 -150 576 -128 566 c 13
 -148 531 l 21
 -210 551 -251 588 -240 655 c 4
EndSplineSet
EndChar

StartChar: si_MatraIi
Encoding: 67 3539 52
GlifName: si_M_atraI_i
Width: 0
VWidth: -28
Flags: HM
AnchorPoint: "si_MaI" 39 559 mark 0
LayerCount: 2
Back
SplineSet
-185 531 m 21
 -248 551 -291.833007812 588.24609375 -286 655 c 4
 -277 758 -139 802 2 800 c 4
 106 799 249.903320312 764.702148438 266 659 c 4
 275.955078125 593.627929688 231 543 196 529 c 13
 177 554 l 21
 200 574 214.749023438 594.73046875 205 635 c 4
 190.84375 693.477539062 68 701.96875 0 703 c 4
 -94.994140625 704.44140625 -214 706 -223 641 c 4
 -230.40625 587.510742188 -191 576 -168 566 c 13
 -185 531 l 21
EndSplineSet
Fore
SplineSet
-240 655 m 4
 -224 758 -83 802 58 800 c 4
 162 799 303 765 312 659 c 4
 317 594 269 543 233 529 c 13
 216 554 l 21
 240 574 256 595 249 635 c 4
 239 693 117 702 49 703 c 4
 -46 704 -164 706 -178 641 c 4
 -189 588 -150 576 -128 566 c 13
 -148 531 l 21
 -210 551 -251 588 -240 655 c 4
EndSplineSet
EndChar

StartChar: si_MatraU
Encoding: 68 3540 53
GlifName: si_M_atraU_
Width: 0
VWidth: 0
Flags: HM
AnchorPoint: "si_MaU" 25.1201 169 mark 0
LayerCount: 2
Back
SplineSet
-388 -115 m 17
 -361.227539062 -160 l 1
 -361.23046875 -152.99609375 -427.812711241 -191.887525396 -427.809570312 -226 c 0
 -427.80528394 -272.552734178 -403.698875123 -285.247071992 -352 -285.247070312 c 1
 -35 -287 l 9
 -35 169 l 25
 22 169 l 25
 28 -367 l 17
 28 -367 -247.995117188 -369.6796875 -424 -370.586914062 c 0
 -504 -371 -545.244140625 -321.6015625 -546 -271 c 0
 -547.62890625 -161.938476562 -388 -115 -388 -115 c 17
EndSplineSet
Fore
SplineSet
-615.112304688 -271 m 0
 -616.734375 -162 -457.021484375 -115 -457.021484375 -115 c 17
 -429.874023438 -160 l 1
 -430.364257812 -153 -497.63671875 -192 -497.258789062 -226 c 0
 -496.97265625 -273 -473.133789062 -285 -421.133789062 -285 c 2
 -24.9931640625 -287 l 9
 -24.8798828125 169 l 25
 25.1201171875 169 l 25
 30.6005859375 -367 l 17
 30.6005859375 -367 -317.189453125 -370 -493.120117188 -371 c 0
 -573.120117188 -371 -614.545898438 -322 -615.112304688 -271 c 0
EndSplineSet
EndChar

StartChar: si_MatraUu
Encoding: 69 3542 54
GlifName: si_M_atraU_u
Width: 0
VWidth: 0
Flags: HM
AnchorPoint: "si_MaU" 14.7705 169 mark 0
LayerCount: 2
Back
SplineSet
-448 -165 m 25
 -436 -251 l 25
 88 -247 l 25
 82 129 l 25
 -5 129 l 25
 -5 -167 l 25
 -448 -165 l 25
EndSplineSet
Fore
SplineSet
-553.762695312 -281 m 0
 -555.265625 -188 -442.671875 -125 -442.671875 -125 c 17
 -408.223632812 -160 l 1
 -408.643554688 -154 -455.986328125 -192 -461.329101562 -230 c 0
 -466.392578125 -272 -439.434570312 -300 -397.643554688 -297 c 0
 -340.923828125 -293 -287.700195312 -239 -211.909179688 -236 c 0
 -129.119140625 -233 -74.6015625 -269 -32.6435546875 -297 c 1
 -32.2294921875 169 l 25
 14.7705078125 169 l 25
 20.9501953125 -377 l 1
 -41.1201171875 -376 l 1
 -96.70703125 -339 -160.014648438 -306 -216.735351562 -310 c 0
 -304.385742188 -315 -357.770507812 -381 -447.770507812 -381 c 0
 -517.770507812 -381 -553.196289062 -332 -553.762695312 -281 c 0
EndSplineSet
EndChar

StartChar: si_MatraR
Encoding: 70 3544 55
GlifName: si_M_atraR_
Width: 429
VWidth: -11
Flags: HMW
LayerCount: 2
Back
SplineSet
17 449 m 1
 37 419 l 1
 54.2334365325 430.538461539 88.4282279166 450.171453115 135 444 c 0
 206.044410511 434.585557969 240.953858779 350.39868523 238 231 c 0
 235.673454122 126.415584854 209.685365321 33.540720618 145 21 c 0
 99.8863052159 13.532603167 60.0982142857 27.0795774275 34 43 c 1
 11 13 l 1
 26.5941190945 -5.285 71.3400420364 -35.6498516338 144 -33 c 0
 286.939560226 -27.7871064363 343.865398935 122.321918812 347 234 c 0
 351.326443431 378.272912215 294.556180949 498.894728402 145 499 c 0
 96.3287827409 499.034259345 44.4375244811 473.166666667 17 449 c 1
EndSplineSet
Fore
SplineSet
176 46 m 0
 132.814453125 46 113.668769648 68.0276033896 117 106 c 0
 121.571289062 158.107714844 168.666635424 190.308451649 198 196 c 4
 265 209 308 180 349 147 c 1
 354 238 l 1
 317 255 235.165344929 256.313703172 195 247 c 0
 126 231.5 50.1573412912 183.128291797 43 92 c 4
 36.5035971223 -3.83333333333 107.037305913 -32.5325950731 172 -33 c 0
 335.536231884 -34 386.256357624 127.991259553 389 251 c 0
 393 439 298 522 215 522 c 0
 148 522 113 487 85 460 c 1
 79 439 79 417 82 400 c 1
 108 415 145 428 179 428 c 0
 281 428 339.125255039 377.008852936 345 293 c 0
 355 150 263 46 176 46 c 0
EndSplineSet
EndChar

StartChar: si_MatraE
Encoding: 71 3545 56
GlifName: si_M_atraE_
Width: 690
VWidth: -10
Flags: HMW
LayerCount: 2
Back
SplineSet
313 157 m 4
 255.081054688 160.048828125 225 204 225 247 c 4
 225 321 295.996232903 364.285672889 366 365 c 0
 457.000756775 365.928582995 551.537146707 304.978720126 546 172 c 0
 541.655737705 72 461.286885246 -44 281 -44 c 0
 106.011363636 -44 5.04488585503 78.4458592855 20 244 c 0
 36.1881188119 424.993150685 166.769115485 546 347 546 c 0
 469.480446927 546 536 489 536 489 c 0
 497 427 l 1
 495 427 444.751953125 479.645507812 338 487 c 0
 209.078125 495.052734375 87.5294756928 413.662785823 78 284 c 0
 66.9070806138 133.064221695 179.333007812 55.640625 275 48 c 0
 379.729492188 39.6357421875 470.897630752 65.0259085152 487 174 c 0
 499.953781854 266.2671434 431.995346331 330.335991006 363 329 c 0
 306.949367089 328 281 297 281 263 c 0
 281 239 302.145114339 216.832389055 335 216 c 0
 371.235294118 215.2 391 236 391 256 c 0
 391 323.307692308 343.52173913 331 335 331 c 1
 362 337 394.527617292 334.682723095 396 333 c 0
 405 322.714285714 429 306.714285714 429 253 c 0
 429 208 389 153 313 157 c 4
EndSplineSet
Fore
SplineSet
56 202 m 0
 56 409 248.108398438 559.221679688 437 558 c 0
 589 557 657 486 657 486 c 1
 660 455 647 434 632 413 c 1
 632 413 567 474 409 474 c 0
 256.16015625 474 107 368.974609375 107 231 c 0
 107 88 242.491210938 48.2939453125 348 54 c 0
 454.875 59.779296875 543 111 543 218 c 0
 543 293 478 320 418 320 c 0
 367 320 342 296 342 269 c 0
 342 246 359 227 392 227 c 0
 423 227 439 246.053710938 439 274 c 0
 439 322.827148438 396 322 388 322 c 1
 401 325 416 326 428 326 c 0
 440 326 448 325 449 324 c 0
 457 314 477 300 477 255 c 0
 477 207 445.514648438 160.071289062 373 161 c 0
 307.401367188 161.756835938 279.569335938 208.143554688 282 251 c 0
 286.483398438 328.250976562 362 366 434 366 c 0
 518 366 610 314 610 201 c 0
 610 69.8193359375 513.444335938 -44 333 -44 c 0
 180.341796875 -44 56 52.205078125 56 202 c 0
EndSplineSet
Colour: ff00
EndChar

StartChar: si_MatraLs
Encoding: 77 3551 62
GlifName: si_M_atraL_s
Width: 580
VWidth: -11
Flags: HMW
LayerCount: 2
Back
Refer: 48 3535 N 1 0 0 1 77 0 2
Fore
SplineSet
59 344 m 0
 56 242 102 166 205 155 c 0
 291 145 380 186 387 289 c 4
 390 339 354 390 288 390 c 0
 271 390 252 386 252 386 c 1
 249 340 l 1
 297 340 316 311 316 278 c 0
 316 243 276 203 215 212 c 0
 164 220 119 257 119 354 c 0
 119 409 143 474 179 530 c 1
 122 539 l 1
 91 495 61 412 59 344 c 0
140 37 m 1
 153 -34 234 -62 301 -63 c 0
 501 -67 570 78 583 253 c 0
 602 502 477 540 410 543 c 0
 288 548 222 440 225 339 c 1
 277 340 l 1
 270 397 305 480 377 476 c 0
 476 471 491 353 481 251 c 0
 471 153 443 -7 321 -7 c 0
 237 -7 209 20 183 63 c 1
 140 37 l 1
EndSplineSet
EndChar

StartChar: si_VI
Encoding: 387 -1 64
GlifName: si_V_I_
Width: 770
Flags: HMW
LayerCount: 2
Back
SplineSet
376 274 m 1
 230 290 125 245 129 158 c 0
 131.939453125 94.0595703125 204.999023438 55.1953125 345 56 c 0
 519 57 618 173 618 326 c 0
 680 321 l 0
 680 107 571.001953125 -56.423828125 335 -58 c 0
 179 -59.0419921875 49.349609375 8.0439453125 46 137 c 0
 42 291 219 325 341 318 c 1
 351 378 304 428 212 428 c 1
 186 347 l 1
 135 340 100 369 109 415 c 0
 119 471 177 490 224 490 c 0
 300 490 380 453 384 349 c 0
 385.383789062 313.026367188 376 274 376 274 c 1
EndSplineSet
Refer: 328 -1 S 1 0 0 1 0 0 2
Fore
SplineSet
716.727539062 361.692382812 m 0
 728 557 583.193120602 690.630662956 414 696 c 0
 328.615384615 698.709677419 261.468602222 667.208082873 229 668 c 0
 188 669 170.13100334 680.991553664 172 711 c 0
 175.821428571 772.356521739 279.955357143 823 386 823 c 0
 546 823 636.025395187 781.694071563 633 727 c 4
 630.837398374 676.894736842 558.390243902 641.105263158 500 659 c 1
 513 607 l 1
 612 591 675.367297592 664.995163998 676 727 c 0
 677 825 604.006595316 908.512164074 437 907 c 0
 271.224624307 905.498984025 121.973649318 803.411971068 120 687 c 0
 119.1328125 635.850585938 151.999128599 596.059269252 218 597 c 0
 271.160141378 597.757707868 302.294874543 627.486253404 405 622 c 0
 547.998226912 614.361388922 666.077259487 531.393548692 657.58984375 374.19140625 c 0
 648.626953125 208.182617188 511.934958474 81.7322639407 331.427734375 80 c 0
 203.62109375 78.7734849059 110.427734375 107.990291262 110.427734375 173 c 0
 110.427734375 247 197.19921875 295 305.427734375 295 c 0
 331.427734375 295 358.427734375 293 383.427734375 289 c 1
 403.427734375 305 l 1
 405.427734375 317 406.427734375 329 406.427734375 342 c 0
 406.427734375 434 352.427734375 533 224.427734375 533 c 0
 166.427734375 533 99.427734375 505 99.427734375 445 c 0
 99.427734375 410 127.427734375 384 178.427734375 390 c 1
 178.427734375 401 196.428710938 467 258.428710938 467 c 0
 307.428710938 467 340.427734375 434 341.427734375 368 c 1
 333.427734375 369 330.427734375 369 321.427734375 369 c 0
 212.46484375 369 53.4299662053 303.999999998 53.4287109375 153 c 0
 53.427734375 35.5263157895 169.885742188 -27 345.427734375 -27 c 0
 581.500318051 -27 704.648965784 152.417994623 716.727539062 361.692382812 c 0
EndSplineSet
Ligature2: "si_abvs_1 subtable" si_Va si_MatraI
LCarets2: 1 6
Ligature2: "'abvs' Above Base Substitutions in Sinhala lookup 0-1" si_Va si_MatraI
EndChar

StartChar: si_MatraU.alt
Encoding: 85 -1 67
GlifName: si_M_atraU_.alt
Width: 780
VWidth: 0
Flags: HMW
LayerCount: 2
Back
SplineSet
248 -115 m 17
 274.772460938 -160 l 1
 274.76953125 -152.99609375 208.1875 -191.887695312 208.190429688 -226 c 0
 208.194335938 -272.552734375 232.30078125 -285.247070312 284 -285.247070312 c 1
 601 -287 l 9
 601 169 l 25
 658 169 l 25
 664 -367 l 17
 664 -367 388.004882812 -369.6796875 212 -370.586914062 c 0
 132 -371 90.755859375 -321.6015625 90 -271 c 0
 88.37109375 -161.938476562 248 -115 248 -115 c 17
EndSplineSet
Fore
SplineSet
62 -172 m 0
 63 -122 104 -55 184 -54 c 0
 230 -54 269 -84 269 -84 c 1
 264 -109 l 1
 183 -89 133 -131 133 -168 c 4
 133 -203 157 -230 208 -228 c 1
 641 -196 l 1
 651 209 l 1
 688 209 l 1
 690 -289 l 1
 227 -289 l 2
 95 -289 61 -227 62 -172 c 0
EndSplineSet
EndChar

StartChar: si_MatraUu.alt
Encoding: 86 -1 68
GlifName: si_M_atraU_u.alt
Width: 0
VWidth: 0
Flags: HM
AnchorPoint: "si_MaU" 39 209 mark 0
LayerCount: 2
Fore
SplineSet
-593 -258 m 0
 -591 -178 -518 -114 -458 -106 c 1
 -435 -151 l 1
 -483 -165 -504 -198 -505 -222 c 0
 -507 -262 -478 -280 -429 -279 c 4
 -355 -277 -285 -230 -214 -226 c 0
 -151 -222 -102 -239 -60 -268 c 9
 -28 209 l 25
 39 209 l 25
 -4 -369 l 17
 -73 -337 -117 -296 -224 -299 c 0
 -289 -301 -371 -364 -466 -364 c 0
 -566 -364 -594 -309 -593 -258 c 0
EndSplineSet
EndChar

StartChar: si_Rakar.alt
Encoding: 65536 -1 69
GlifName: si_R_akar
Width: 776
VWidth: -24
Flags: HMW
LayerCount: 2
Back
SplineSet
710 217 m 13
 736 210 l 29
 736 210 737.791460669 163.739318268 733 103 c 4
 717.53805264 -88.9552825327 623.783678929 -308.121598998 361 -309 c 4
 140.07699775 -309.663443429 32.9088980374 -199.176818848 27 -179 c 13
 64 -158 l 29
 64 -158 152.41243175 -207.191959404 362 -203 c 4
 650.485866987 -194.912482782 700.90024363 43.6137537122 710 217 c 13
EndSplineSet
Fore
SplineSet
46 -139 m 9
 85 -118 l 25
 85 -118 164.014648438 -239.375 391 -233 c 0
 657.1640625 -225.524414062 691 68 705 222 c 9
 732 210 l 25
 732 210 732.7265625 139.979492188 721 79 c 0
 686.000756731 -103.000145524 615.986577593 -313.342587497 355 -309 c 0
 126.977024731 -305.205897902 51 -165 46 -139 c 9
EndSplineSet
EndChar

StartChar: si_KI
Encoding: 90 -1 71
GlifName: si_K_I_
Width: 1038
VWidth: -24
Flags: HMW
LayerCount: 2
Back
Refer: 334 -1 N 1 0 0 1 640 0 2
Refer: 7 3482 N 1 0 0 1 0 0 2
Fore
SplineSet
712.0703125 770 m 4
 582.530273438 751.874023438 472.5 654.830078125 489.419921875 482 c 5
 396.389648438 456 l 5
 451.650390625 672 581.3203125 868 771.309570312 869 c 4
 900.118164062 869.677734375 988.494140625 791.07421875 990.610351562 693 c 4
 992.25 617 955.110351562 532 813.41015625 531 c 5
 787.700195312 581 l 5
 859.969726562 562 922.110351562 606 922.110351562 670 c 4
 922.110351562 742 819.26953125 785 712.0703125 770 c 4
EndSplineSet
Refer: 7 3482 N 1 0 0 1 -10 0 2
LCarets2: 1 0
Ligature2: "si_abvs_1 subtable" si_Ka si_MatraI
EndChar

StartChar: si_KU
Encoding: 92 -1 73
GlifName: si_K_U_
Width: 1065
VWidth: -24
Flags: HMW
LayerCount: 2
Back
SplineSet
796 9 m 0xbe
 905.836914062 22.0703125 941.120117188 174.231445312 915 279 c 0
 885.174804688 398.631835938 760.228515625 466.868164062 625 462 c 0
 525.9140625 458.697265625 448.959960938 431.771484375 355 374 c 1
 338 362 349 367 335 355 c 1
 238 276 156 211 56 79 c 1
 56 79 21.126953125 98.5439453125 27 107 c 0
 127 251 217 322 315 413 c 1
 322 419 331 420 338 425 c 1
 435.860351562 505 556.172851562 555.573242188 672 561 c 0
 861.928710938 570.465820312 1001 450 1015 282 c 0
 1028.55566406 112.560546875 927.639648438 -33 775 -33 c 0
 796 9 l 0xbe
288 377 m 1
 300 400 304 421 303 439 c 0
 301 481 264.760742188 505.678710938 215 501 c 0
 180.934570312 497.796875 145 470 151 426 c 1
 191 371 l 1
 177 347 154.001953125 335.022460938 132 336 c 0
 87 338 67 369 67 415 c 0
 67 495 133.983398438 563.181640625 231 559 c 0
 313.926757812 555.42578125 363 480 336 416 c 0
 321 380 336 404 323 387 c 1
 288 377 l 1
107 165 m 1
 115 169 124 172 131 172 c 0
 179 173 188 72 271 72 c 0
 320 72 370 101 371 197 c 1
 406 197 l 0
 407 94 466.997070312 71.1669921875 527 72 c 0
 587.002929688 72.8330078125 638 118 638 194 c 0
 638 273 566 340 452 345 c 0
 390.059570312 347.716796875 314 329 281 311 c 1
 335 364 l 1
 348 368 381.99609375 390.330078125 459 391 c 0
 574 392 696 332 696 182 c 0
 696 48 620.995117188 -34.9423828125 516 -36 c 0
 430.693359375 -36.859375 397.721679688 8.326171875 379 49 c 1
 397 49 l 1
 379.737304688 7.81640625 336.954101562 -36 272 -36 c 0xde
 113.997070312 -36 160 169 95 130 c 0
 107 165 l 1
EndSplineSet
Refer: 336 -1 S 1 0 0 1 795 1 2
Fore
SplineSet
31 108 m 1
 124 207 198.000061964 295.999935013 284 378 c 0
 409.938476562 498.081054688 533 562 670 562 c 0
 844 562 999.880624159 447.001818656 997 254 c 0
 995 120 934 -30 726 -38 c 1
 762 59 l 0
 871 59 930 126 930 229 c 0
 930 372 802 465 641 465 c 0
 517 465 391 412 317 350 c 0
 303.9921875 339.1015625 259 300 249 285 c 1
 294.743164062 326.765625 372.888671875 374 451 374 c 0
 572.341796875 374 650 285.375 650 174 c 0
 650 80.9228515625 606.869140625 -28 485 -28 c 0
 425.85546875 -28 374.745117188 6 367 60 c 1
 343.649414062 8 308.804094322 -29.1081551932 245 -28 c 0
 178.426757812 -26.84375 158.289710007 28.5654349888 130 71 c 0
 118 89 84 104 66 84 c 1
 89 121 l 1
 166.603515625 145.731747909 157.56640625 60 247 60 c 0
 304.463867188 60 350.146484375 107.217773438 363 192 c 1
 388 198 l 1
 382.666992188 122 435.44042344 63.5873105062 490 63 c 0
 554.501953125 62.3056640625 603 110.39453125 603 185 c 0
 603 263.584960938 517.173828125 297 440 297 c 0
 345 297 261.999564729 271.439988154 200 221 c 0
 157.202148438 186.181640625 76 94 51 68 c 1
 45.755859375 70 31.244140625 82 31 108 c 1
50 398 m 0
 50 488 142 554 240 554 c 0
 306 554 348 526 348 473 c 0
 348 414 310 382 286 357 c 1
 275 366 l 1
 288 387 289 385 289 424 c 0
 289 473 256 508 207 508 c 0
 160 508 140 467 140 421 c 0
 140 385 157 354 168 342 c 1
 155 335 133 331 117 331 c 0
 75 331 50 352 50 398 c 0
EndSplineSet
Refer: 336 -1 N 1 0 0 1 759 52 2
LCarets2: 1 0
Ligature2: "si_blws_1 subtable" si_Ka si_MatraU
EndChar

StartChar: si_GI
Encoding: 109 -1 85
GlifName: si_G_I_
Width: 970
VWidth: -24
Flags: HMW
LayerCount: 2
Back
Refer: 25 3484 N 1 0 0 1 0 0 2
Fore
SplineSet
379.852539062 221 m 1
 387.098632812 431.051757812 502.318359375 588.375976562 684.0859375 590 c 0
 828.813476562 591.29296875 934.3203125 481.8515625 932.8359375 320 c 0
 931.265625 148.690429688 837.397460938 -7 651.065429688 -10 c 1
 615.221679688 15.291015625 592.610351562 63.658203125 593.830078125 87 c 0
 593.934570312 89 606.14453125 93 606.249023438 95 c 1
 752.686523438 56.603515625 874.27734375 148.95703125 873.739257812 294 c 0
 873.274414062 419.159179688 742.473632812 475 652.583984375 475 c 0
 493.4921875 475 416.94140625 376.358398438 426.852539062 221 c 1
 410.234375 219 394.938476562 218 379.852539062 221 c 1
64.0009765625 243 m 0
 74.6845703125 447 246.966796875 579 367.0859375 581 c 1
 373.090820312 557.989257812 362.840820312 482.900390625 356.369140625 472 c 1
 237.225585938 472 129.332926285 390.919812295 114.896484375 283 c 0
 100.33984375 174.181640625 182.377929688 103.3125 310.568359375 102 c 0
 401.3046875 101.071289062 518.80859375 131.217773438 525.799804688 213 c 0
 531.934570312 284.772460938 456.758789062 321.86328125 421.412109375 323 c 1
 432.290039062 375 l 1
 520.248046875 375.9375 580.68359375 304.072265625 576.852539062 214 c 0
 572.561523438 99.984375 476.430664062 -9 328.484375 -12 c 0
 137.065429688 -15.8818359375 55.876953125 87.8740234375 64.0009765625 243 c 0
400 644 m 0
 400.810546875 760.345703125 529.002929688 869.495117188 710 871 c 0
 828.999579717 871.989410613 933 819 931 696 c 0
 929.926757812 629.978515625 850 515 755 541 c 9
 715 586 l 17
 799 557 862.884765625 613.995117188 861 663 c 0
 858 741 763.099609375 762.396484375 665 764 c 0
 549.860351562 765.881835938 461 722 453 646 c 0
 444 562 550 560 602 580 c 9
 550 516 l 17
 488 516 399.33203125 548.16796875 400 644 c 0
EndSplineSet
Ligature2: "si_abvs_1 subtable" si_Ga si_MatraI
EndChar

StartChar: si_GU
Encoding: 111 -1 87
GlifName: si_G_U_
Width: 959
VWidth: -24
Flags: HMW
LayerCount: 2
Back
SplineSet
665.759765625 8.6123046875 m 0xee
 798.73046875 0.5859375 856.623046875 108.114257812 856.623046875 229.600585938 c 0
 856.623046875 353.83984375 776.359375 445.533203125 636.9375 445.533203125 c 0
 556.0703125 445.533203125 445.365234375 397.33203125 438.877929688 254.823242188 c 1
 388.610351562 238.01171875 l 1
 384.657226562 437.1640625 515.451171875 542.603515625 655.6796875 542.603515625 c 0
 827.643554688 542.603515625 920.870117188 411.889648438 920.870117188 267.375 c 0
 920.870117188 101.1640625 847.109375 -54.5166015625 664.411132812 -45.814453125 c 4
 665.759765625 8.6123046875 l 0xee
111.974609375 245.841796875 m 0
 111.224609375 128.7109375 180.21484375 50.8837890625 308 47.5908203125 c 0
 414.426757812 44.8486328125 485.6328125 87.9111328125 488 160 c 0
 489.319335938 200.172851562 462.767578125 237 389 237 c 1
 440 291 l 1
 489 290 551.65234375 244.21484375 552 160 c 0
 552.451171875 47.953125 473.594726562 -55.0048828125 308.598632812 -55.0048828125 c 0
 140.69140625 -55.0048828125 53.9951171875 61.9140625 53.9951171875 221.564453125 c 0
 53.9951171875 428.865234375 210.2890625 536 337 538 c 0
 344.879882812 462.879882812 l 0xde
 249.916015625 462.879882812 113.059570312 415.424804688 111.974609375 245.841796875 c 0
EndSplineSet
Refer: 336 -1 N 1 0 0 1 665 1 2
Fore
SplineSet
54 222 m 0
 54 429 210 536 337 538 c 1
 337 463 l 1
 242 463 112 415 112 244 c 0
 112 125 185 47 318 47 c 0
 419 47 488 91 488 163 c 0
 488 202 461 237 389 237 c 1
 440 291 l 1
 489 290 552 244 552 159 c 0
 552 47 474 -55 309 -55 c 0
 141 -55 54 62 54 222 c 0
391 239 m 1
 391 432 518 543 656 543 c 0
 828 543 921 412 921 267 c 0
 921 105 851 -46 679 -46 c 0
 674 -46 669 -46 664 -46 c 1
 664 9 l 1
 669 9 675 8 680 8 c 0
 803 8 857 113 857 230 c 0
 857 354 776 446 637 446 c 0
 556 446 445 398 439 255 c 1
 391 239 l 1
EndSplineSet
Refer: 336 -1 S 1 0 0 1 665 1 2
LCarets2: 1 0
Ligature2: "si_blws_1 subtable" si_Ga si_MatraU
EndChar

StartChar: si_GUu
Encoding: 112 -1 88
GlifName: si_G_U_u
Width: 970
VWidth: -24
Flags: HMW
LayerCount: 2
Back
Refer: 25 3484 N 1 0 0 1 0 0 2
Fore
SplineSet
379.852539062 221 m 1
 387.098632812 431.051757812 502.318359375 588.375976562 684.0859375 590 c 0
 828.813476562 591.29296875 934.3203125 481.8515625 932.8359375 320 c 0
 931.265625 148.690429688 837.397460938 -7 651.065429688 -10 c 1
 615.221679688 15.291015625 652.610351562 63.658203125 653.830078125 87 c 4
 653.934570312 89 666.14453125 93 666.249023438 95 c 5
 772.686523438 56.603515625 874.27734375 148.95703125 873.739257812 294 c 0
 873.274414062 419.159179688 742.473632812 475 652.583984375 475 c 0
 493.4921875 475 416.94140625 376.358398438 426.852539062 221 c 1
 410.234375 219 394.938476562 218 379.852539062 221 c 1
64.0009765625 253 m 0
 74.6845703125 457 256.966796875 579 377.0859375 581 c 1
 383.090820312 557.989257812 372.840820312 482.900390625 366.369140625 472 c 1
 247.225585938 472 130.763671875 430.71875 114.896484375 283 c 0
 104.228515625 183.686523438 182.377929688 103.3125 310.568359375 102 c 0
 401.3046875 101.071289062 518.80859375 131.217773438 525.799804688 213 c 0
 531.934570312 284.772460938 456.758789062 321.86328125 421.412109375 323 c 1
 432.290039062 375 l 1
 520.248046875 375.9375 580.68359375 304.072265625 576.852539062 214 c 0
 572.561523438 99.984375 476.430664062 -9 328.484375 -12 c 0
 137.065429688 -15.8818359375 55.876953125 97.8740234375 64.0009765625 253 c 0
EndSplineSet
Refer: 352 -1 N 1 0 0 1 654 50 2
LCarets2: 1 0
Ligature2: "si_blws_3 subtable" si_Ga si_MatraUu
EndChar

StartChar: si_Gh.halant
Encoding: 118 -1 94
GlifName: si_G_h.halant
Width: 0
VWidth: -24
Flags: HM
LayerCount: 2
Back
SplineSet
39 379 m 1xe8
 417 381 l 1
 419 336 l 1
 123 335 l 1
 38 322 l 1
 39 379 l 1xe8
547 373 m 1
 580 384 l 1
 679.491210938 410.330078125 865 380.840820312 865 186 c 0
 865 64 790.377929688 -45 659 -45 c 0
 554 -45 521 13 506 117 c 1
 505.427734375 116.142578125 540 147 534 165 c 24
 528 183 486.626953125 183.658203125 484 184 c 1
 481.327148438 184.34765625 438 184 427 162 c 24
 419 145 461.505859375 117.758789062 461 117 c 1
 443.119140625 16 420.748046875 -43.1982421875 304 -44 c 0
 171.470703125 -44.91015625 99.1728515625 54.9951171875 101 154 c 0
 103.165039062 268 197.35546875 346 232 347 c 1
 326 338 l 1
 239.861328125 324.103515625 161.854492188 266.251953125 163 183 c 0
 163.899414062 112.950195312 215.602539062 66.7216796875 304 62 c 0
 345.575195312 59.779296875 409.211914062 74.7744140625 415 107.828125 c 1
 414.201171875 132.467773438 370.123046875 139.845703125 371 171 c 0
 372.030273438 207.595703125 416.004882812 243.372070312 488 242 c 0
 555.00390625 240.72265625 590 210 590 174 c 0
 590 142.715820312 550.262695312 129.123046875 548 112.466796875 c 1
 551.45703125 84.8037109375 620.854492188 64.2333984375 664 64 c 0
 743.806640625 63.599609375 799.400390625 113.7890625 801 195 c 0xf2
 803.384765625 310.975585938 705.305664062 383.813476562 542 328 c 1
 537 350.166992188 532.391601562 374.670898438 532 398 c 0
 530 500 603 568 687 570 c 0
 753.981445312 571.594726562 830 532 830 452 c 0
 830 356 737 330 737 330 c 1
 721 337 l 1
 721 337 760 374.990234375 760 424 c 0xe4
 760 465 719.879882812 513.047851562 656 509 c 0
 619.995117188 506.71875 577 472 572 411 c 0
 568.227539062 364.98046875 588 353 588 353 c 1
 547 373 l 1
388 364 m 1xe8
 391 398 391 417 379 445 c 0
 365 480 310 508 260 503 c 0
 209 419 l 1
 179 422 155 439 155 476 c 0
 155 543 227 568 280 568 c 0
 360 568 433.29296875 518.05078125 436 433 c 0
 437.56640625 383.791015625 428 358.083007812 419 337 c 1
 388 364 l 1xe8
EndSplineSet
Fore
Refer: 47 3530 S 1 0 0 1 797 0 2
LCarets2: 1 0
Ligature2: "si_halant_1 subtable" si_Gha si_Halant
EndChar

StartChar: si_GhI
Encoding: 119 -1 95
GlifName: si_G_hI_
Width: 0
VWidth: -24
Flags: HM
LayerCount: 2
Back
SplineSet
39 379 m 1xe8
 417 381 l 1
 419 336 l 1
 123 335 l 1
 38 322 l 1
 39 379 l 1xe8
547 373 m 1
 580 384 l 1
 679.491210938 410.330078125 865 380.840820312 865 186 c 0
 865 64 790.377929688 -45 659 -45 c 0
 554 -45 521 13 506 117 c 1
 505.427734375 116.142578125 540 147 534 165 c 24
 528 183 486.626953125 183.658203125 484 184 c 1
 481.327148438 184.34765625 438 184 427 162 c 24
 419 145 461.505859375 117.758789062 461 117 c 1
 443.119140625 16 420.748046875 -43.1982421875 304 -44 c 0
 171.470703125 -44.91015625 99.1728515625 54.9951171875 101 154 c 0
 103.165039062 268 197.35546875 346 232 347 c 1
 326 338 l 1
 239.861328125 324.103515625 161.854492188 266.251953125 163 183 c 0
 163.899414062 112.950195312 215.602539062 66.7216796875 304 62 c 0
 345.575195312 59.779296875 409.211914062 74.7744140625 415 107.828125 c 1
 414.201171875 132.467773438 370.123046875 139.845703125 371 171 c 0
 372.030273438 207.595703125 416.004882812 243.372070312 488 242 c 0
 555.00390625 240.72265625 590 210 590 174 c 0
 590 142.715820312 550.262695312 129.123046875 548 112.466796875 c 1
 551.45703125 84.8037109375 620.854492188 64.2333984375 664 64 c 0
 743.806640625 63.599609375 799.400390625 113.7890625 801 195 c 0xf2
 803.384765625 310.975585938 705.305664062 383.813476562 542 328 c 1
 537 350.166992188 532.391601562 374.670898438 532 398 c 0
 530 500 603 568 687 570 c 0
 753.981445312 571.594726562 830 532 830 452 c 0
 830 356 737 330 737 330 c 1
 721 337 l 1
 721 337 760 374.990234375 760 424 c 0xe4
 760 465 719.879882812 513.047851562 656 509 c 0
 619.995117188 506.71875 577 472 572 411 c 0
 568.227539062 364.98046875 588 353 588 353 c 1
 547 373 l 1
388 364 m 1xe8
 391 398 391 417 379 445 c 0
 365 480 310 508 260 503 c 0
 209 419 l 1
 179 422 155 439 155 476 c 0
 155 543 227 568 280 568 c 0
 360 568 433.29296875 518.05078125 436 433 c 0
 437.56640625 383.791015625 428 358.083007812 419 337 c 1
 388 364 l 1xe8
EndSplineSet
Fore
Refer: 330 -1 S 1 0 0 1 34 0 2
Ligature2: "si_abvs_1 subtable" si_Gha si_MatraI
EndChar

StartChar: si_C.halant
Encoding: 136 -1 104
GlifName: si_C_.halant
Width: 877
Flags: HMW
LayerCount: 2
Back
Refer: 5 3488 N 1 0 0 1 0 0 2
Fore
SplineSet
232 874 m 4
 232 874 307.993164062 933.439453125 441 932 c 4
 810.665039062 928 837 551 837 403 c 5
 822 413 l 5
 822 413 812.271484375 836.095703125 438 855 c 4
 400.041992188 856.916992188 379 855 379 862 c 5
 391 894 l 5
 379.0078125 808.248046875 366.092773438 743.934570312 272 689 c 5
 263 695 l 5
 340.841796875 786.111328125 341.737304688 866.502929688 348 900 c 5
 360 850 l 5
 303 838.19140625 283 829.532226562 236 813 c 5
 228 821.372070312 226 842.90234375 232 874 c 4
132.756835938 178 m 4
 140.669921875 326.80078125 305.650390625 381 418.552734375 381 c 4
 427.229492188 381 440.552734375 381 448.5 383 c 5
 450.958984375 449 406.741210938 483 357.741210938 483 c 4
 295.741210938 483 270.75390625 426 270.176757812 415 c 5
 218.862304688 409 192.172851562 434 194.006835938 469 c 4
 196.94140625 525 252.670898438 558 310.670898438 558 c 4
 446.670898438 558 502.751953125 445 497.927734375 353 c 4
 497.24609375 340 495.6171875 328 492.98828125 316 c 5
 472.150390625 300 l 5
 447.359375 304 420.46484375 306 394.46484375 306 c 4
 286.236328125 306 185.83984375 275 181.961914062 201 c 4
 178.712890625 139 265.645507812 96 403.458984375 96 c 4
 636.3359375 96 768.390625 206.044921875 780.596679688 423 c 4
 790.134765625 592.534179688 656.551757812 695 474.899414062 695 c 4
 337.994140625 695 243.9453125 635 241.754882812 635 c 5
 231.974609375 646.96484375 255.1171875 689.220703125 272.047851562 704 c 5
 317.869140625 737.23046875 390.620117188 768 487.249023438 768 c 4
 708.7109375 768 847.915039062 619.913085938 836.076171875 394 c 4
 823.499023438 154 660.020507812 -17 417.537109375 -17 c 4
 241.995117188 -17 126.163085938 54.0048828125 132.756835938 178 c 4
44.3115234375 265 m 5
 59.7666015625 350 l 5
 140.358398438 370.6953125 337.428710938 385.478515625 449.971679688 384 c 5
 383.185546875 369 l 5
 230.561523438 359.0390625 102.391601562 291.524414062 56.787109375 255 c 5
 44.3115234375 265 l 5
EndSplineSet
LCarets2: 1 3
Ligature2: "si_halant_1 subtable" si_Ca si_Halant
EndChar

StartChar: si_CI
Encoding: 137 -1 105
GlifName: si_C_I_
Width: 877
VWidth: -14
Flags: HMW
LayerCount: 2
Back
Refer: 5 3488 N 1 0 0 1 0 0 2
Fore
SplineSet
27 244 m 1
 38 339 l 1
 116 353 308 363 418 362 c 1
 412 347 l 1
 236 338 91 267 40 234 c 1
 27 244 l 1
112 145 m 0
 112 296 276 353 381 353 c 0
 390 353 400 353 408 352 c 1
 407 418 364 442 315 442 c 0
 263 442 231 395 231 384 c 1
 180 378 152 403 152 438 c 0
 152 494 206 527 264 527 c 0
 400 527 462 414 462 322 c 0
 462 309 461 297 459 285 c 1
 439 269 l 1
 414 273 387 275 361 275 c 0
 258 275 160 242 160 168 c 0
 160 106 229 82 348 82 c 0
 578 82 705 198 705 405 c 1
 768 373 l 1
 768 133 625 -39 388 -39 c 0
 239 -39 112 21 112 145 c 0
EndSplineSet
Refer: 328 -1 N 1 0 0 1 52 0 2
LCarets2: 1 0
Ligature2: "si_abvs_1 subtable" si_Ca si_MatraI
EndChar

StartChar: si_J.halant
Encoding: 151 -1 119
GlifName: si_J_.halant
Width: 787
VWidth: -24
Flags: HMW
LayerCount: 2
Back
Refer: 28 3490 N 1 0 0 1 0 0 2
Fore
SplineSet
520 871 m 2
 520 833.549804688 552.0234375 807.104492188 593 800 c 0
 620 794 646.030273438 805.000976562 645 839 c 0
 643 891.10546875 565 908.473632812 520 914 c 1
 520 871 l 2
477 458 m 1
 486 985 l 1
 500 998 l 1
 530.657226562 991.818359375 665.28515625 955.518554688 685 847 c 0
 695.215820312 783.317382812 674.764648438 723.104492188 601 721 c 4
 560 720.169921875 531 745.915039062 520 770 c 5
 520 458 l 1
 477 458 l 1
EndSplineSet
Refer: 28 3490 N 1 0 0 1 0 0 2
LCarets2: 1 0
Ligature2: "si_halant_1 subtable" si_Ja si_Halant
EndChar

StartChar: si_Tt.halant
Encoding: 206 -1 129
GlifName: si_T_t.halant
Width: 790
Flags: HMW
LayerCount: 2
Back
SplineSet
353.442382812 334 m 1xfa
 327.442382812 346 293.442382812 352 260.442382812 350 c 0
 190.369140625 345.8515625 117.5546875 302.787109375 116.442382812 218 c 0
 115.442382812 140.005859375 171.440018336 54.38494186 334.442382812 55 c 0
 547.44140625 55.8037109375 618.874023438 215.23046875 627.442382812 340 c 0
 690.442382812 332 l 0
 691.631835938 137.185546875 601.442382812 -57 341.442382812 -59 c 0
 148.44763624 -60.4845749736 38.5732421875 38.0029296875 35.4423828125 176 c 0
 32.1533203125 320.966796875 154.427734375 394.418945312 265.442382812 398 c 0
 327.442382812 400 367.442382812 379 367.442382812 379 c 1
 353.442382812 334 l 1xfa
EndSplineSet
Refer: 337 -1 N 1 0 0 1 -20 0 2
Fore
SplineSet
66.4853515625 219 m 0
 80.640625 409.828125 262.859375 481 363.426757812 481 c 0
 372.426757812 481 382.426757812 481 390.374023438 480 c 1
 419.024414062 377 l 1
 346.068359375 389.448242188 136.279296875 366.8203125 120.21484375 228 c 0
 110.44921875 141.26953125 215.34375 82.26171875 356.720703125 85 c 0
 568.674804688 89.251953125 679.359375 211.234375 704.5 375 c 0
 737.377929688 590.983398438 572.235351562 645 405.166015625 645 c 4
 304.010742188 645 220.672851562 586.354492188 193 572 c 5
 178.178710938 578 l 4
 178.798828125 608.916992188 195.055664062 651.979492188 204.733398438 674 c 5
 248.913085938 696.509765625 322.881835938 735 414.881835938 735 c 4
 617.513671875 735 787.9765625 629.857421875 765.028320312 366 c 0
 744.658203125 132.198242188 609.748046875 -34.0263671875 354.431640625 -35 c 0
 153.662109375 -35.765625 57.05859375 86.3935546875 66.4853515625 219 c 0
194 756 m 1
 196 769 200 802 217 834 c 0
 217 834 287 883 409 882 c 0
 688 879 768 587 768 403 c 1
 719 483 l 1
 721 545 686 799 386 802 c 0
 305 803 277 793 277 793 c 1
 311 820 340 818 369 817 c 1
 325 810 270 731 246 668 c 5
 205 674 l 5
 246 764 281 819 299 832 c 1
 271 793 l 1
 236 781 223 775 194 756 c 1
EndSplineSet
LCarets2: 1 0
Ligature2: "si_halant_1 subtable" si_Tta si_Halant
EndChar

StartChar: si_TtI
Encoding: 207 -1 130
GlifName: si_T_tI_
Width: 808
Flags: HMW
LayerCount: 2
Back
SplineSet
366 329 m 1xfc
 343 338 300 345 273 343 c 0
 202 338 115.5149564 300.478264259 117 198 c 0
 118.4140625 100.419921875 217 45 350 44 c 4
 544.997070312 42.5341796875 612.875976562 198.346679688 616 323 c 0
 682 322 l 0
 680.189453125 113.185546875 570 -59 330 -59 c 4
 147 -59 40.7906648242 50.1077332517 46 176 c 0
 52 321 165 394 276 398 c 0
 338 400 378 379 378 379 c 1
 366 329 l 1xfc
EndSplineSet
Refer: 328 -1 N 1 0 0 1 0 0 2
Fore
SplineSet
755 346 m 1
 734.658203125 121.198242188 589.748046875 -24.9375 354.431640625 -26 c 0
 173.662109375 -26.81640625 62.05859375 82.3935546875 71.4853515625 215 c 0
 85.640625 405.828125 262.859375 490 363.426757812 490 c 0
 372.426757812 490 382.426757812 490 390.374023438 489 c 1
 419.024414062 386 l 1
 346.068359375 398.448242188 146.279296875 363.8203125 130.21484375 225 c 0
 120.44921875 138.26953125 215.34375 91.26171875 356.720703125 94 c 0
 568.674804688 98.251953125 669.359375 200.234375 694 365 c 1
 712.471679688 505.340820312 611.403320312 585.564453125 478 593 c 0
 399.9609375 598.385230655 337 568.238095238 281 567 c 0
 195.0078125 565.398097826 169 633.782608696 173 687 c 0
 182.248046875 804.909179688 308.99609375 888.381835938 470 890 c 0
 627.005859375 891.578125 730 808 729 710 c 0
 728.3671875 647.995117188 665 574 566 590 c 1
 563 642 l 1
 617 627 674 657 676 699 c 0
 678.903320312 759.963867188 549 806 429 806 c 0
 318 806 229 764 225 701 c 0
 223.094726562 667.505087209 240 644.069767442 302 653 c 0
 335.953125 659.372159091 387 673.363636364 457 669 c 0
 645.708984375 661.25390625 770.053710938 544.799804688 755 346 c 1
EndSplineSet
LCarets2: 1 0
Ligature2: "si_abvs_1 subtable" si_Tta si_MatraI
Ligature2: "'abvs' Above Base Substitutions in Sinhala lookup 0-1" si_Tta si_MatraI
EndChar

StartChar: si_TtIi
Encoding: 208 -1 131
GlifName: si_T_tI_i
Width: 790
Flags: HMW
LayerCount: 2
Back
SplineSet
366 329 m 1xfd
 343 338 300 345 273 343 c 0
 202 338 115.5149564 300.478264259 117 198 c 0
 118.4140625 100.419921875 207 45 340 44 c 0
 534.997070312 42.5341796875 603.875976562 198.346679688 607 323 c 0
 682 322 l 0
 680.189453125 113.185546875 560 -59 320 -59 c 0
 137 -59 40.7906648242 50.1077332517 46 176 c 0
 52 321 165 394 276 398 c 0
 338 400 378 379 378 379 c 1
 366 329 l 1xfd
EndSplineSet
Refer: 329 -1 S 1 0 0 1 0 0 2
Fore
SplineSet
755 336 m 5
 734.658203125 111.198242188 596.748046875 -34.9375 361.431640625 -36 c 4
 180.662109375 -36.81640625 60.05859375 68.3935546875 69.4853515625 201 c 4
 83.640625 391.828125 252.859375 480 353.426757812 480 c 4
 362.426757812 480 372.426757812 480 380.374023438 479 c 5
 409.024414062 376 l 5
 336.068359375 388.448242188 136.279296875 353.8203125 120.21484375 215 c 4
 110.44921875 128.26953125 215.34375 81.26171875 356.720703125 84 c 4
 568.674804688 88.251953125 669.359375 190.234375 694 355 c 5
 712.471679688 495.340820312 611.403320312 575.564453125 478 583 c 4
 399.9609375 587.349609375 337 563 281 562 c 4
 195.0078125 560.46484375 169 626 173 677 c 4
 182.248046875 794.909179688 308.99609375 878.381835938 470 880 c 4
 627.005859375 881.578125 730 798 729 700 c 4
 728.3671875 637.995117188 665 564 566 580 c 5
 563 632 l 5
 617 617 674 647 676 689 c 4
 678.903320312 749.963867188 549 796 429 796 c 4
 318 796 229 754 225 691 c 4
 223.094726562 660.994140625 240 640 302 648 c 4
 335.953125 652.380859375 387 662 457 659 c 4
 645.708984375 651.25390625 770.053710938 534.799804688 755 336 c 5
EndSplineSet
LCarets2: 1 0
Ligature2: "si_abvs_2 subtable" si_Tta si_MatraIi
EndChar

StartChar: si_TtU
Encoding: 209 -1 132
GlifName: si_T_tU_
Width: 781
VWidth: -14
Flags: HMW
LayerCount: 2
Back
SplineSet
212 -117 m 1
 228.772460938 -152 l 1
 228.76953125 -143.934570312 162.1875 -188.71875 162.190429688 -228 c 0
 162.1953125 -274.552734375 189.481445312 -288 248 -288 c 1
 615 -288 l 1
 615 167 l 5
 662 167 l 5
 668 -369 l 1
 668 -369 387.048828125 -371.4765625 176 -372.586914062 c 0
 96 -373 54.755859375 -323.6015625 54 -273 c 0
 52.37109375 -163.938476562 212 -117 212 -117 c 1
EndSplineSet
Refer: 0 3495 N 1 0 0 1 0 0 2
Fore
SplineSet
72 -242 m 0
 72.9091224533 -191.998265066 114 -125 194 -124 c 0
 240 -124 279 -154 279 -154 c 1
 274 -179 l 1
 193 -159 143 -201 143 -238 c 0
 143 -273 177 -300 228 -298 c 1
 631 -266 l 1
 651 159 l 5
 698 159 l 5
 700 -359 l 1
 197 -359 l 2
 105 -359 71 -297 72 -242 c 0
EndSplineSet
Refer: 0 3495 N 1 0 0 1 0 0 2
LCarets2: 1 0
Ligature2: "si_blws_1 subtable" si_Tta si_MatraU
EndChar

StartChar: si_Dd.halant
Encoding: 221 -1 143
GlifName: si_D_d.halant
Width: 894
VWidth: -14
Flags: HMW
LayerCount: 2
Back
Refer: 29 3497 N 1 0 0 1 0 0 2
Fore
SplineSet
236 756 m 1
 238 769 242 802 259 834 c 0
 259 834 329.001330101 883.184453106 451 882 c 0
 760 879 830 587 830 403 c 1
 781 483 l 1
 783 545 758 803 418 806 c 0
 336.997070312 806.71484375 319 793 319 793 c 1
 353 820 382 818 411 817 c 1
 367 810 312 741 288 678 c 1
 236 684 l 1
 277 774 323 819 341 832 c 1
 313 793 l 1
 278 781 265 775 236 756 c 1
39.3115234375 260 m 1
 39.546875 286.979492188 35.8876953125 312.924804688 55.2900390625 345 c 1
 267.866210938 379 325.232421875 379 426.49609375 378 c 1
 425.918945312 354 l 1
 264 355.817382812 151.079101562 318.268554688 39.3115234375 260 c 1
119.336914062 149 m 0
 127.250976562 300 298.4765625 359.987304688 393.547851562 369 c 0
 402.551757812 369.853515625 416.547851562 379 424.49609375 378 c 1
 426.955078125 464 370.260742188 488 321.260742188 488 c 0
 265.260742188 488 236.2734375 421 235.697265625 410 c 1
 194.3828125 414 176.293945312 435.0234375 178.526367188 470 c 0
 181.461914062 516 237.19140625 553 295.19140625 553 c 0
 431.19140625 553 491.79296875 443 486.971679688 351 c 0
 486.290039062 338 484.661132812 326 482.032226562 314 c 1
 461.194335938 298 l 1
 427.583007812 313 390.841796875 318 350.508789062 314 c 0
 280.4765625 307.0546875 184.775390625 260.8515625 179.8046875 176 c 0
 176.487304688 119.364257812 220.8125 83.890625 303.76953125 83 c 0
 394.688476562 82.0234375 439.291015625 133 462.477539062 211 c 1
 487.791992188 217 l 1
 477.315429688 135.0625 517.37890625 81.0009765625 592.559570312 82 c 0
 727.6484375 83.794921875 789.025390625 252.107421875 788.547851562 373 c 0
 787.700195312 587.75 606.552734375 666 445.790039062 666 c 0
 290.790039062 666 210.436523438 596 208.436523438 596 c 1
 205.59375 599 208.959960938 606 209.484375 616 c 4
 210.584960938 637 233.209960938 675 244.415039062 698 c 1
 288.830078125 729 353.139648438 750 446.139648438 750 c 0
 676.685546875 750 849.346679688 585.721679688 851.024414062 358 c 0
 852.483398438 160.0078125 771.834960938 -25 599.584960938 -25 c 0
 475.276367188 -25 439.684570312 55.9248046875 450.870117188 119 c 1
 448.903320312 117.444335938 473.98828125 122.541992188 471.974609375 121 c 1
 467.403320312 62.5908203125 401.4921875 -20 285.689453125 -20 c 0
 163.963867188 -20 114.462890625 56 119.336914062 149 c 0
EndSplineSet
LCarets2: 1 0
Ligature2: "si_halant_1 subtable" si_Dda si_Halant
EndChar

StartChar: si_DdI
Encoding: 222 -1 144
GlifName: si_D_dI_
Width: 870
VWidth: -14
Flags: HMW
LayerCount: 2
Back
Refer: 29 3497 N 1 0 0 1 0 0 2
Fore
SplineSet
33.33984375 238 m 1
 48.794921875 323 l 1
 126.702323901 338.217472957 317.206701692 349.087364784 426 348 c 1
 369.213867188 333 l 1
 217.993028962 323.825655955 91.0001323712 261.640551297 45.8154296875 228 c 1
 33.33984375 238 l 1
818 374 m 1
 821.218149038 176.134765625 754.666666667 -27 578 -27 c 0
 453.69140625 -27 417.12029928 48.9243697479 415 112 c 1
 413.115145596 110.444335938 437.933327414 115.541992188 436 114 c 1
 434.48980666 55.5909352022 382.802734375 -25 267 -25 c 0
 145.274414062 -25 92 47 92 140 c 0
 92 271.557939914 267.436446736 334.798984092 362 343 c 0
 370.958984375 343.853515625 385 343 393 342 c 1
 392 408 345 452 296 452 c 0
 234 452 212 395 212 384 c 1
 161 378 133 403 133 438 c 0
 133 494 187 527 245 527 c 0
 381 527 443 424 443 332 c 0
 443 319 442 307 440 295 c 1
 420 279 l 1
 382.179487179 283 341.333333333 285 302 285 c 0
 231.624434389 285 151 243.494100765 151 168 c 0
 151 111.344726562 195.997064111 91.8902559127 249 91 c 0
 339.991210938 89.4716796875 401.901367188 141 421 219 c 1
 446 225 l 1
 439.817382812 143.0625 495.871093848 86.0156185404 561 87 c 0
 702.212951031 89.0703125 761 266.258789062 761 377 c 1
 759.047792969 504.00996464 670.10501218 582.45414026 543 590 c 0
 465 595 402.00514181 569.651222579 346 569 c 0
 260 568 234.539697739 632.960541654 238 684 c 0
 246 802 374.007539986 884.464685669 535 887 c 0
 678.637554585 889.094117647 795.787577149 811.603761609 794 709 c 0
 793 647 730 573 631 589 c 1
 628 641 l 1
 682 626 749.622130815 655.974989869 751 698 c 0
 753.176211454 757.859813084 634.572687225 803 504 803 c 0
 387.558823529 803 294.404976027 764.988274635 290 708 c 0
 288 678 304.914184678 647.695786433 367 655 c 0
 401 659 452.015891309 669.350303076 522 666 c 0
 704.119262491 657.755231203 812.205232689 554.495056573 818 374 c 1
EndSplineSet
Ligature2: "si_abvs_1 subtable" si_Dda si_MatraI
EndChar

StartChar: si_DdIi
Encoding: 223 -1 145
GlifName: si_D_dI_i
Width: 904
VWidth: -14
Flags: HMW
LayerCount: 2
Back
Refer: 29 3497 N 1 0 0 1 0 0 2
Fore
SplineSet
111 131 m 0
 111 265 235 341 341 342 c 1
 332 310 l 1
 246 310 182 242 182 166 c 0
 182 106 226 61 304 61 c 0
 375 61 436 101 436 195 c 1
 443 195 468 196 475 196 c 1
 475 101 537 61 611 61 c 0
 698 61 759 154 759 322 c 5
 822 322 l 5
 822 159 789 -42 601 -42 c 4
 532 -42 477 -11 457 51 c 1
 433 -17 362 -41 301 -41 c 0
 203 -41 111 10 111 131 c 0
31 285 m 1
 31 348 l 1
 443 345 l 1
 438 303 l 1
 135 303 l 1
 31 285 l 1
165 435 m 0
 165 502 237 527 290 527 c 0
 380 527 451 472 451 372 c 0
 451 338 444 322 438 303 c 1
 405 325 l 1
 407 336 408 346 408 356 c 0
 408 420 362 461 288 461 c 0
 282 461 276 461 269 460 c 1
 219 378 l 1
 189 381 165 398 165 435 c 0
EndSplineSet
Refer: 329 -1 N 1 0 0 1 141 0 2
Ligature2: "si_abvs_2 subtable" si_Dda si_MatraIi
EndChar

StartChar: si_DdU
Encoding: 224 -1 146
GlifName: si_D_dU_
Width: 877
VWidth: -14
Flags: HMW
LayerCount: 2
Back
SplineSet
257 -115 m 17xf7
 283.772460938 -160 l 1
 283.76953125 -152.99609375 217.1875 -191.887695312 217.190429688 -226 c 0
 217.194335938 -272.552734375 241.30078125 -285.247070312 293 -285.247070312 c 1
 680 -287 l 9
 680 89 l 25
 737 149 l 25
 743 -367 l 17
 743 -367 397.004882812 -369.6796875 221 -370.586914062 c 0
 141 -371 99.755859375 -321.6015625 99 -271 c 0
 97.37109375 -161.938476562 257 -115 257 -115 c 17xf7
EndSplineSet
Refer: 29 3497 N 1 0 0 1 -40 0 2
Fore
SplineSet
105 -242 m 4
 106 -192 146.994140625 -124 227 -124 c 4
 273 -124 312 -154 312 -154 c 5
 307 -179 l 5
 226 -159 176 -201 176 -238 c 4
 176 -273 200 -300 251 -298 c 5
 714 -266 l 5
 757 159 l 5
 794 159 l 5
 773 -359 l 5
 270 -359 l 6
 138 -359 103.900039203 -296.998039848 105 -242 c 4
EndSplineSet
Refer: 29 3497 N 1 0 0 1 -19 0 2
LCarets2: 1 0
Ligature2: "si_blws_1 subtable" si_Dda si_MatraU
EndChar

StartChar: si_DdUu
Encoding: 225 -1 147
GlifName: si_D_dU_u
Width: 904
VWidth: -14
Flags: HMW
LayerCount: 2
Back
Refer: 29 3497 N 1 0 0 1 0 0 2
Fore
SplineSet
99 -258 m 4
 101 -178 174 -114 234 -106 c 5
 257 -151 l 5
 209 -165 188 -198 187 -222 c 4
 185 -262 214 -280 263 -279 c 4
 337 -277 447 -230 518 -226 c 4
 581 -222 690 -239 732 -268 c 9
 764 209 l 25
 831 209 l 25
 788 -369 l 17
 719 -337 615 -296 508 -299 c 4
 443 -301 321 -364 226 -364 c 4
 126 -364 98 -309 99 -258 c 4
EndSplineSet
Refer: 29 3497 N 1 0 0 1 0 0 2
LCarets2: 1 0
Ligature2: "si_blws_3 subtable" si_Dda si_MatraUu
EndChar

StartChar: si_NnI
Encoding: 237 -1 158
GlifName: si_N_nI_
Width: 1282
VWidth: 0
Flags: HMW
LayerCount: 2
Back
Refer: 30 3499 N 1 0 0 1 0 0 2
Fore
SplineSet
204 654 m 0
 204.827251652 797.507427793 318.626349721 875 440 875 c 0
 585.568359375 875 618.502250473 773.254872719 617 729 c 0
 615.127929688 673.850585938 589.169921875 690.15625 577 672 c 1
 542 651 l 1
 574.392578125 680.11328125 587.000021832 709.483420605 555 741 c 0
 530.759765625 764.874023438 457.502934465 783.30457868 405 781 c 0
 333.813171386 777.666992188 255 737.735351562 255 647 c 0
 255 573 337.6640625 550 375 550 c 0
 405 550 395 552 403 553 c 1
 393 523 l 1
 376 512.333007812 362.953126416 506.933934914 347 507 c 0
 268.708984375 507.347884352 203.506446039 561.877705093 204 654 c 0
EndSplineSet
Refer: 30 3499 S 1 0 0 1 33 4 2
Ligature2: "si_abvs_1 subtable" si_Nna si_MatraI
EndChar

StartChar: si_TI
Encoding: 248 -1 164
GlifName: si_T_I_
Width: 1071
VWidth: -24
Flags: HMW
LayerCount: 2
Back
Refer: 334 -1 N 1 0 0 1 630 0 2
Refer: 8 3501 N 1 0 0 1 0 0 2
Fore
SplineSet
735.0703125 757 m 0
 605.530273438 738.874023438 450.5 634.830078125 467.419921875 462 c 1
 402.389648438 454 l 1
 457.650390625 670 607.3203125 855 797.309570312 856 c 0
 926.118164062 856.677734375 1014.49414062 778.07421875 1016.61035156 680 c 0
 1018.25 604 981.110351562 527 849.41015625 526 c 1
 813.700195312 566 l 1
 885.969726562 547 948.110351562 593 948.110351562 657 c 0
 948.110351562 729 842.26953125 772 735.0703125 757 c 0
EndSplineSet
Refer: 8 3501 S 1 0 0 1 -11 0 2
LCarets2: 1 0
Ligature2: "si_abvs_1 subtable" si_Ta si_MatraI
EndChar

StartChar: si_TIi
Encoding: 249 -1 165
GlifName: si_T_I_i
Width: 1071
VWidth: -24
Flags: HMW
LayerCount: 2
Back
SplineSet
317 427 m 1x2d80
 319.586914062 689.754882812 480.518547864 816.205147793 652 833 c 0
 786.000976562 846.124023438 920.791692129 777.673684576 916 642 c 0
 913.940185547 583.67767693 881.333333333 492 786 492 c 1
 676.076686501 492.000002228 633.558376437 552.792051998 636 619 c 0
 637.942019745 679.022037163 687.117908899 724.326048316 740 743 c 1
 760.968082501 734.068306627 781.218291421 724.317699544 800 714 c 1
 754 714 716.37918509 680.631318228 712 629 c 0
 710.627174559 594.718865376 732.490804277 555 775 555 c 0
 806.914762406 555 825.445623509 579.684590917 825 608 c 0
 823.291521193 716.558627094 717.885723905 746.201365225 610 736 c 0
 485.984375 724.2734375 365.77734375 641.188476562 364 427 c 1
 317 427 l 1x2d80
EndSplineSet
Refer: 8 3501 N 1 0 0 1 0 0 2
Fore
Refer: 335 -1 N 1 0 0 1 385 6 2
Refer: 8 3501 S 1 0 0 1 0 0 2
LCarets2: 1 0
Ligature2: "si_abvs_2 subtable" si_Ta si_MatraIi
EndChar

StartChar: si_TU
Encoding: 250 -1 166
GlifName: si_T_U_
Width: 1105
VWidth: -24
Flags: HMW
LayerCount: 2
Back
SplineSet
758 8 m 13
 788 -22 l 21
 775 -40 735.653320312 -70.2509765625 742 -124 c 4
 747.765148819 -172.824130769 798 -203 867 -202 c 4
 929.642578125 -201.091796875 975 -174 1010 -139 c 13
 1054 -228 l 4
 1001 -278 921.443359375 -295.733398438 857 -294 c 4
 765.02734375 -291.526367188 683.208984375 -256.041015625 683 -140 c 4
 682.877929688 -71.982421875 733.476258379 -13.4625335028 758 8 c 13
278 378 m 1
 290 401 293.788085938 421.989257812 293 440 c 0
 290.88671875 488.322265625 241.939453125 510.5859375 200 501 c 0
 168.6171875 493.826171875 143.75 469.586914062 140 425 c 1
 180 370 l 1
 166 346 142.997070312 333.926757812 121 335 c 0
 80 337 56 368 56 414 c 0
 56 494 122.979492188 562.083984375 220 558 c 0
 303.716796875 554.475585938 353.256835938 480.104492188 326 417 c 0
 310.53515625 381.197265625 326 405 313 388 c 1
 278 378 l 1
758 8 m 0
 781.990234375 8.53125 802.926757812 13.7314453125 821 22.541015625 c 1
 906.891601562 64.4072265625 928.108269354 187.794867069 905 279 c 0
 872.266601562 408.19140625 734.73046875 467.030273438 595 462 c 0
 503.25390625 458.697265625 432 431.771484375 345 374 c 1
 328 362 339 367 325 355 c 1
 228 276 176 211 76 79 c 1
 76 79 41.1279296875 98.5439453125 47 107 c 0
 147 251 207 322 305 413 c 1
 312 419 321 420 328 425 c 1
 420 505 533.100585938 555.721679688 642 561 c 0
 837.309570312 570.465820312 990.44140625 449.986328125 1005 282 c 0
 1016.22873366 152.436080151 954.948242188 30.9873046875 851.549804688 -19 c 1
 819.727539062 -34.384765625 783.916015625 -43 745 -43 c 0
 758 8 l 0
106 142 m 1
 121.827148438 148.801757812 135.977539062 157.05859375 149 157.575195312 c 0
 235.53125 161.009765625 244.237304688 64.6337890625 412 62 c 0
 543.998046875 59.927734375 621.387695312 124.006835938 620 205 c 0
 617.891601562 328.076171875 483.087890625 345.88671875 432 346 c 0
 350.086914062 346.181640625 292 328 259 310 c 1
 296 362 l 1
 309 366 372.00390625 395.240234375 444 394 c 0
 544.004882812 392.27734375 679 345 679 195 c 0
 679 89.8291015625 610 -44 412 -44 c 0
 282.072265625 -44 203.453125 7.7138671875 187 67.9970703125 c 0
 171.305664062 125.500976562 129.395507812 127.443359375 84 104 c 1
 106 142 l 1
EndSplineSet
Fore
SplineSet
82.015625 421 m 0
 86.732421875 511 181.19140625 577 279.19140625 577 c 0
 342.19140625 577 386.880859375 552 383.7890625 493 c 0
 381.220703125 444 330.081054688 385 304.770507812 360 c 1
 269.084960938 336 l 1
 293.604492188 365 303.333984375 398 305.377929688 437 c 0
 307.946289062 486 295.780273438 531 249.780273438 531 c 0
 202.780273438 531 175.631835938 490 173.220703125 444 c 0
 171.333984375 408 186.709960938 377 197.081054688 365 c 1
 183.713867188 358 161.50390625 354 145.50390625 354 c 0
 103.50390625 354 79.6044921875 375 82.015625 421 c 0
76.7646484375 100 m 1
 154.953125 199 252.786132812 323.701171875 341.333984375 408 c 0
 436.748046875 498.834960938 582.453125 582 719.453125 582 c 0
 893.453125 582 1033.83105469 466.001953125 1020.8359375 273 c 0
 1011.81347656 139 927.008789062 -28 718.588867188 -36 c 1
 751.725585938 64 l 0
 860.725585938 64 946.2890625 119 952.525390625 238 c 0
 960.01953125 381 830.404296875 475 691.369140625 475 c 0
 525.732421875 475 445.815429688 422.53125 357.818359375 360 c 0
 343.635742188 349.921875 312.827148438 322 300.09375 308 c 1
 324.194335938 329 360.2421875 349 380.923828125 362 c 1
 410.971679688 382 469.125 404 512.125 404 c 0
 618.125 404 680.141601562 348 674.953125 249 c 0
 669.135742188 138 594.255859375 -20.9541015625 406.956054688 -19 c 0
 301.688476562 -17.9013671875 244.262695312 12.6806640625 205.891601562 45.1669921875 c 0
 176.5390625 70.017578125 160.678710938 121.51953125 112.716796875 80 c 0
 125.131835938 107 l 0
 158.205078125 132.293945312 182.935546875 138.731445312 222.4296875 112.692382812 c 0
 244.693359375 98.0146484375 331.5 80.5625 406.830078125 81 c 0
 512.33984375 81.61328125 629.716796875 140 635.638671875 243 c 0
 638.857421875 298.984375 575.698242188 325 481.984375 325 c 0
 390.555664062 325 304.497070312 280.845703125 240.534179688 221 c 0
 199.176757812 182.305664062 129.135742188 118 102.7734375 42 c 1
 101.877929688 44 62.2978515625 62 76.7646484375 100 c 1
EndSplineSet
Refer: 336 -1 S 1 0 0 1 749 56 2
LCarets2: 1 0
Ligature2: "si_blws_1 subtable" si_Ta si_MatraU
EndChar

StartChar: si_TRa
Encoding: 254 -1 170
GlifName: si_T_R_a
Width: 1071
VWidth: -24
Flags: HMW
LayerCount: 2
Back
Refer: 8 3501 N 1 0 0 1 0 0 2
Fore
SplineSet
224 -159 m 9
 253 -138 l 25
 253 -138 352 -230 579 -220 c 0
 859.998221441 -207.841796875 957.74611399 -3 972 211 c 9
 1020 249 l 25
 1000.76429982 -31.8057994982 867.861137012 -300.938537152 553 -309 c 0
 355 -314 229 -185 224 -159 c 9
EndSplineSet
Refer: 8 3501 N 1 0 0 1 0 0 2
LCarets2: 1 0
Ligature2: "si_rakaar subtable" si_Ta si_Halant zwj si_Ra
EndChar

StartChar: si_TRI
Encoding: 255 -1 171
GlifName: si_T_R_I_
Width: 1071
VWidth: -24
Flags: HMW
LayerCount: 2
Back
Refer: 8 3501 N 1 0 0 1 0 0 2
Fore
SplineSet
753.0703125 750 m 4
 622.26953125 749.50390625 455.5 694.830078125 442.419921875 442 c 5
 369.389648438 406 l 5
 384.650390625 602 562.3203125 846 792.309570312 846 c 4
 911.120117188 846 981.969726562 767 977.610351562 669 c 4
 973.25 599 923.110351562 498 781.41015625 493 c 5
 760.700195312 548 l 5
 872.969726562 529 923.110351562 592 923.110351562 639 c 4
 923.110351562 711 840.26953125 750 753.0703125 750 c 4
EndSplineSet
Refer: 170 -1 N 1 0 0 1 16 0 2
LCarets2: 1 0
Ligature2: "si_abvs_3 subtable" si_TRa si_MatraI
EndChar

StartChar: si_D.halant
Encoding: 263 -1 173
GlifName: si_D_.halant
Width: 633
VWidth: -17
Flags: HMW
LayerCount: 2
Back
Refer: 47 3530 N 1 0 0 1 470 -40 2
Refer: 32 3503 S 1 0 0 1 0 0 2
Fore
SplineSet
435 831 m 2
 435 793.549804688 467.0234375 767.104492188 508 760 c 0
 535 754 561.030273438 765.000976562 560 799 c 0
 558 851.10546875 480 868.473632812 435 874 c 1
 435 831 l 2
376 548 m 1
 385 935 l 1
 415 958 l 1
 445.657226562 951.818359375 580.28515625 915.518554688 600 807 c 0
 610.215820312 743.317382812 589.764648438 693.104492188 526 691 c 4
 485.013914398 689.647292833 446 715.915039062 435 740 c 1
 435 558 l 1
 376 548 l 1
EndSplineSet
Refer: 32 3503 N 1 0 0 1 0 0 2
LCarets2: 1 0
Ligature2: "si_halant_1 subtable" si_Da si_Halant
EndChar

StartChar: si_DI
Encoding: 267 -1 174
GlifName: si_D_I_
Width: 568
Flags: HMW
LayerCount: 2
Back
SplineSet
207 451 m 17
 144 471 106.650390625 537.995117188 106 605 c 0
 105 708 213 812 354 810 c 0
 458 809 555.903320312 734.702148438 558 629 c 0
 559.311523438 562.887695312 513 513 478 499 c 9
 459 524 l 17
 482 544 498.944335938 563.61328125 497 605 c 4
 492.84375 693.477539062 390 711.96875 322 713 c 4
 227.005859375 714.44140625 168 656 169 591 c 0
 169.831054688 537.006835938 201 496 224 486 c 9
 207 451 l 17
EndSplineSet
Refer: 32 3503 N 1 0 0 1 0 0 2
Fore
Refer: 32 3503 N 1 0 0 1 0 0 2
LCarets2: 1 0
Ligature2: "si_abvs_1 subtable" si_Da si_MatraI
Ligature2: "'abvs' Above Base Substitutions in Sinhala lookup 0-1" si_Da si_MatraI
EndChar

StartChar: si_DU
Encoding: 269 -1 176
GlifName: si_D_U_
Width: 581
Flags: HMW
LayerCount: 2
Back
SplineSet
233 -117 m 1
 249.772460938 -152 l 1
 249.76953125 -143.934570312 183.1875 -188.71875 183.190429688 -228 c 0
 183.1953125 -274.552734375 210.481445312 -288 269 -288 c 1
 516 -288 l 1
 516 40 l 5
 563 40 l 5
 569 -369 l 1
 569 -369 408.048828125 -371.4765625 197 -372.586914062 c 0
 117 -373 75.755859375 -323.6015625 75 -273 c 0
 73.37109375 -163.938476562 233 -117 233 -117 c 1
152 199 m 0
 139.301757812 59.7265625 303.229492188 -21.3037109375 549 67 c 5
 563 40 l 5
 539 36 l 5
 551 38.3330078125 529 25.6669921875 493 12 c 5
 273.506835938 -100.266601562 38.8994140625 -4.337890625 41 165 c 0
 42.919921875 319.76171875 205.887695312 393.12109375 397 394 c 0
 456.002929688 394.271484375 499 385 499 385 c 1
 499 387.5 488.354492188 375.5 488 378 c 1
 491.599609375 475 373 506 318 498 c 1
 262 409 l 1
 216 412 195.556640625 452.114257812 205 488 c 0
 220 545 273 571 336 571 c 0
 408 571 506 528 520 444 c 0
 529.095703125 389.426757812 513 345 513 345 c 1
 513 343 l 1
 273.458007812 364.4921875 162.536132812 306.422851562 152 199 c 0
EndSplineSet
Fore
SplineSet
23 -202 m 4
 24 -152 64.994140625 -84 145 -84 c 4
 191 -84 230 -114 230 -114 c 5
 225 -139 l 5
 144 -119 94 -161 94 -198 c 4
 94 -233 118 -260 169 -258 c 5
 472 -226 l 1
 495 109 l 1
 532 109 l 1
 531 -319 l 1
 188 -319 l 6
 56 -319 21.900390625 -256.998046875 23 -202 c 4
38.6513671875 166 m 0
 41.8837890625 304 168.282226562 407 361.6484375 414 c 0
 404.701171875 415 432.543945312 412 451.38671875 409 c 1
 456.317382812 484 433.030273438 556.216796875 357.828125 551 c 0
 286.374023438 546.04296875 261.526367188 488 248.330078125 427 c 1
 216.015625 421 171.854492188 437 173.317382812 484 c 0
 174.619140625 547 235.124023438 589.149414062 312.239257812 597 c 0
 490.98046875 615.196289062 543.635742188 471 517.609375 356 c 1
 499.141601562 328 l 1
 499.141601562 328 l 2
 499.141601562 328 l 1
 466.403320312 333 401.61328125 337 373.61328125 337 c 0
 183.61328125 337 100.154296875 271 88.9052734375 209 c 0
 73.8198467143 122 176.055928511 50 293.572265625 50 c 0
 384.602296543 50 448.23291332 78 495.188476562 109 c 1
 496.987304688 67 523.733398438 34 513.423828125 9 c 1
 481.427734375 -10 426.541015625 -46 291.541015625 -46 c 0
 149.541015625 -46 36.310546875 45 38.6513671875 166 c 0
EndSplineSet
LCarets2: 1 0
Ligature2: "si_blws_1 subtable" si_Da si_MatraU
EndChar

StartChar: si_NI
Encoding: 295 -1 186
GlifName: si_N_I_
Width: 1066
VWidth: -24
Flags: HMW
LayerCount: 2
Back
Refer: 334 -1 N 1 0 0 1 669 -2 2
Refer: 9 3505 N 1 0 0 1 0 0 2
Fore
SplineSet
762.0703125 770 m 4
 632.530436364 751.873952397 522.5 654.830078125 539.419921875 482 c 5
 446.389648438 456 l 5
 501.650390625 672 631.3203125 868 821.309570312 869 c 4
 950.117992363 869.677977395 1038.49446923 791.074107406 1040.61035156 693 c 4
 1042.25 617 1005.11035156 532 863.41015625 531 c 5
 837.700195312 581 l 5
 909.969726562 562 972.110351562 606 972.110351562 670 c 4
 972.110351562 742 869.26953125 785 762.0703125 770 c 4
EndSplineSet
Refer: 9 3505 N 1 0 0 1 10 0 2
LCarets2: 1 0
Ligature2: "si_abvs_1 subtable" si_Na si_MatraI
EndChar

StartChar: si_NU
Encoding: 297 -1 188
GlifName: si_N_U_
Width: 1072
VWidth: -24
Flags: HMW
LayerCount: 2
Back
SplineSet
302 -117 m 5
 318.772460938 -152 l 5
 318.76953125 -143.934570312 252.1875 -188.71875 252.190429688 -228 c 4
 252.1953125 -274.552734375 279.481445312 -288 338 -288 c 5
 915 -288 l 5
 915 127 l 5
 962 127 l 5
 968 -369 l 5
 968 -369 477.048828125 -371.4765625 266 -372.586914062 c 4
 186 -373 144.755859375 -323.6015625 144 -273 c 4
 142.37109375 -163.938476562 302 -117 302 -117 c 5
EndSplineSet
Refer: 9 3505 N 1 0 0 1 0 0 2
Fore
SplineSet
192 -206 m 4
 193 -136 243.994140625 -89 324 -89 c 4
 380 -89 409 -119 409 -119 c 5
 404 -144 l 5
 323 -124 273 -166 273 -203 c 4
 273 -238 297 -265 348 -263 c 5
 554.409555288 -261.931640625 711.350837427 -243.348632812 936 -223 c 5
 970 223 l 1
 1007 223 l 1
 990 -317 l 5
 367 -324 l 6
 235 -324 191.213867188 -261.00390625 192 -206 c 4
EndSplineSet
Refer: 9 3505 N 1 0 0 1 0 0 2
LCarets2: 1 0
Ligature2: "si_blws_1 subtable" si_Na si_MatraU
EndChar

StartChar: si_PI
Encoding: 311 -1 196
GlifName: si_P_I_
Width: 772
VWidth: -24
Flags: HMW
LayerCount: 2
Back
Refer: 330 -1 N 1 0 0 1 -70 0 2
Refer: 1 3508 N 1 0 0 1 0 0 2
Fore
SplineSet
155 663 m 0
 159 759 259 859 440 860 c 0
 619 860.989257812 725 777 723 654 c 4
 721.926757812 587.978515625 674 546 579 542 c 9
 559 577 l 17
 623 588 685.5078125 646.475585938 670 693 c 0
 644 771 483 769 405 765 c 0
 339.893554688 761.661132812 205.40234375 723.98046875 202 658 c 0
 198.1640625 583.606445312 265 593 307 573 c 9
 280 526 l 17
 208 526 152.251953125 597.057617188 155 663 c 0
EndSplineSet
Refer: 1 3508 N 1 0 0 1 -8 0 2
LCarets2: 1 0
Ligature2: "si_abvs_1 subtable" si_Pa si_MatraI
EndChar

StartChar: si_PRa
Encoding: 317 -1 202
GlifName: si_P_R_a
Width: 805
VWidth: -24
Flags: HMW
LayerCount: 2
Back
Refer: 1 3508 N 1 0 0 1 0 0 2
Fore
SplineSet
37 -109 m 13
 66 -88 l 29
 66 -88 179.850585938 -227.711914062 392 -223 c 0
 683.59375 -216.017578125 710.662109375 78.154296875 726 232 c 9
 756 250 l 17
 741.991210938 14.3974609375 734.564453125 -330.268554688 346 -319 c 0
 140.166992188 -313.03125 41.5146484375 -135 37 -109 c 13
EndSplineSet
Refer: 1 3508 N 1 0 0 1 20 0 2
LCarets2: 3 0 0 0
Ligature2: "si_rakaar subtable" si_Pa si_Halant zwj si_Ra
EndChar

StartChar: si_BI
Encoding: 327 -1 205
GlifName: si_B_I_
Width: 848
Flags: HMW
LayerCount: 2
Back
Refer: 36 3510 N 1 0 0 1 0 0 2
Fore
SplineSet
181 89 m 0
 180 61.75 191.997070312 37.8330078125 227 39 c 0
 257 40 272.181632863 71.9938844846 273 99 c 0
 274 132 252 144 228 144 c 0
 202 144 182.119140625 119.504882812 181 89 c 0
770 315 m 1
 771.918945312 109.408203125 688.299804688 -29.728515625 529 -32 c 0
 391 -33.888671875 349.663440931 63.361959842 351 137 c 0
 353 247.19047619 414 302.285714286 471 315 c 1
 472.364963504 339.8 398.659897478 376.292859209 284 377 c 0
 175.945205479 377.762295082 76.3846504175 317.53570928 80 191 c 0
 82.641025641 98.565217391 148.306640625 44.3046875 183 37 c 1
 157 32 l 1
 120.590909091 98.24137931 150.548594849 187.46691112 236 187 c 0
 286.04296875 186.7265625 327.889648438 141.002929688 326 85 c 0
 323.643554688 15.15234375 283 -38 207 -38 c 0
 79 -38 34.7640718858 70.0023978366 36 180 c 0
 38 358 150.00394127 479.725251012 299 482 c 0
 436.517412935 484 512.099502488 391 510 291 c 1
 465 288 410.501750489 250.030341807 406 172 c 0
 403 120 439.001953125 83.4794921875 521 84 c 0
 656.609375 84.9052734375 721.833007812 206.146484375 720 323 c 1
 718.900390625 463.333007812 581.240234375 571.354492188 457 579 c 0
 379 584 316 560 260 559 c 0
 174 558 148 633 152 684 c 0
 160 802 288 885 449 887 c 0
 576 889 679 815 678 717 c 0
 677 655 614 581 515 597 c 1
 512 649 l 1
 566 634 633 664 635 706 c 0
 637 767 528 798 408 798 c 0
 297 798 208 761 204 708 c 0
 201.737304688 678.018554688 219 647 281 655 c 0
 315 659 366 669 436 666 c 0
 618.07421875 657.283203125 777.360351562 516.640625 770 315 c 1
EndSplineSet
Ligature2: "si_abvs_1 subtable" si_Ba si_MatraI
EndChar

StartChar: si_M.halant
Encoding: 346 -1 224
GlifName: si_M_.halant
Width: 838
VWidth: -14
Flags: HMW
LayerCount: 2
Back
Refer: 38 3512 N 1 0 0 1 0 0 2
Fore
SplineSet
197.220703125 844 m 0
 197.220703125 844 277.416992188 904 410.27734375 902 c 0
 788.997070312 898 789.634765625 521 779.28515625 373 c 13
 764.985351562 383 l 5
 764.985351562 383 786.381835938 832 403.081054688 842 c 0
 365.151367188 843 344.081054688 842 344.081054688 842 c 17
 357.620117188 864 l 1
 340.14453125 800 322.788085938 752 217.920898438 711 c 9
 209.340820312 717 l 17
 301.095703125 785 306.291015625 845 315.0390625 870 c 1
 324.94140625 840 l 1
 266.892578125 825 246.123046875 814 197.655273438 793 c 1
 190.14453125 800 189.403320312 818 197.220703125 844 c 0
47.673828125 310 m 0
 54.9404296875 448.647460938 131.442382812 516.897460938 194.469726562 516 c 1
 324.376953125 498.244140625 218.321289062 283.895507812 415.416015625 286 c 0
 491.517578125 286.8125 563.446289062 341.028320312 567.333984375 418 c 0
 571.146484375 493.469726562 521.94140625 539.998046875 448.67578125 539 c 0
 395.666015625 538.27734375 364.206054688 510.953125 362.426757812 477 c 0
 361.326171875 456 379.32421875 434.826171875 416.225585938 435 c 0
 443.7109375 435.12890625 493.564453125 449.784179688 500.409179688 553 c 1
 518.19921875 549 l 1
 552.735351562 442.823242188 494.849609375 373 414.975585938 373 c 0
 343.37109375 373 314.322265625 417.764648438 316.90234375 467 c 0
 320.168945312 529.32421875 371.893554688 581 452.876953125 581 c 0
 539.185546875 581 621.872070312 511.595703125 615.8671875 390 c 0
 610.904296875 289.532226562 524.563476562 204.31640625 423.170898438 205 c 0
 169.603515625 206.709960938 262.3359375 454.814453125 163.326171875 456 c 1
 136.416015625 441.782226562 99.3076171875 400.697265625 95.5654296875 327 c 0
 88.5908203125 185.495117188 209.444335938 94.041015625 376.458984375 89 c 0
 589.388671875 83.029296875 732.435546875 225.862304688 741.862304688 397 c 0
 752.323242188 593.559570312 581.958007812 679 392.427734375 679 c 0
 295.100585938 679 218.728515625 636.282226562 192 620 c 1
 182.122070312 624 l 0
 179.2421875 655.084960938 187.99609375 686.9296875 207.047851562 716 c 1
 245.00390625 733.013671875 314.467773438 755 393.934570312 755 c 0
 639.513671875 755 815.034179688 619.26171875 798.028320312 362 c 0
 784.758789062 162.88671875 640.6015625 -20 398.903320312 -20 c 0
 150.677734375 -20 38.8212890625 135.7890625 47.673828125 310 c 0
EndSplineSet
LCarets2: 1 0
Ligature2: "si_halant_1 subtable" si_Ma si_Halant
EndChar

StartChar: si_MI
Encoding: 347 -1 225
GlifName: si_M_I_
Width: 858
Flags: HMW
LayerCount: 2
Back
Refer: 38 3512 N 1 0 0 1 0 0 2
Fore
SplineSet
711 355 m 0
 718.913680305 495.951671377 607.345733243 613.969313837 457 622 c 0
 348.78515625 627.780273438 316.002929688 604.848632812 260 604 c 0
 194 603 161.1328125 642.850585938 162 694 c 0
 164 812 307.995117188 905.479492188 479 907 c 0
 646.006835938 908.485351562 729.580078125 824.9921875 728 727 c 0
 727 665 664 591 565 607 c 1
 562 659 l 1
 616 644 683.622070312 673.974609375 685 716 c 0
 687 777 578 823 418 823 c 0
 307 823 218.19921875 780.987304688 214 718 c 0
 212 688 230 676 271 675 c 0
 305.224609375 674.165039062 375.99609375 698.884765625 466 696 c 0
 640.704101562 690.401367188 772.958431888 542.196743221 768.028320312 368 c 0
 762 155 620.6015625 -20 378.903320312 -20 c 0
 140.677734375 -20 28.8212890625 135.7890625 37.673828125 310 c 0
 44.9404296875 448.647460938 105 497 154.469726562 496 c 0
 278.881891778 493.485084842 198.321289062 263.895507812 395.416015625 266 c 0
 471.517578125 266.8125 543.446289062 321.028320312 547.333984375 398 c 0
 551.146484375 473.469726562 501.94140625 519.998046875 428.67578125 519 c 0
 375.666015625 518.27734375 344.206054688 490.953125 342.426757812 457 c 0
 341.326171875 436 359.32421875 414.826171875 396.225585938 415 c 0
 423.7109375 415.12890625 473.564453125 429.784179688 480.409179688 533 c 1
 498.19921875 529 l 1
 532.735351562 422.823242188 474.849609375 353 394.975585938 353 c 0
 323.37109375 353 294.322265625 397.764648438 296.90234375 447 c 0
 300.168945312 509.32421875 351.893554688 561 432.876953125 561 c 0
 519.185546875 561 601.872070312 491.595703125 595.8671875 370 c 0
 590.904296875 269.532226562 504.563476562 184.31640625 403.170898438 185 c 0
 149.603515625 186.709960938 237.380102422 440.775731764 147.326171875 436 c 0
 118.024130692 434.446056846 96.3076171875 391.697265625 94.5654296875 337 c 4
 90.0551091099 195.395148233 199.444335938 94.041015625 356.458984375 89 c 0
 569.362292437 82.1646574811 702.422628634 202.227233916 711 355 c 0
EndSplineSet
LCarets2: 1 0
Ligature2: "si_abvs_1 subtable" si_Ma si_MatraI
EndChar

StartChar: si_MIi
Encoding: 348 -1 226
GlifName: si_M_I_i
Width: 826
VWidth: -14
Flags: HMW
LayerCount: 2
Back
Refer: 38 3512 N 1 0 0 1 0 0 2
Fore
SplineSet
37 262 m 0
 36 418 111 482 178 482 c 0
 223 482 251 456 252 391 c 0
 253 264 339 250 399 251 c 0
 483 252 527 295 528 358 c 0
 530 426 480 480 404 469 c 0
 370 464 348 437 348 402 c 0
 348 384 360 358 394 358 c 0
 429 358 447 389 447 416 c 0
 447 438 441 457 430 475 c 1
 456 474 l 1
 472 459 482 434 482 410 c 0
 482 360 450 312 390 312 c 0
 348 312 301 337 301 398 c 0
 301 452 344 504 418 504 c 0
 514 504 566 437 566 360 c 0
 566 275 510 187 391 187 c 0
 343 187 294 201 258 235 c 0
 227 263 212 311 210 375 c 0
 209 424 197 444 172 444 c 0
 124 444 93 379 94 287 c 0
 96 138 231 45 397 44 c 0
 620 43 703 180 709 329 c 1
 772 334 l 1
 772 96 626 -58 402 -58 c 0
 173 -58 37 83 37 262 c 0
EndSplineSet
Refer: 329 -1 N 1 0 0 1 93 0 2
LCarets2: 1 0
Ligature2: "si_abvs_2 subtable" si_Ma si_MatraIi
EndChar

StartChar: si_MU
Encoding: 349 -1 227
GlifName: si_M_U_
Width: 826
VWidth: -14
Flags: HMW
LayerCount: 2
Back
Refer: 38 3512 N 1 0 0 1 0 0 2
Fore
SplineSet
94 -242 m 4
 95 -192 136 -125 216 -124 c 4
 262 -124 301 -154 301 -154 c 5
 296 -179 l 5
 215 -159 165 -201 165 -238 c 4
 165 -273 189 -300 240 -298 c 5
 713 -266 l 5
 733 209 l 5
 770 209 l 5
 772 -359 l 5
 259 -359 l 6
 127 -359 93 -297 94 -242 c 4
EndSplineSet
Refer: 38 3512 N 1 0 0 1 0 0 2
LCarets2: 1 0
Ligature2: "si_blws_1 subtable" si_Ma si_MatraU
EndChar

StartChar: si_YI
Encoding: 362 -1 234
GlifName: si_Y_I_
Width: 856
VWidth: -24
Flags: HMW
LayerCount: 2
Back
Refer: 40 3514 N 1 0 0 1 0 0 2
Fore
SplineSet
309 664 m 4
 309.810546875 780.345703125 431.002929688 854.495117188 602 856 c 0
 720.999023438 857.046875 853 799 851 676 c 0
 849.926757812 609.978515625 770 515 675 541 c 9
 645 579 l 17
 729 550 772.884765625 602.995117188 771 652 c 0
 768 730 633.05078125 775.591796875 535 771 c 0
 449.9140625 767.015625 360 752 352 676 c 0
 343 592 570 566 622 586 c 9
 580 532 l 17
 508 512 308.33203125 568.16796875 309 664 c 4
EndSplineSet
Refer: 40 3514 N 1 0 0 1 -40 0 2
Ligature2: "si_abvs_1 subtable" si_Ya si_MatraI
EndChar

StartChar: si_YU
Encoding: 364 -1 236
GlifName: si_Y_U_
Width: 876
VWidth: -24
Flags: HMW
LayerCount: 2
Back
SplineSet
392 -115 m 21xff20
 418.772460938 -160 l 5
 418.76953125 -152.99609375 352.1875 -191.887695312 352.190429688 -226 c 4
 352.194335938 -272.552734375 386.30078125 -285.247070312 428 -285.247070312 c 5
 745 -287 l 13xff20
 745 169 l 29xff40
 802 169 l 29
 808 -367 l 21
 808 -367 532.004882812 -369.6796875 356 -370.586914062 c 4
 276 -371 234.755859375 -321.6015625 234 -271 c 4
 232.37109375 -161.938476562 392 -115 392 -115 c 21xff20
EndSplineSet
Refer: 40 3514 N 1 0 0 1 0 0 2
Fore
SplineSet
82 -253 m 4
 83 -183 133.994140625 -136 214 -136 c 4
 270 -136 299 -166 299 -166 c 5
 294 -191 l 5
 213 -171 163 -213 163 -250 c 4
 163 -285 187 -312 238 -310 c 5
 447.919921875 -308.931640625 542.530273438 -302.348632812 771 -282 c 1
 781 216 l 1
 818 216 l 1
 820 -376 l 1
 257 -371 l 6
 125 -371 81.2138671875 -308.00390625 82 -253 c 4
EndSplineSet
Refer: 40 3514 N 1 0 0 1 0 0 2
LCarets2: 1 0
Ligature2: "si_blws_1 subtable" si_Ya si_MatraU
EndChar

StartChar: si_Ya.post
Encoding: 367 -1 239
GlifName: si_Y_a.post
Width: 713
VWidth: -11
Flags: HMW
LayerCount: 2
Fore
SplineSet
12 20 m 1
 12 20 266.612304688 190.830078125 282 404 c 0
 288.3203125 495.205078125 235.048828125 521 189 521 c 0
 148 521 114 488 104 457 c 1
 60 506 l 1
 61 537 99.00390625 592.78515625 186 594 c 0
 330.887695312 595.899414062 354.997070312 468.755859375 348 406 c 0
 328.638671875 233.81640625 195.888671875 81.5380859375 41 -16 c 1
 12 20 l 1
141 94 m 1
 152 127 l 1
 173.4765625 144.163085938 169.821289062 172.806640625 196 156 c 1
 193.959960938 119.870117188 291.995117188 82 397 82 c 0
 518.483398438 82 611.784179688 140.69921875 611 233 c 4
 610.270507812 318.91015625 530.989257812 373.11328125 369 368 c 1
 372 511 433.938476562 595.30859375 541 599 c 0
 599 601 668.942382812 572.002929688 664 486 c 0
 659 399 561 381 561 381 c 1
 554 402 l 1
 554 402 585.635742188 426.954101562 588 464 c 0
 591 511 555.998046875 543.071289062 511 542 c 0
 427 540 419 437 419 437 c 1
 538.174804688 448 667.3203125 375.997070312 666 219 c 0
 664.977539062 100.102539062 580.588867188 -13.462890625 416 -14 c 0
 271.38671875 -14.4921875 185.802734375 52.5107421875 165 69 c 0
 155.850585938 76.3994140625 147.286132812 80.4287109375 141 94 c 1
EndSplineSet
LCarets2: 2 0 0
Ligature2: "si_yansaya subtable" si_Halant zwj si_Ya
EndChar

StartChar: si_R.halant
Encoding: 374 -1 246
GlifName: si_R_.halant
Width: 695
VWidth: -5
Flags: HMW
LayerCount: 2
Back
Refer: 47 3530 N 1 0 0 1 189 -15 2
Refer: 4 3515 N 1 0 0 1 0 0 2
Fore
SplineSet
169 864.661132812 m 2
 170 816.661132812 201 782.661132812 242 773.661132812 c 0
 269 767.661132812 295 778.661132812 294 812.661132812 c 0
 292 878.661132812 214 900.661132812 169 907.661132812 c 1
 169 864.661132812 l 2
116 431.661132812 m 1
 125 968.661132812 l 1
 149 991.661132812 l 1
 178 984.661132812 306 953.661132812 324 830.661132812 c 0
 333 771.661132812 315 715.661132812 250 714.661132812 c 0
 209 713.661132812 180 744.661132812 169 773.661132812 c 1
 159 461.661132812 l 1
 116 431.661132812 l 1
EndSplineSet
Refer: 4 3515 N 1 0 0 1 0 0 2
LCarets2: 1 0
Ligature2: "si_halant_1 subtable" si_Ra si_Halant
EndChar

StartChar: si_RAe
Encoding: 375 -1 247
GlifName: si_R_A_e
Width: 1039
VWidth: -5
Flags: HMW
LayerCount: 2
Back
SplineSet
686 286 m 0x40
 673.03149213 197.912101269 683.9552585 23.4596878133 851 13 c 0
 925.485704848 8.33599673795 962.101694915 38.7880859375 989 59 c 1
 1010 37 l 1
 993.342145647 -6.75 912.446649603 -65.0229953974 822 -63 c 0
 630.048097803 -58.706664466 595.259201143 73.8189539074 611 230 c 0
 633.347946036 451.737512925 768.240645813 647.688455021 821.163085938 712 c 1x40
 764.849913129 709.587890625 655.975856126 706.22265625 586 703.856445312 c 1
 637 779.116210938 l 1x80
 660.844270833 779.107421875 857.060351562 778.998046875 892 779 c 1
 892 723 l 1
 804.762510102 649.886284722 704.792626773 413.647916063 686 286 c 0x40
EndSplineSet
Refer: 4 3515 N 1 0 0 1 0 0 2
Fore
SplineSet
638 332 m 0
 634 572 798 731 867 735 c 1
 584 685 l 1
 584 705 623 749 626 775 c 1
 649 775 887 775 923 775 c 1
 934 675 l 1
 922 663 l 1
 817 655 682 500 681 235 c 0
 680.66796875 146.995117188 734 31 846 31 c 0
 893 31 963 61 982 88 c 1
 997 32 l 1
 978 -1 910 -68 821 -68 c 0
 676.571197951 -68 613.669971175 43.1378698135 606 146 c 1
 605.066871844 158.514199561 638.189812905 320.611225716 638 332 c 0
EndSplineSet
Refer: 4 3515 S 1 0 0 1 0 0 2
LCarets2: 1 0
Ligature2: "si_raer subtable" si_Ra si_MatraAe
EndChar

StartChar: si_RI
Encoding: 377 -1 249
GlifName: si_R_I_
Width: 719
VWidth: -5
Flags: HMW
LayerCount: 2
Back
SplineSet
643 795 m 1
 643 717.080078125 566.435546875 670.377929688 458 604 c 0
 330 526 125 415 125 245 c 0
 125 138 214 48 360 48 c 0
 508.439453125 48 582.853515625 153 586 252 c 0
 590.389648438 389.393554688 492.021484375 476 367 476 c 0
 208.249023438 476 137 339 137 339 c 1
 165 428 l 0
 164 431 253.985351562 531.200195312 386 532 c 0
 536.497070312 532.912109375 668.461914062 424.852539062 665 245 c 0
 661.881835938 83.00390625 550.1171875 -52 356 -52 c 0
 153 -52 47.3369140625 93.9853515625 55 252 c 0
 67.9033203125 518.061523438 446 614 544 746 c 1
 584 834 l 1
 626.75390625 835.307617188 643 821.384765625 643 795 c 1
263 493 m 17
 162.110351562 451.639648438 106.826491728 577.491101825 179 703 c 0
 232.83203125 796.61328125 347.963867188 867.708984375 453 836 c 0
 541.97265625 809.140625 493 674 493 674 c 25
 459 666 l 25
 459 666 464.546875 750.15234375 395 758 c 0
 338.370117188 764.389648438 285.21875 739.506835938 241 692 c 0
 159.2421875 604.162109375 198.736328125 514.29296875 259 522 c 9
 263 493 l 17
EndSplineSet
Fore
SplineSet
12 590 m 4
 12.8623046875 740.000976562 153.483398438 842 270 842 c 4
 365.568359375 842 384.501953125 793.254882812 383 749 c 4
 381.127929688 693.850585938 335.169921875 660.15625 323 642 c 5
 288 621 l 5
 320.392578125 650.11328125 325 686.483398438 321 721 c 4
 317.083007812 754.796875 293.502929688 800.3046875 241 801 c 4
 165 801.965820312 91 723.735351562 91 603 c 4
 91 529 152.6640625 521 190 521 c 4
 200 521 210 523 218 524 c 5
 208 494 l 5
 191 483.333007812 177.953125 477.93359375 162 478 c 4
 83.708984375 478.32421875 11.505859375 504.14453125 12 590 c 4
EndSplineSet
Refer: 4 3515 N 1 0 0 1 0 0 2
LCarets2: 1 0
Ligature2: "si_abvs_1 subtable" si_Ra si_MatraI
EndChar

StartChar: si_RIi
Encoding: 378 -1 250
GlifName: si_R_I_i
Width: 695
VWidth: -5
Flags: HMW
LayerCount: 2
Back
Refer: 4 3515 N 1 0 0 1 0 0 2
Fore
SplineSet
22 630 m 4
 22.8623046875 780.000976562 163.483398438 882 280 882 c 4
 375.568359375 882 394.501953125 833.254882812 393 789 c 4
 391.127929688 733.850585938 345.169921875 700.15625 333 682 c 5
 298 661 l 5
 330.392578125 690.11328125 335 726.483398438 331 761 c 4
 327.083007812 794.796875 303.502929688 840.3046875 251 841 c 4
 175 841.965820312 101 763.735351562 101 643 c 4
 101 569 162.6640625 561 200 561 c 4
 210 561 220 563 228 564 c 5
 218 534 l 5
 201 523.333007812 187.953125 517.93359375 172 518 c 4
 93.708984375 518.32421875 21.505859375 544.14453125 22 630 c 4
EndSplineSet
Refer: 4 3515 N 1 0 0 1 -16 0 2
LCarets2: 1 0
Ligature2: "si_abvs_2 subtable" si_Ra si_MatraIi
EndChar

StartChar: si_LI
Encoding: 382 -1 254
GlifName: si_L_I_
Width: 870
VWidth: -5
Flags: HMW
LayerCount: 2
Back
SplineSet
296 468 m 17
 243 468 190.475585938 521.147460938 195 598 c 0
 202.833984375 731.080078125 326.991210938 829.928710938 499 833 c 0
 722.965296868 836.998994298 819.440429688 717.55859375 816 601 c 0
 814.0625 535.350585938 762 486 727 472 c 9
 693 497 l 17
 716 517 753.9375 536.671875 751 598 c 0
 748.1953125 656.557617188 685.924804688 736.450195312 501 736 c 0
 355.9140625 735.646484375 257 679 248 604 c 0
 241.56640625 550.384765625 290 513 313 503 c 9
 296 468 l 17
EndSplineSet
Refer: 41 3517 N 1 0 0 1 0 0 2
Fore
SplineSet
231 618 m 0
 232 744 371.000976562 856.797851562 562 858 c 0
 711 858.9375 825 784 823 661 c 0
 821.926757812 594.978515625 752 504 657 530 c 9
 627 568 l 17
 711 539 768.5078125 604.475585938 753 651 c 0
 727 729 625.05078125 766.591796875 487 762 c 0
 401.868164062 759.16796875 292 709 284 633 c 0
 275 549 362 544 414 564 c 9
 322 500 l 17
 260 500 230.555664062 562.001953125 231 618 c 0
EndSplineSet
Refer: 41 3517 S 1 0 0 1 -10 -40 2
LCarets2: 1 0
Ligature2: "si_abvs_1 subtable" si_La si_MatraI
EndChar

StartChar: si_LU
Encoding: 384 -1 256
GlifName: si_L_U_
Width: 852
VWidth: -5
Flags: HMW
LayerCount: 2
Back
Refer: 41 3517 N 1 0 0 1 0 0 2
Fore
SplineSet
89 -182 m 0
 98 -107 179 -78 226 -74 c 1
 231 -99 l 1
 196 -109 159 -138 160 -173 c 0
 161 -204 183 -226 235 -226 c 1
 688 -216 l 1
 694 9 l 1
 731 45 l 1
 737 -289 l 1
 224 -289 l 2
 109 -289 83 -232 89 -182 c 0
56 163 m 0
 56 366 208 563 465 564 c 0
 676 565 774 422 774 311 c 0
 774 192 690 91 554 89 c 0
 456 88 395 135 396 199 c 0
 397 260 433 311 499 333 c 1
 498 330 497 327 496 324 c 1
 326 324 l 1
 326 369 l 1
 558 369 l 1
 558 324 l 1
 525 324 470 287 470 233 c 0
 470 172 527 145 573 145 c 0
 658 145 690 209 690 277 c 0
 690 390 587 494 418 494 c 0
 258 494 134 398 134 220 c 0
 134 32 288 -41 452 -41 c 0
 557 -41 654 -6 722 39 c 1
 725 37 727 26 727 13 c 0
 727 0 725 -16 720 -27 c 1
 657 -97 546 -142 426 -142 c 0
 180 -142 56 1 56 163 c 0
EndSplineSet
LCarets2: 1 0
Ligature2: "si_blws_1 subtable" si_La si_MatraU
EndChar

StartChar: si_V.halant
Encoding: 386 -1 258
GlifName: si_V_.halant
Width: 780
VWidth: -14
Flags: HMW
LayerCount: 2
Back
SplineSet
396 274 m 1
 260.50390625 291.37890625 133.465820312 252.458984375 138 158 c 0
 141.069335938 94.0595703125 229.272460938 45.0927734375 375 46 c 0
 549 47.083984375 647 180.395507812 647 339 c 0
 710 331 l 0
 710 111.353515625 601.00390625 -66.76171875 365 -68 c 0
 183.8203125 -69.0419921875 59.146484375 8.0341796875 56 137 c 0
 52.244140625 299.32421875 249.439453125 329.377929688 364 322 c 1
 364 392 314 428 222 428 c 1
 196 347 l 1
 145 340 110.760742188 368.857421875 119 415 c 0
 129 471 187 490 234 490 c 0
 310 490 399.999023438 453 404 349 c 0
 405.383789062 313.026367188 396 274 396 274 c 1
EndSplineSet
Refer: 337 -1 N 1 0 0 1 0 0 2
Fore
SplineSet
174.864257812 770.661132812 m 1
 177.7734375 783.661132812 184.081054688 816.661132812 203.319335938 848.661132812 c 0
 203.319335938 848.661132812 256.747070312 889.927734375 378.67578125 888.661132812 c 0
 667.465820312 885.661132812 747.046875 600.661132812 734.180664062 416.661132812 c 1
 690.774414062 496.661132812 l 1
 697.110351562 558.661132812 649.87109375 805.661132812 370.081054688 808.661132812 c 0
 289.149414062 809.529296875 260.452148438 799.661132812 260.452148438 799.661132812 c 1
 296.33984375 826.661132812 325.200195312 824.661132812 354.129882812 823.661132812 c 1
 309.640625 816.661132812 233.815429688 744.661132812 205.41015625 681.661132812 c 1
 169.830078125 686.661132812 l 1
 217.123046875 776.661132812 266.270507812 825.661132812 285.178710938 838.661132812 c 1
 254.452148438 799.661132812 l 1
 218.61328125 787.661132812 205.193359375 789.661132812 174.864257812 770.661132812 c 1
45 148 m 0
 45 299 211.038085938 354 320 354 c 0
 329 354 342 354 350 353 c 1
 349 419 303 453 254 453 c 0
 192 453 170 396 170 385 c 1
 119 379 91 404 91 439 c 0
 91 495 145 528 203 528 c 0
 339 528 401 415 401 323 c 0
 401 310 400 298 398 286 c 1
 378 270 l 1
 353 274 326 276 300 276 c 0
 191.771484375 276 93 245 93 171 c 0
 93 109 182.186523438 66 320 66 c 0
 552.876953125 66 680 176 680 393 c 0
 680 575 540.65234375 666 359 666 c 0
 222.095703125 666 141.190429688 608 139 608 c 5
 131.53125 625.513671875 157.791992188 663.366210938 168 685 c 1
 212.677734375 706.807617188 260.37109375 749 357 749 c 0
 584.810546875 749 737 608 737 364 c 0
 737 124 582.483398438 -47 340 -47 c 0
 164.458984375 -47 45 24 45 148 c 0
EndSplineSet
LCarets2: 1 0
Ligature2: "si_halant_1 subtable" si_Va si_Halant
EndChar

StartChar: si_VIi
Encoding: 388 -1 259
GlifName: si_V_I_i
Width: 760
Flags: HMW
LayerCount: 2
Back
SplineSet
376 262 m 1xfe80
 230 278 125 245 129 158 c 0
 131.939782368 94.0597335036 205 41 345 42 c 0
 514 43 607 173 607 326 c 0
 682 321 l 0
 682 107 571.002314781 -56.4236373831 335 -58 c 0
 179 -59.0419921875 49.3495196644 8.04349292099 46 137 c 0
 42 291 205 325 327 318 c 1
 337 378 304 428 212 428 c 1
 186 347 l 1
 135 340 100 369 109 415 c 0
 119 471 177 490 224 490 c 0
 300 490 380 453 384 349 c 0
 385.383592396 313.026597713 376 262 376 262 c 1xfe80
EndSplineSet
Refer: 329 -1 N 1 0 0 1 0 0 2
Fore
SplineSet
445 683 m 1
 440.53500839 729.848652815 467.243389637 819.323504009 620 819 c 1
 633 770 l 1
 509.001149999 783.965219197 497 725 497 673 c 0
 497 653.790627288 541 650 541 650 c 1
 515 622 l 1
 445 683 l 1
716.415039062 367 m 4
 720.000000001 146.556962025 574.401367188 -38 340 -38 c 0
 170.409179688 -38 54 30 54 154 c 0
 54 305 215 363 320 363 c 0
 329 363 342 363 350 362 c 1
 349 428 303 462 254 462 c 0
 192 462 170 405 170 394 c 1
 119 388 91 413 91 448 c 0
 91 504 145 537 203 537 c 0
 339 537 401 424 401 332 c 0
 401 319 400 307 398 295 c 1
 378 279 l 1
 353 283 326 285 300 285 c 0
 197 285 102 251 102 177 c 0
 102 115 180.399414062 75 300 75 c 0
 526.1171875 75 657.285642482 198.572873047 658.806640625 366 c 4
 660.048144756 502.661225244 555.346088968 614.270805972 405 622 c 0
 296.784874999 627.780583932 264.002931257 604.848529261 208 604 c 0
 142 603 109.133060707 642.85058173 110 694 c 0
 112 812 255.995112079 905.479089937 427 907 c 0
 594.006835938 908.485351562 677.580521881 824.992356593 676 727 c 0
 675 665 612 591 513 607 c 1
 510 659 l 1
 564 644 631.622130815 673.974989869 633 716 c 0
 635 777 526 823 366 823 c 0
 255 823 166.199136026 780.987040386 162 718 c 0
 160 688 178 676 219 675 c 0
 253.224408563 674.165258328 324 699 414 696 c 0
 588.127980378 690.366951274 713.322424006 547.001489012 716.415039062 367 c 4
EndSplineSet
Ligature2: "si_abvs_2 subtable" si_Va si_MatraIi
LCarets2: 1 0
Ligature2: "'abvs' Above Base Substitutions in Sinhala lookup 0-2" si_Va si_MatraIi
EndChar

StartChar: si_VUu
Encoding: 390 -1 261
GlifName: si_V_U_u
Width: 790
Flags: HMW
LayerCount: 2
Back
Refer: 2 3520 N 1 0 0 1 0 0 2
Fore
SplineSet
700 -321 m 5
 670 -337 l 5
 628.733398438 -311.030273438 530.416015625 -292.655273438 470 -291 c 0
 345.696289062 -288.799804688 347.977539062 -344 217 -344 c 0
 108.452148438 -344 74.1396484375 -273.059570312 75 -219 c 0
 75.7626953125 -171.11328125 119.41015625 -106.958007812 204 -106 c 0
 244.5859375 -105.541015625 279 -126 279 -126 c 1
 274 -151 l 1
 196.091796875 -125.915039062 148 -168.592773438 148 -215 c 0
 148 -247.666992188 173.153320312 -270.733398438 218 -271 c 0
 338.709960938 -271.665039062 350.23828125 -208.779296875 476 -208 c 0
 527.1796875 -207.765625 607.012695312 -225.18359375 636 -239 c 5
 653 209 l 1
 704 239 l 1
 700 -321 l 5
EndSplineSet
Refer: 2 3520 N 1 0 0 1 0 0 2
LCarets2: 1 0
Ligature2: "si_blws_3 subtable" si_Va si_MatraUu
EndChar

StartChar: si_ShI
Encoding: 397 -1 268
GlifName: si_S_hI_
Width: 970
VWidth: -24
Flags: HMW
LayerCount: 2
Back
Refer: 42 3521 N 1 0 0 1 0 0 2
Fore
SplineSet
363.852539062 211 m 1
 381.098632812 441.051757812 511.318359375 588.4140625 693.0859375 590 c 0
 857.813476562 591.29296875 953.3203125 471.8515625 944.8359375 310 c 0
 936.401367188 138.890625 829.397460938 -7 643.065429688 -10 c 1
 607.221679688 15.291015625 606.610351562 63.658203125 607.830078125 87 c 0
 607.934570312 89 620.14453125 93 620.249023438 95 c 1
 652.4765625 86.5498046875 665.826171875 85.1796875 707.201171875 86 c 0
 808.020507812 88 878.079101562 172.41796875 884.739257812 264 c 0
 894.067382812 388.811523438 792.473632812 485 664.583984375 485 c 0
 495.4921875 485 400.94140625 366.358398438 410.852539062 211 c 1
 394.234375 209 378.938476562 208 363.852539062 211 c 1
78.0009765625 265 m 0
 88.6845703125 479 248.966796875 589 369.0859375 591 c 1
 375.090820312 567.989257812 364.840820312 492.900390625 358.369140625 482 c 1
 239.225585938 482 143.961914062 426.584960938 126.896484375 279 c 0
 116.228515625 169.686523438 204.377929688 93.3125 332.568359375 92 c 0
 423.3046875 91.0712890625 522.80859375 131.217773438 529.799804688 213 c 0
 535.934570312 284.772460938 440.758789062 311.86328125 405.412109375 313 c 1
 416.290039062 365 l 1
 504.248046875 365.9375 584.68359375 304.072265625 580.852539062 214 c 0
 576.561523438 99.984375 498.430664062 -9 350.484375 -12 c 0
 159.065429688 -15.8818359375 69.93359375 109.87109375 78.0009765625 265 c 0
680.952148438 -6 m 1
 680.952148438 -6 602.006835938 -8.6845703125 607.25390625 91 c 0
 612.114257812 189.000976562 703.874023438 257 781.163085938 257 c 0
 862.35546875 257 891.013671875 220 891.013671875 220 c 1
 860.241210938 144 l 1
 860.241210938 144 827.081054688 174.383789062 769.865234375 175 c 0
 717.7265625 175.650390625 655.969726562 157.169921875 643.625 75 c 0
 638.40625 45.0126953125 702.74609375 1 702.74609375 1 c 1
 680.952148438 -6 l 1
419 647 m 0
 419.810546875 763.345703125 539.002929688 872.495117188 710 874 c 0
 828.999023438 875.046875 943 802 941 679 c 0
 939.926757812 612.978515625 860 518 765 544 c 9
 735 582 l 17
 819 553 862.884765625 615.995117188 861 665 c 0
 858 743 753.05078125 778.591796875 655 774 c 0
 569.9140625 770.015625 480 725 472 649 c 0
 463 565 550 560 602 580 c 9
 550 516 l 17
 488 516 418.33203125 551.16796875 419 647 c 0
EndSplineSet
LCarets2: 1 0
Ligature2: "si_abvs_1 subtable" si_Sha si_MatraI
EndChar

StartChar: si_SU
Encoding: 419 -1 289
GlifName: si_S_U_
Width: 905
Flags: HMW
AnchorPoint: "si_MaU" 39 209 mark 0
LayerCount: 2
Back
SplineSet
282 -117 m 5xee80
 298.772460938 -152 l 5
 298.76953125 -143.934570312 232.1875 -188.71875 232.190429688 -228 c 4
 232.1953125 -274.552734375 259.481445312 -288 318 -288 c 5
 795 -288 l 1
 795 127 l 1
 842 127 l 1
 848 -369 l 1
 848 -369 457.048828125 -371.4765625 246 -372.586914062 c 4
 166 -373 124.755859375 -323.6015625 124 -273 c 4
 122.37109375 -163.938476562 282 -117 282 -117 c 5xee80
EndSplineSet
Refer: 6 3523 N 1 0 0 1 0 0 2
Fore
SplineSet
125 -242 m 0
 126 -192 166.993750244 -124 247 -124 c 0
 293 -124 332 -154 332 -154 c 1
 327 -179 l 1
 246 -159 196 -201 196 -238 c 0
 196 -273 220 -300 271 -298 c 1
 754 -266 l 5
 797 139 l 5
 834 139 l 5
 813 -359 l 5
 290 -359 l 2
 158 -359 123.900038167 -296.998091639 125 -242 c 0
EndSplineSet
Refer: 6 3523 N 1 0 0 1 0 0 2
LCarets2: 1 0
Ligature2: "si_blws_1 subtable" si_Sa si_MatraU
EndChar

StartChar: si_SUu
Encoding: 420 -1 290
GlifName: si_S_U_u
Width: 905
Flags: HMW
LayerCount: 2
Back
Refer: 6 3523 N 1 0 0 1 0 0 2
Fore
SplineSet
834 -341 m 5
 784 -357 l 5
 742.733398438 -331.030273438 660.416015625 -302.655273438 600 -301 c 4
 475.696289062 -298.799804688 377.977539062 -363 247 -363 c 4
 138.452148438 -363 104.139648438 -302.059570312 105 -248 c 4
 105.762695312 -200.11328125 149.41015625 -135.958007812 234 -135 c 4
 274.5859375 -134.541015625 309 -155 309 -155 c 5
 304 -180 l 5
 226.091796875 -154.915039062 178 -207.592773438 178 -254 c 4
 178 -286.666992188 203.153320312 -309.733398438 248 -310 c 4
 368.709960938 -310.665039062 470.23828125 -218.779296875 596 -218 c 4
 647.1796875 -217.765625 741.012695312 -235.18359375 770 -249 c 5
 793 159 l 5
 844 189 l 5
 834 -341 l 5
EndSplineSet
Refer: 6 3523 N 1 0 0 1 0 0 2
LCarets2: 1 0
Ligature2: "si_blws_3 subtable" si_Sa si_MatraUu
EndChar

StartChar: si_HI
Encoding: 427 -1 297
GlifName: si_H_I_
Width: 1038
VWidth: -24
Flags: HMW
LayerCount: 2
Back
Refer: 44 3524 N 1 0 0 1 0 0 2
Fore
SplineSet
439 634 m 4
 439.810546875 750.345703125 559.002929688 859.495117188 730 861 c 4
 848.999023438 862.046875 963 789 961 666 c 4
 959.926757812 599.978515625 880 505 785 531 c 13
 755 569 l 21
 839 540 882.884796261 602.995297211 881 652 c 4
 878 730 773.05078125 765.591796875 675 761 c 4
 589.9140625 757.015625 500 712 492 636 c 4
 483 552 570 547 622 567 c 13
 570 503 l 21
 508 503 438.33203125 538.16796875 439 634 c 4
EndSplineSet
Refer: 44 3524 N 1 0 0 1 -30 0 2
LCarets2: 1 0
Ligature2: "si_abvs_1 subtable" si_Ha si_MatraI
EndChar

